G04*
G04 #@! TF.GenerationSoftware,Altium Limited,Altium Designer,20.2.3 (150)*
G04*
G04 Layer_Color=8421504*
%FSTAX24Y24*%
%MOIN*%
G70*
G04*
G04 #@! TF.SameCoordinates,FD17E350-08D3-4DFF-A4DB-8DFB896FC0A1*
G04*
G04*
G04 #@! TF.FilePolarity,Positive*
G04*
G01*
G75*
%ADD24R,0.0700X0.1260*%
%ADD25R,0.1772X0.0827*%
%ADD26R,0.1024X0.0917*%
G04:AMPARAMS|DCode=27|XSize=50mil|YSize=50mil|CornerRadius=12.5mil|HoleSize=0mil|Usage=FLASHONLY|Rotation=180.000|XOffset=0mil|YOffset=0mil|HoleType=Round|Shape=RoundedRectangle|*
%AMROUNDEDRECTD27*
21,1,0.0500,0.0250,0,0,180.0*
21,1,0.0250,0.0500,0,0,180.0*
1,1,0.0250,-0.0125,0.0125*
1,1,0.0250,0.0125,0.0125*
1,1,0.0250,0.0125,-0.0125*
1,1,0.0250,-0.0125,-0.0125*
%
%ADD27ROUNDEDRECTD27*%
%ADD28R,0.0394X0.0550*%
%ADD29R,0.0500X0.0550*%
%ADD30R,0.0550X0.0500*%
%ADD31R,0.1299X0.0709*%
%ADD32R,0.0236X0.0354*%
%ADD33R,0.0866X0.0236*%
%ADD34R,0.1181X0.2126*%
%ADD35R,0.0866X0.0669*%
%ADD36R,0.0992X0.0311*%
%ADD37R,0.2008X0.0311*%
%ADD38R,0.0528X0.1346*%
G36*
X221737Y136884D02*
X221146D01*
Y13764D01*
X221737D01*
Y136884D01*
D02*
G37*
G36*
X220922D02*
X220331D01*
Y13764D01*
X220922D01*
Y136884D01*
D02*
G37*
G36*
X220107D02*
X219516D01*
Y13764D01*
X220107D01*
Y136884D01*
D02*
G37*
G36*
X221737Y13579D02*
X221146D01*
Y136546D01*
X221737D01*
Y13579D01*
D02*
G37*
G36*
X220922D02*
X220331D01*
Y136546D01*
X220922D01*
Y13579D01*
D02*
G37*
G36*
X220107D02*
X219516D01*
Y136546D01*
X220107D01*
Y13579D01*
D02*
G37*
D24*
X218183Y140405D02*
D03*
X215643D02*
D03*
D25*
X224928Y132527D02*
D03*
X221258D02*
D03*
X218884Y144227D02*
D03*
X215215D02*
D03*
D26*
X2159Y137543D02*
D03*
Y135637D02*
D03*
D27*
X23055Y1266D02*
D03*
X23155D02*
D03*
X25675Y12725D02*
D03*
X25775D02*
D03*
Y1308D02*
D03*
X25675D02*
D03*
X25775Y13435D02*
D03*
X25675D02*
D03*
Y1379D02*
D03*
X25775D02*
D03*
Y14145D02*
D03*
X25675D02*
D03*
X2645Y1308D02*
D03*
X2655D02*
D03*
Y13435D02*
D03*
X2645D02*
D03*
Y1379D02*
D03*
X2655D02*
D03*
Y14145D02*
D03*
X2645D02*
D03*
Y12725D02*
D03*
X2655D02*
D03*
X21975Y134D02*
D03*
X21875D02*
D03*
X248Y13965D02*
D03*
X247D02*
D03*
X23695Y1396D02*
D03*
X23795D02*
D03*
D28*
X2584Y12725D02*
D03*
X2593D02*
D03*
X2584Y1308D02*
D03*
X2593D02*
D03*
X2584Y13435D02*
D03*
X2593D02*
D03*
X2584Y1379D02*
D03*
X2593D02*
D03*
X2584Y14145D02*
D03*
X2593D02*
D03*
X2225Y1294D02*
D03*
X2234D02*
D03*
X26615Y12725D02*
D03*
X26705D02*
D03*
X26615Y1308D02*
D03*
X26705D02*
D03*
X26615Y13435D02*
D03*
X26705D02*
D03*
X26615Y1379D02*
D03*
X26705D02*
D03*
X26615Y14145D02*
D03*
X26705D02*
D03*
D29*
X21771Y1229D02*
D03*
X21681D02*
D03*
X22089D02*
D03*
X22179D02*
D03*
X22587D02*
D03*
X22497D02*
D03*
X22905D02*
D03*
X22995D02*
D03*
X23403D02*
D03*
X23313D02*
D03*
X23721D02*
D03*
X23811D02*
D03*
X24219D02*
D03*
X24129D02*
D03*
X24537D02*
D03*
X24627D02*
D03*
X25035D02*
D03*
X24945D02*
D03*
X25353D02*
D03*
X25443D02*
D03*
X25851D02*
D03*
X25761D02*
D03*
X26169D02*
D03*
X26259D02*
D03*
X26667D02*
D03*
X26577D02*
D03*
X26985D02*
D03*
X27075D02*
D03*
X22175Y1294D02*
D03*
X22085D02*
D03*
D30*
X229549Y150268D02*
D03*
Y149368D02*
D03*
X250299D02*
D03*
Y150268D02*
D03*
X233699D02*
D03*
Y149368D02*
D03*
X254449D02*
D03*
Y150268D02*
D03*
X237849D02*
D03*
Y149368D02*
D03*
X258599D02*
D03*
Y150268D02*
D03*
X241999D02*
D03*
Y149368D02*
D03*
X262749D02*
D03*
Y150268D02*
D03*
X246149D02*
D03*
Y149368D02*
D03*
X266899D02*
D03*
Y150268D02*
D03*
D31*
X26915Y15036D02*
D03*
Y14784D02*
D03*
X24845Y15036D02*
D03*
Y14784D02*
D03*
X26495Y15036D02*
D03*
Y14784D02*
D03*
X2443Y15036D02*
D03*
Y14784D02*
D03*
X26075Y15036D02*
D03*
Y14784D02*
D03*
X24005Y15036D02*
D03*
Y14784D02*
D03*
X25665Y15036D02*
D03*
Y14784D02*
D03*
X23595Y15036D02*
D03*
Y14784D02*
D03*
X25265Y15036D02*
D03*
Y14784D02*
D03*
X2317Y15036D02*
D03*
Y14784D02*
D03*
D32*
X220015Y1349D02*
D03*
X2193Y1349D02*
D03*
X218215Y1349D02*
D03*
X2175Y1349D02*
D03*
D33*
X246426Y13885D02*
D03*
Y13835D02*
D03*
Y13785D02*
D03*
Y13735D02*
D03*
Y13685D02*
D03*
Y13635D02*
D03*
Y13585D02*
D03*
Y13535D02*
D03*
X248674Y13885D02*
D03*
Y13835D02*
D03*
Y13785D02*
D03*
Y13735D02*
D03*
Y13685D02*
D03*
Y13635D02*
D03*
Y13585D02*
D03*
Y13535D02*
D03*
X238474Y13525D02*
D03*
Y13575D02*
D03*
Y13625D02*
D03*
Y13675D02*
D03*
Y13725D02*
D03*
Y13775D02*
D03*
Y13825D02*
D03*
Y13875D02*
D03*
X236226Y13525D02*
D03*
Y13575D02*
D03*
Y13625D02*
D03*
Y13675D02*
D03*
Y13725D02*
D03*
Y13775D02*
D03*
Y13825D02*
D03*
Y13875D02*
D03*
D34*
X215207Y130757D02*
D03*
X219066D02*
D03*
D35*
X260597Y14231D02*
D03*
Y14331D02*
D03*
X257369Y14231D02*
D03*
Y14331D02*
D03*
Y13975D02*
D03*
Y13875D02*
D03*
X260597Y13975D02*
D03*
Y13875D02*
D03*
Y1352D02*
D03*
Y1362D02*
D03*
X257369Y1352D02*
D03*
Y1362D02*
D03*
Y13265D02*
D03*
Y13165D02*
D03*
X260597Y13265D02*
D03*
Y13165D02*
D03*
Y1281D02*
D03*
Y1291D02*
D03*
X257369Y1281D02*
D03*
Y1291D02*
D03*
X265069Y1433D02*
D03*
Y1423D02*
D03*
X268297Y1433D02*
D03*
Y1423D02*
D03*
Y13875D02*
D03*
Y13975D02*
D03*
X265069Y13875D02*
D03*
Y13975D02*
D03*
Y1362D02*
D03*
Y1352D02*
D03*
X268297Y1362D02*
D03*
Y1352D02*
D03*
Y13165D02*
D03*
Y13265D02*
D03*
X265069Y13165D02*
D03*
Y13265D02*
D03*
Y1291D02*
D03*
Y1281D02*
D03*
X268297Y1291D02*
D03*
Y1281D02*
D03*
D36*
X217942Y136215D02*
D03*
Y135715D02*
D03*
Y137215D02*
D03*
Y137715D02*
D03*
D37*
X21845Y136715D02*
D03*
D38*
X23225Y129618D02*
D03*
X234604D02*
D03*
X23225Y131399D02*
D03*
X234604D02*
D03*
X23225Y134961D02*
D03*
X234604D02*
D03*
X23225Y138523D02*
D03*
X234604D02*
D03*
X23225Y136742D02*
D03*
X234604D02*
D03*
X23225Y13318D02*
D03*
X234604D02*
D03*
X23225Y140304D02*
D03*
X234604D02*
D03*
X24235Y136774D02*
D03*
X244704D02*
D03*
X24235Y131431D02*
D03*
X244704D02*
D03*
X24235Y140337D02*
D03*
X244704D02*
D03*
X24235Y134993D02*
D03*
X244704D02*
D03*
X24235Y133212D02*
D03*
X244704D02*
D03*
X24235Y12965D02*
D03*
X244704D02*
D03*
X24235Y138556D02*
D03*
X244704D02*
D03*
M02*
