G04*
G04 #@! TF.GenerationSoftware,Altium Limited,Altium Designer,20.2.3 (150)*
G04*
G04 Layer_Color=2752767*
%FSTAX24Y24*%
%MOIN*%
G70*
G04*
G04 #@! TF.SameCoordinates,FD17E350-08D3-4DFF-A4DB-8DFB896FC0A1*
G04*
G04*
G04 #@! TF.FilePolarity,Positive*
G04*
G01*
G75*
%ADD16C,0.0020*%
%ADD85C,0.0027*%
D16*
X23262Y12537D02*
Y12553D01*
X23278D01*
Y12537D01*
X23262D01*
X23062D02*
Y12553D01*
X23078D01*
Y12537D01*
X23062D01*
X22962D02*
Y12553D01*
X22978D01*
Y12537D01*
X22962D01*
X23262Y14437D02*
Y14453D01*
X23278D01*
Y14437D01*
X23262D01*
X23362D02*
Y14453D01*
X23378D01*
Y14437D01*
X23362D01*
X23462D02*
Y14453D01*
X23478D01*
Y14437D01*
X23462D01*
X23562D02*
Y14453D01*
X23578D01*
Y14437D01*
X23562D01*
X23662D02*
Y14453D01*
X23678D01*
Y14437D01*
X23662D01*
X23762D02*
Y14453D01*
X23778D01*
Y14437D01*
X23762D01*
X23862D02*
Y14453D01*
X23878D01*
Y14437D01*
X23862D01*
X23962D02*
Y14453D01*
X23978D01*
Y14437D01*
X23962D01*
X22712D02*
Y14453D01*
X22728D01*
Y14437D01*
X22712D01*
X22812D02*
Y14453D01*
X22828D01*
Y14437D01*
X22812D01*
X22912D02*
Y14453D01*
X22928D01*
Y14437D01*
X22912D01*
X23012D02*
Y14453D01*
X23028D01*
Y14437D01*
X23012D01*
X23112D02*
Y14453D01*
X23128D01*
Y14437D01*
X23112D01*
X23462Y12537D02*
Y12553D01*
X23478D01*
Y12537D01*
X23462D01*
X23562D02*
Y12553D01*
X23578D01*
Y12537D01*
X23562D01*
X23662D02*
Y12553D01*
X23678D01*
Y12537D01*
X23662D01*
X23762D02*
Y12553D01*
X23778D01*
Y12537D01*
X23762D01*
X25262Y12737D02*
Y12753D01*
X25278D01*
Y12737D01*
X25262D01*
X25162D02*
Y12753D01*
X25178D01*
Y12737D01*
X25162D01*
X25262Y13037D02*
Y13053D01*
X25278D01*
Y13037D01*
X25262D01*
X25162D02*
Y13053D01*
X25178D01*
Y13037D01*
X25162D01*
X25262Y13137D02*
Y13153D01*
X25278D01*
Y13137D01*
X25262D01*
X25162D02*
Y13153D01*
X25178D01*
Y13137D01*
X25162D01*
X25262Y13237D02*
Y13253D01*
X25278D01*
Y13237D01*
X25262D01*
X25162D02*
Y13253D01*
X25178D01*
Y13237D01*
X25162D01*
X25262Y13337D02*
Y13353D01*
X25278D01*
Y13337D01*
X25262D01*
X25162D02*
Y13353D01*
X25178D01*
Y13337D01*
X25162D01*
X25262Y13437D02*
Y13453D01*
X25278D01*
Y13437D01*
X25262D01*
X25162D02*
Y13453D01*
X25178D01*
Y13437D01*
X25162D01*
X25262Y13537D02*
Y13553D01*
X25278D01*
Y13537D01*
X25262D01*
X25162D02*
Y13553D01*
X25178D01*
Y13537D01*
X25162D01*
X25262Y13637D02*
Y13653D01*
X25278D01*
Y13637D01*
X25262D01*
X25162D02*
Y13653D01*
X25178D01*
Y13637D01*
X25162D01*
Y14337D02*
Y14353D01*
X25178D01*
Y14337D01*
X25162D01*
Y14437D02*
Y14453D01*
X25178D01*
Y14437D01*
X25162D01*
X22512D02*
Y14453D01*
X22528D01*
Y14437D01*
X22512D01*
X2305Y156817D02*
X23042Y156977D01*
X23058D01*
X2305Y156817D01*
X2325D02*
X23242Y156977D01*
X23258D01*
X2325Y156817D01*
X2345D02*
X23442Y156977D01*
X23458D01*
X2345Y156817D01*
X2365D02*
X23642Y156977D01*
X23658D01*
X2365Y156817D01*
X2385D02*
X23842Y156977D01*
X23858D01*
X2385Y156817D01*
X2405D02*
X24042Y156977D01*
X24058D01*
X2405Y156817D01*
X2425D02*
X24242Y156977D01*
X24258D01*
X2425Y156817D01*
X2445D02*
X24442Y156977D01*
X24458D01*
X2445Y156817D01*
X2305Y153817D02*
X23042Y153977D01*
X23058D01*
X2305Y153817D01*
X2325D02*
X23254Y153857D01*
X23258D01*
X23254Y153897D01*
X23258Y153937D01*
X23254D01*
X2325Y153977D01*
X23246Y153937D01*
X23242D01*
X23246Y153897D01*
X23242Y153857D01*
X23246D01*
X2325Y153817D01*
X2345D02*
X23442Y153977D01*
X23458D01*
X2345Y153817D01*
X2365D02*
X23642Y153977D01*
X23658D01*
X2365Y153817D01*
X2385D02*
X23842Y153977D01*
X23858D01*
X2385Y153817D01*
X2405D02*
X24042Y153977D01*
X24058D01*
X2405Y153817D01*
X2425D02*
X24242Y153977D01*
X24258D01*
X2425Y153817D01*
X2465D02*
X24642Y153977D01*
X24658D01*
X2465Y153817D01*
Y156817D02*
X24642Y156977D01*
X24658D01*
X2465Y156817D01*
X2445Y153817D02*
X24442Y153977D01*
X24458D01*
X2445Y153817D01*
X2485D02*
X24842Y153977D01*
X24858D01*
X2485Y153817D01*
Y156817D02*
X24842Y156977D01*
X24858D01*
X2485Y156817D01*
X25225Y15682D02*
X25217Y15698D01*
X25233D01*
X25225Y15682D01*
X25425D02*
X25417Y15698D01*
X25433D01*
X25425Y15682D01*
X25625D02*
X25617Y15698D01*
X25633D01*
X25625Y15682D01*
X25825D02*
X25817Y15698D01*
X25833D01*
X25825Y15682D01*
X26025D02*
X26017Y15698D01*
X26033D01*
X26025Y15682D01*
X26225D02*
X26217Y15698D01*
X26233D01*
X26225Y15682D01*
X26425D02*
X26417Y15698D01*
X26433D01*
X26425Y15682D01*
X26625D02*
X26617Y15698D01*
X26633D01*
X26625Y15682D01*
X25225Y15382D02*
X25217Y15398D01*
X25233D01*
X25225Y15382D01*
X25425D02*
X25429Y15386D01*
X25433D01*
X25429Y1539D01*
X25433Y15394D01*
X25429D01*
X25425Y15398D01*
X25421Y15394D01*
X25417D01*
X25421Y1539D01*
X25417Y15386D01*
X25421D01*
X25425Y15382D01*
X25625D02*
X25617Y15398D01*
X25633D01*
X25625Y15382D01*
X25825D02*
X25817Y15398D01*
X25833D01*
X25825Y15382D01*
X26025D02*
X26017Y15398D01*
X26033D01*
X26025Y15382D01*
X26225D02*
X26217Y15398D01*
X26233D01*
X26225Y15382D01*
X26425D02*
X26417Y15398D01*
X26433D01*
X26425Y15382D01*
X26825D02*
X26817Y15398D01*
X26833D01*
X26825Y15382D01*
Y15682D02*
X26817Y15698D01*
X26833D01*
X26825Y15682D01*
X26625Y15382D02*
X26617Y15398D01*
X26633D01*
X26625Y15382D01*
X27025D02*
X27017Y15398D01*
X27033D01*
X27025Y15382D01*
Y15682D02*
X27017Y15698D01*
X27033D01*
X27025Y15682D01*
X2791Y15642D02*
X27902Y15658D01*
X27918D01*
X2791Y15642D01*
Y15442D02*
X27902Y15458D01*
X27918D01*
X2791Y15442D01*
Y15242D02*
X27902Y15258D01*
X27918D01*
X2791Y15242D01*
Y15042D02*
X27902Y15058D01*
X27918D01*
X2791Y15042D01*
Y14842D02*
X27902Y14858D01*
X27918D01*
X2791Y14842D01*
Y14642D02*
X27902Y14658D01*
X27918D01*
X2791Y14642D01*
Y14442D02*
X27902Y14458D01*
X27918D01*
X2791Y14442D01*
Y14242D02*
X27902Y14258D01*
X27918D01*
X2791Y14242D01*
X2761Y15642D02*
X27602Y15658D01*
X27618D01*
X2761Y15642D01*
Y15442D02*
X27614Y15446D01*
X27618D01*
X27614Y1545D01*
X27618Y15454D01*
X27614D01*
X2761Y15458D01*
X27606Y15454D01*
X27602D01*
X27606Y1545D01*
X27602Y15446D01*
X27606D01*
X2761Y15442D01*
Y15242D02*
X27602Y15258D01*
X27618D01*
X2761Y15242D01*
Y15042D02*
X27602Y15058D01*
X27618D01*
X2761Y15042D01*
Y14842D02*
X27602Y14858D01*
X27618D01*
X2761Y14842D01*
Y14642D02*
X27602Y14658D01*
X27618D01*
X2761Y14642D01*
Y14442D02*
X27602Y14458D01*
X27618D01*
X2761Y14442D01*
Y14042D02*
X27602Y14058D01*
X27618D01*
X2761Y14042D01*
X2791D02*
X27902Y14058D01*
X27918D01*
X2791Y14042D01*
X2761Y14242D02*
X27602Y14258D01*
X27618D01*
X2761Y14242D01*
Y13842D02*
X27602Y13858D01*
X27618D01*
X2761Y13842D01*
X2791D02*
X27902Y13858D01*
X27918D01*
X2791Y13842D01*
X221869Y14017D02*
X221909Y14025D01*
X221869Y14033D01*
X221949Y14029D01*
X222029Y14033D01*
X221989Y14025D01*
X222029Y14017D01*
X221949Y14021D01*
X221869Y14017D01*
Y14217D02*
X221909Y14225D01*
X221869Y14233D01*
X221949Y14229D01*
X222029Y14233D01*
X221989Y14225D01*
X222029Y14217D01*
X221949Y14221D01*
X221869Y14217D01*
X26824Y13796D02*
Y13792D01*
X26832D01*
Y13796D01*
X26836D01*
Y13804D01*
X26832D01*
Y13808D01*
X26824D01*
Y13804D01*
X2682D01*
Y13796D01*
X26824D01*
X22392Y15567D02*
X22396D01*
X224Y15571D01*
X22404Y15567D01*
X22408D01*
Y15571D01*
X22404Y15575D01*
X22408Y15579D01*
Y15583D01*
X22404D01*
X224Y15579D01*
X22396Y15583D01*
X22392D01*
Y15579D01*
X22396Y15575D01*
X22392Y15571D01*
Y15567D01*
Y15267D02*
X22396D01*
X224Y15271D01*
X22404Y15267D01*
X22408D01*
Y15271D01*
X22404Y15275D01*
X22408Y15279D01*
Y15283D01*
X22404D01*
X224Y15279D01*
X22396Y15283D01*
X22392D01*
Y15279D01*
X22396Y15275D01*
X22392Y15271D01*
Y15267D01*
X21992Y15567D02*
X21996D01*
X22Y15571D01*
X22004Y15567D01*
X22008D01*
Y15571D01*
X22004Y15575D01*
X22008Y15579D01*
Y15583D01*
X22004D01*
X22Y15579D01*
X21996Y15583D01*
X21992D01*
Y15579D01*
X21996Y15575D01*
X21992Y15571D01*
Y15567D01*
X22092D02*
X22096D01*
X221Y15571D01*
X22104Y15567D01*
X22108D01*
Y15571D01*
X22104Y15575D01*
X22108Y15579D01*
Y15583D01*
X22104D01*
X221Y15579D01*
X22096Y15583D01*
X22092D01*
Y15579D01*
X22096Y15575D01*
X22092Y15571D01*
Y15567D01*
X22192D02*
X22196D01*
X222Y15571D01*
X22204Y15567D01*
X22208D01*
Y15571D01*
X22204Y15575D01*
X22208Y15579D01*
Y15583D01*
X22204D01*
X222Y15579D01*
X22196Y15583D01*
X22192D01*
Y15579D01*
X22196Y15575D01*
X22192Y15571D01*
Y15567D01*
X22292D02*
X22296D01*
X223Y15571D01*
X22304Y15567D01*
X22308D01*
Y15571D01*
X22304Y15575D01*
X22308Y15579D01*
Y15583D01*
X22304D01*
X223Y15579D01*
X22296Y15583D01*
X22292D01*
Y15579D01*
X22296Y15575D01*
X22292Y15571D01*
Y15567D01*
Y15267D02*
X22296D01*
X223Y15271D01*
X22304Y15267D01*
X22308D01*
Y15271D01*
X22304Y15275D01*
X22308Y15279D01*
Y15283D01*
X22304D01*
X223Y15279D01*
X22296Y15283D01*
X22292D01*
Y15279D01*
X22296Y15275D01*
X22292Y15271D01*
Y15267D01*
X22192D02*
X22196D01*
X222Y15271D01*
X22204Y15267D01*
X22208D01*
Y15271D01*
X22204Y15275D01*
X22208Y15279D01*
Y15283D01*
X22204D01*
X222Y15279D01*
X22196Y15283D01*
X22192D01*
Y15279D01*
X22196Y15275D01*
X22192Y15271D01*
Y15267D01*
X22092D02*
X22096D01*
X221Y15271D01*
X22104Y15267D01*
X22108D01*
Y15271D01*
X22104Y15275D01*
X22108Y15279D01*
Y15283D01*
X22104D01*
X221Y15279D01*
X22096Y15283D01*
X22092D01*
Y15279D01*
X22096Y15275D01*
X22092Y15271D01*
Y15267D01*
X21992D02*
X21996D01*
X22Y15271D01*
X22004Y15267D01*
X22008D01*
Y15271D01*
X22004Y15275D01*
X22008Y15279D01*
Y15283D01*
X22004D01*
X22Y15279D01*
X21996Y15283D01*
X21992D01*
Y15279D01*
X21996Y15275D01*
X21992Y15271D01*
Y15267D01*
X21592Y15567D02*
X21596D01*
X216Y15571D01*
X21604Y15567D01*
X21608D01*
Y15571D01*
X21604Y15575D01*
X21608Y15579D01*
Y15583D01*
X21604D01*
X216Y15579D01*
X21596Y15583D01*
X21592D01*
Y15579D01*
X21596Y15575D01*
X21592Y15571D01*
Y15567D01*
X21692D02*
X21696D01*
X217Y15571D01*
X21704Y15567D01*
X21708D01*
Y15571D01*
X21704Y15575D01*
X21708Y15579D01*
Y15583D01*
X21704D01*
X217Y15579D01*
X21696Y15583D01*
X21692D01*
Y15579D01*
X21696Y15575D01*
X21692Y15571D01*
Y15567D01*
X21792D02*
X21796D01*
X218Y15571D01*
X21804Y15567D01*
X21808D01*
Y15571D01*
X21804Y15575D01*
X21808Y15579D01*
Y15583D01*
X21804D01*
X218Y15579D01*
X21796Y15583D01*
X21792D01*
Y15579D01*
X21796Y15575D01*
X21792Y15571D01*
Y15567D01*
X21892D02*
X21896D01*
X219Y15571D01*
X21904Y15567D01*
X21908D01*
Y15571D01*
X21904Y15575D01*
X21908Y15579D01*
Y15583D01*
X21904D01*
X219Y15579D01*
X21896Y15583D01*
X21892D01*
Y15579D01*
X21896Y15575D01*
X21892Y15571D01*
Y15567D01*
Y15267D02*
X21896D01*
X219Y15271D01*
X21904Y15267D01*
X21908D01*
Y15271D01*
X21904Y15275D01*
X21908Y15279D01*
Y15283D01*
X21904D01*
X219Y15279D01*
X21896Y15283D01*
X21892D01*
Y15279D01*
X21896Y15275D01*
X21892Y15271D01*
Y15267D01*
X21792D02*
X21796D01*
X218Y15271D01*
X21804Y15267D01*
X21808D01*
Y15271D01*
X21804Y15275D01*
X21808Y15279D01*
Y15283D01*
X21804D01*
X218Y15279D01*
X21796Y15283D01*
X21792D01*
Y15279D01*
X21796Y15275D01*
X21792Y15271D01*
Y15267D01*
X21692D02*
X21696D01*
X217Y15271D01*
X21704Y15267D01*
X21708D01*
Y15271D01*
X21704Y15275D01*
X21708Y15279D01*
Y15283D01*
X21704D01*
X217Y15279D01*
X21696Y15283D01*
X21692D01*
Y15279D01*
X21696Y15275D01*
X21692Y15271D01*
Y15267D01*
X21592D02*
X21596D01*
X216Y15271D01*
X21604Y15267D01*
X21608D01*
Y15271D01*
X21604Y15275D01*
X21608Y15279D01*
Y15283D01*
X21604D01*
X216Y15279D01*
X21596Y15283D01*
X21592D01*
Y15279D01*
X21596Y15275D01*
X21592Y15271D01*
Y15267D01*
X22492Y15567D02*
X22496D01*
X225Y15571D01*
X22504Y15567D01*
X22508D01*
Y15571D01*
X22504Y15575D01*
X22508Y15579D01*
Y15583D01*
X22504D01*
X225Y15579D01*
X22496Y15583D01*
X22492D01*
Y15579D01*
X22496Y15575D01*
X22492Y15571D01*
Y15567D01*
Y15267D02*
X22496D01*
X225Y15271D01*
X22504Y15267D01*
X22508D01*
Y15271D01*
X22504Y15275D01*
X22508Y15279D01*
Y15283D01*
X22504D01*
X225Y15279D01*
X22496Y15283D01*
X22492D01*
Y15279D01*
X22496Y15275D01*
X22492Y15271D01*
Y15267D01*
Y14707D02*
X22496D01*
X225Y14711D01*
X22504Y14707D01*
X22508D01*
Y14711D01*
X22504Y14715D01*
X22508Y14719D01*
Y14723D01*
X22504D01*
X225Y14719D01*
X22496Y14723D01*
X22492D01*
Y14719D01*
X22496Y14715D01*
X22492Y14711D01*
Y14707D01*
Y15007D02*
X22496D01*
X225Y15011D01*
X22504Y15007D01*
X22508D01*
Y15011D01*
X22504Y15015D01*
X22508Y15019D01*
Y15023D01*
X22504D01*
X225Y15019D01*
X22496Y15023D01*
X22492D01*
Y15019D01*
X22496Y15015D01*
X22492Y15011D01*
Y15007D01*
X21592Y14707D02*
X21596D01*
X216Y14711D01*
X21604Y14707D01*
X21608D01*
Y14711D01*
X21604Y14715D01*
X21608Y14719D01*
Y14723D01*
X21604D01*
X216Y14719D01*
X21596Y14723D01*
X21592D01*
Y14719D01*
X21596Y14715D01*
X21592Y14711D01*
Y14707D01*
X21692D02*
X21696D01*
X217Y14711D01*
X21704Y14707D01*
X21708D01*
Y14711D01*
X21704Y14715D01*
X21708Y14719D01*
Y14723D01*
X21704D01*
X217Y14719D01*
X21696Y14723D01*
X21692D01*
Y14719D01*
X21696Y14715D01*
X21692Y14711D01*
Y14707D01*
X21792D02*
X21796D01*
X218Y14711D01*
X21804Y14707D01*
X21808D01*
Y14711D01*
X21804Y14715D01*
X21808Y14719D01*
Y14723D01*
X21804D01*
X218Y14719D01*
X21796Y14723D01*
X21792D01*
Y14719D01*
X21796Y14715D01*
X21792Y14711D01*
Y14707D01*
X21892D02*
X21896D01*
X219Y14711D01*
X21904Y14707D01*
X21908D01*
Y14711D01*
X21904Y14715D01*
X21908Y14719D01*
Y14723D01*
X21904D01*
X219Y14719D01*
X21896Y14723D01*
X21892D01*
Y14719D01*
X21896Y14715D01*
X21892Y14711D01*
Y14707D01*
Y15007D02*
X21896D01*
X219Y15011D01*
X21904Y15007D01*
X21908D01*
Y15011D01*
X21904Y15015D01*
X21908Y15019D01*
Y15023D01*
X21904D01*
X219Y15019D01*
X21896Y15023D01*
X21892D01*
Y15019D01*
X21896Y15015D01*
X21892Y15011D01*
Y15007D01*
X21792D02*
X21796D01*
X218Y15011D01*
X21804Y15007D01*
X21808D01*
Y15011D01*
X21804Y15015D01*
X21808Y15019D01*
Y15023D01*
X21804D01*
X218Y15019D01*
X21796Y15023D01*
X21792D01*
Y15019D01*
X21796Y15015D01*
X21792Y15011D01*
Y15007D01*
X21692D02*
X21696D01*
X217Y15011D01*
X21704Y15007D01*
X21708D01*
Y15011D01*
X21704Y15015D01*
X21708Y15019D01*
Y15023D01*
X21704D01*
X217Y15019D01*
X21696Y15023D01*
X21692D01*
Y15019D01*
X21696Y15015D01*
X21692Y15011D01*
Y15007D01*
X21592D02*
X21596D01*
X216Y15011D01*
X21604Y15007D01*
X21608D01*
Y15011D01*
X21604Y15015D01*
X21608Y15019D01*
Y15023D01*
X21604D01*
X216Y15019D01*
X21596Y15023D01*
X21592D01*
Y15019D01*
X21596Y15015D01*
X21592Y15011D01*
Y15007D01*
X21992Y14707D02*
X21996D01*
X22Y14711D01*
X22004Y14707D01*
X22008D01*
Y14711D01*
X22004Y14715D01*
X22008Y14719D01*
Y14723D01*
X22004D01*
X22Y14719D01*
X21996Y14723D01*
X21992D01*
Y14719D01*
X21996Y14715D01*
X21992Y14711D01*
Y14707D01*
X22092D02*
X22096D01*
X221Y14711D01*
X22104Y14707D01*
X22108D01*
Y14711D01*
X22104Y14715D01*
X22108Y14719D01*
Y14723D01*
X22104D01*
X221Y14719D01*
X22096Y14723D01*
X22092D01*
Y14719D01*
X22096Y14715D01*
X22092Y14711D01*
Y14707D01*
X22192D02*
X22196D01*
X222Y14711D01*
X22204Y14707D01*
X22208D01*
Y14711D01*
X22204Y14715D01*
X22208Y14719D01*
Y14723D01*
X22204D01*
X222Y14719D01*
X22196Y14723D01*
X22192D01*
Y14719D01*
X22196Y14715D01*
X22192Y14711D01*
Y14707D01*
X22292D02*
X22296D01*
X223Y14711D01*
X22304Y14707D01*
X22308D01*
Y14711D01*
X22304Y14715D01*
X22308Y14719D01*
Y14723D01*
X22304D01*
X223Y14719D01*
X22296Y14723D01*
X22292D01*
Y14719D01*
X22296Y14715D01*
X22292Y14711D01*
Y14707D01*
Y15007D02*
X22296D01*
X223Y15011D01*
X22304Y15007D01*
X22308D01*
Y15011D01*
X22304Y15015D01*
X22308Y15019D01*
Y15023D01*
X22304D01*
X223Y15019D01*
X22296Y15023D01*
X22292D01*
Y15019D01*
X22296Y15015D01*
X22292Y15011D01*
Y15007D01*
X22192D02*
X22196D01*
X222Y15011D01*
X22204Y15007D01*
X22208D01*
Y15011D01*
X22204Y15015D01*
X22208Y15019D01*
Y15023D01*
X22204D01*
X222Y15019D01*
X22196Y15023D01*
X22192D01*
Y15019D01*
X22196Y15015D01*
X22192Y15011D01*
Y15007D01*
X22092D02*
X22096D01*
X221Y15011D01*
X22104Y15007D01*
X22108D01*
Y15011D01*
X22104Y15015D01*
X22108Y15019D01*
Y15023D01*
X22104D01*
X221Y15019D01*
X22096Y15023D01*
X22092D01*
Y15019D01*
X22096Y15015D01*
X22092Y15011D01*
Y15007D01*
X21992D02*
X21996D01*
X22Y15011D01*
X22004Y15007D01*
X22008D01*
Y15011D01*
X22004Y15015D01*
X22008Y15019D01*
Y15023D01*
X22004D01*
X22Y15019D01*
X21996Y15023D01*
X21992D01*
Y15019D01*
X21996Y15015D01*
X21992Y15011D01*
Y15007D01*
X22392Y14707D02*
X22396D01*
X224Y14711D01*
X22404Y14707D01*
X22408D01*
Y14711D01*
X22404Y14715D01*
X22408Y14719D01*
Y14723D01*
X22404D01*
X224Y14719D01*
X22396Y14723D01*
X22392D01*
Y14719D01*
X22396Y14715D01*
X22392Y14711D01*
Y14707D01*
Y15007D02*
X22396D01*
X224Y15011D01*
X22404Y15007D01*
X22408D01*
Y15011D01*
X22404Y15015D01*
X22408Y15019D01*
Y15023D01*
X22404D01*
X224Y15019D01*
X22396Y15023D01*
X22392D01*
Y15019D01*
X22396Y15015D01*
X22392Y15011D01*
Y15007D01*
X2791Y11667D02*
X27902Y11683D01*
X27918D01*
X2791Y11667D01*
X2761D02*
X27602Y11683D01*
X27618D01*
X2761Y11667D01*
Y12067D02*
X27602Y12083D01*
X27618D01*
X2761Y12067D01*
X2791Y11867D02*
X27902Y11883D01*
X27918D01*
X2791Y11867D01*
X2761D02*
X27602Y11883D01*
X27618D01*
X2761Y11867D01*
Y12267D02*
X27602Y12283D01*
X27618D01*
X2761Y12267D01*
Y12467D02*
X27602Y12483D01*
X27618D01*
X2761Y12467D01*
Y12667D02*
X27602Y12683D01*
X27618D01*
X2761Y12667D01*
Y12867D02*
X27602Y12883D01*
X27618D01*
X2761Y12867D01*
Y13067D02*
X27602Y13083D01*
X27618D01*
X2761Y13067D01*
Y13267D02*
X27614Y13271D01*
X27618D01*
X27614Y13275D01*
X27618Y13279D01*
X27614D01*
X2761Y13283D01*
X27606Y13279D01*
X27602D01*
X27606Y13275D01*
X27602Y13271D01*
X27606D01*
X2761Y13267D01*
Y13467D02*
X27602Y13483D01*
X27618D01*
X2761Y13467D01*
X2791Y12067D02*
X27902Y12083D01*
X27918D01*
X2791Y12067D01*
Y12267D02*
X27902Y12283D01*
X27918D01*
X2791Y12267D01*
Y12467D02*
X27902Y12483D01*
X27918D01*
X2791Y12467D01*
Y12667D02*
X27902Y12683D01*
X27918D01*
X2791Y12667D01*
Y12867D02*
X27902Y12883D01*
X27918D01*
X2791Y12867D01*
Y13067D02*
X27902Y13083D01*
X27918D01*
X2791Y13067D01*
Y13267D02*
X27902Y13283D01*
X27918D01*
X2791Y13267D01*
Y13467D02*
X27902Y13483D01*
X27918D01*
X2791Y13467D01*
X25635Y10982D02*
X25627Y10998D01*
X25643D01*
X25635Y10982D01*
X25435D02*
X25427Y10998D01*
X25443D01*
X25435Y10982D01*
X25235D02*
X25227Y10998D01*
X25243D01*
X25235Y10982D01*
X25035D02*
X25027Y10998D01*
X25043D01*
X25035Y10982D01*
X24835D02*
X24827Y10998D01*
X24843D01*
X24835Y10982D01*
X24635D02*
X24627Y10998D01*
X24643D01*
X24635Y10982D01*
X24435D02*
X24427Y10998D01*
X24443D01*
X24435Y10982D01*
X24235D02*
X24227Y10998D01*
X24243D01*
X24235Y10982D01*
X25635Y11282D02*
X25627Y11298D01*
X25643D01*
X25635Y11282D01*
X25435D02*
X25439Y11286D01*
X25443D01*
X25439Y1129D01*
X25443Y11294D01*
X25439D01*
X25435Y11298D01*
X25431Y11294D01*
X25427D01*
X25431Y1129D01*
X25427Y11286D01*
X25431D01*
X25435Y11282D01*
X25235D02*
X25227Y11298D01*
X25243D01*
X25235Y11282D01*
X25035D02*
X25027Y11298D01*
X25043D01*
X25035Y11282D01*
X24835D02*
X24827Y11298D01*
X24843D01*
X24835Y11282D01*
X24635D02*
X24627Y11298D01*
X24643D01*
X24635Y11282D01*
X24435D02*
X24427Y11298D01*
X24443D01*
X24435Y11282D01*
X24035D02*
X24027Y11298D01*
X24043D01*
X24035Y11282D01*
Y10982D02*
X24027Y10998D01*
X24043D01*
X24035Y10982D01*
X24235Y11282D02*
X24227Y11298D01*
X24243D01*
X24235Y11282D01*
X23835D02*
X23827Y11298D01*
X23843D01*
X23835Y11282D01*
Y10982D02*
X23827Y10998D01*
X23843D01*
X23835Y10982D01*
X2166D02*
X21652Y10998D01*
X21668D01*
X2166Y10982D01*
Y11282D02*
X21652Y11298D01*
X21668D01*
X2166Y11282D01*
X2206D02*
X22052Y11298D01*
X22068D01*
X2206Y11282D01*
X2186Y10982D02*
X21852Y10998D01*
X21868D01*
X2186Y10982D01*
Y11282D02*
X21852Y11298D01*
X21868D01*
X2186Y11282D01*
X2226D02*
X22252Y11298D01*
X22268D01*
X2226Y11282D01*
X2246D02*
X22452Y11298D01*
X22468D01*
X2246Y11282D01*
X2266D02*
X22652Y11298D01*
X22668D01*
X2266Y11282D01*
X2286D02*
X22852Y11298D01*
X22868D01*
X2286Y11282D01*
X2306D02*
X23052Y11298D01*
X23068D01*
X2306Y11282D01*
X2326D02*
X23264Y11286D01*
X23268D01*
X23264Y1129D01*
X23268Y11294D01*
X23264D01*
X2326Y11298D01*
X23256Y11294D01*
X23252D01*
X23256Y1129D01*
X23252Y11286D01*
X23256D01*
X2326Y11282D01*
X2346D02*
X23452Y11298D01*
X23468D01*
X2346Y11282D01*
X2206Y10982D02*
X22052Y10998D01*
X22068D01*
X2206Y10982D01*
X2226D02*
X22252Y10998D01*
X22268D01*
X2226Y10982D01*
X2246D02*
X22452Y10998D01*
X22468D01*
X2246Y10982D01*
X2266D02*
X22652Y10998D01*
X22668D01*
X2266Y10982D01*
X2286D02*
X22852Y10998D01*
X22868D01*
X2286Y10982D01*
X2306D02*
X23052Y10998D01*
X23068D01*
X2306Y10982D01*
X2326D02*
X23252Y10998D01*
X23268D01*
X2326Y10982D01*
X2346D02*
X23452Y10998D01*
X23468D01*
X2346Y10982D01*
X2781D02*
X27802Y10998D01*
X27818D01*
X2781Y10982D01*
X2761D02*
X27602Y10998D01*
X27618D01*
X2761Y10982D01*
X2741D02*
X27402Y10998D01*
X27418D01*
X2741Y10982D01*
X2721D02*
X27202Y10998D01*
X27218D01*
X2721Y10982D01*
X2701D02*
X27002Y10998D01*
X27018D01*
X2701Y10982D01*
X2681D02*
X26802Y10998D01*
X26818D01*
X2681Y10982D01*
X2661D02*
X26602Y10998D01*
X26618D01*
X2661Y10982D01*
X2641D02*
X26402Y10998D01*
X26418D01*
X2641Y10982D01*
X2781Y11282D02*
X27802Y11298D01*
X27818D01*
X2781Y11282D01*
X2761D02*
X27614Y11286D01*
X27618D01*
X27614Y1129D01*
X27618Y11294D01*
X27614D01*
X2761Y11298D01*
X27606Y11294D01*
X27602D01*
X27606Y1129D01*
X27602Y11286D01*
X27606D01*
X2761Y11282D01*
X2741D02*
X27402Y11298D01*
X27418D01*
X2741Y11282D01*
X2721D02*
X27202Y11298D01*
X27218D01*
X2721Y11282D01*
X2701D02*
X27002Y11298D01*
X27018D01*
X2701Y11282D01*
X2681D02*
X26802Y11298D01*
X26818D01*
X2681Y11282D01*
X2661D02*
X26602Y11298D01*
X26618D01*
X2661Y11282D01*
X2621D02*
X26202Y11298D01*
X26218D01*
X2621Y11282D01*
Y10982D02*
X26202Y10998D01*
X26218D01*
X2621Y10982D01*
X2641Y11282D02*
X26402Y11298D01*
X26418D01*
X2641Y11282D01*
X2601D02*
X26002Y11298D01*
X26018D01*
X2601Y11282D01*
Y10982D02*
X26002Y10998D01*
X26018D01*
X2601Y10982D01*
X21817Y12172D02*
X21821Y1218D01*
X21817Y12188D01*
X21825Y12184D01*
X21833Y12188D01*
X21829Y1218D01*
X21833Y12172D01*
X21825Y12176D01*
X21817Y12172D01*
Y11972D02*
X21821Y1198D01*
X21817Y11988D01*
X21825Y11984D01*
X21833Y11988D01*
X21829Y1198D01*
X21833Y11972D01*
X21825Y11976D01*
X21817Y11972D01*
Y11872D02*
X21821Y1188D01*
X21817Y11888D01*
X21825Y11884D01*
X21833Y11888D01*
X21829Y1188D01*
X21833Y11872D01*
X21825Y11876D01*
X21817Y11872D01*
Y11772D02*
X21821Y1178D01*
X21817Y11788D01*
X21825Y11784D01*
X21833Y11788D01*
X21829Y1178D01*
X21833Y11772D01*
X21825Y11776D01*
X21817Y11772D01*
X21617Y12172D02*
X21621Y1218D01*
X21617Y12188D01*
X21625Y12184D01*
X21633Y12188D01*
X21629Y1218D01*
X21633Y12172D01*
X21625Y12176D01*
X21617Y12172D01*
Y11972D02*
X21621Y1198D01*
X21617Y11988D01*
X21625Y11984D01*
X21633Y11988D01*
X21629Y1198D01*
X21633Y11972D01*
X21625Y11976D01*
X21617Y11972D01*
Y11872D02*
X21621Y1188D01*
X21617Y11888D01*
X21625Y11884D01*
X21633Y11888D01*
X21629Y1188D01*
X21633Y11872D01*
X21625Y11876D01*
X21617Y11872D01*
Y11772D02*
X21621Y1178D01*
X21617Y11788D01*
X21625Y11784D01*
X21633Y11788D01*
X21629Y1178D01*
X21633Y11772D01*
X21625Y11776D01*
X21617Y11772D01*
X236651D02*
X236691Y1178D01*
X236651Y11788D01*
X236731Y11784D01*
X236811Y11788D01*
X236771Y1178D01*
X236811Y11772D01*
X236731Y11776D01*
X236651Y11772D01*
Y11872D02*
X236691Y1188D01*
X236651Y11888D01*
X236731Y11884D01*
X236811Y11888D01*
X236771Y1188D01*
X236811Y11872D01*
X236731Y11876D01*
X236651Y11872D01*
Y11972D02*
X236691Y1198D01*
X236651Y11988D01*
X236731Y11984D01*
X236811Y11988D01*
X236771Y1198D01*
X236811Y11972D01*
X236731Y11976D01*
X236651Y11972D01*
Y12172D02*
X236691Y1218D01*
X236651Y12188D01*
X236731Y12184D01*
X236811Y12188D01*
X236771Y1218D01*
X236811Y12172D01*
X236731Y12176D01*
X236651Y12172D01*
X238651Y11772D02*
X238691Y1178D01*
X238651Y11788D01*
X238731Y11784D01*
X238811Y11788D01*
X238771Y1178D01*
X238811Y11772D01*
X238731Y11776D01*
X238651Y11772D01*
Y11872D02*
X238691Y1188D01*
X238651Y11888D01*
X238731Y11884D01*
X238811Y11888D01*
X238771Y1188D01*
X238811Y11872D01*
X238731Y11876D01*
X238651Y11872D01*
Y11972D02*
X238691Y1198D01*
X238651Y11988D01*
X238731Y11984D01*
X238811Y11988D01*
X238771Y1198D01*
X238811Y11972D01*
X238731Y11976D01*
X238651Y11972D01*
Y12172D02*
X238691Y1218D01*
X238651Y12188D01*
X238731Y12184D01*
X238811Y12188D01*
X238771Y1218D01*
X238811Y12172D01*
X238731Y12176D01*
X238651Y12172D01*
X259132D02*
X259172Y1218D01*
X259132Y12188D01*
X259212Y12184D01*
X259292Y12188D01*
X259252Y1218D01*
X259292Y12172D01*
X259212Y12176D01*
X259132Y12172D01*
Y11972D02*
X259172Y1198D01*
X259132Y11988D01*
X259212Y11984D01*
X259292Y11988D01*
X259252Y1198D01*
X259292Y11972D01*
X259212Y11976D01*
X259132Y11972D01*
Y11872D02*
X259172Y1188D01*
X259132Y11888D01*
X259212Y11884D01*
X259292Y11888D01*
X259252Y1188D01*
X259292Y11872D01*
X259212Y11876D01*
X259132Y11872D01*
Y11772D02*
X259172Y1178D01*
X259132Y11788D01*
X259212Y11784D01*
X259292Y11788D01*
X259252Y1178D01*
X259292Y11772D01*
X259212Y11776D01*
X259132Y11772D01*
X257132Y12172D02*
X257172Y1218D01*
X257132Y12188D01*
X257212Y12184D01*
X257292Y12188D01*
X257252Y1218D01*
X257292Y12172D01*
X257212Y12176D01*
X257132Y12172D01*
Y11972D02*
X257172Y1198D01*
X257132Y11988D01*
X257212Y11984D01*
X257292Y11988D01*
X257252Y1198D01*
X257292Y11972D01*
X257212Y11976D01*
X257132Y11972D01*
Y11872D02*
X257172Y1188D01*
X257132Y11888D01*
X257212Y11884D01*
X257292Y11888D01*
X257252Y1188D01*
X257292Y11872D01*
X257212Y11876D01*
X257132Y11872D01*
Y11772D02*
X257172Y1178D01*
X257132Y11788D01*
X257212Y11784D01*
X257292Y11788D01*
X257252Y1178D01*
X257292Y11772D01*
X257212Y11776D01*
X257132Y11772D01*
X220266D02*
X220306Y1178D01*
X220266Y11788D01*
X220346Y11784D01*
X220426Y11788D01*
X220386Y1178D01*
X220426Y11772D01*
X220346Y11776D01*
X220266Y11772D01*
Y11872D02*
X220306Y1188D01*
X220266Y11888D01*
X220346Y11884D01*
X220426Y11888D01*
X220386Y1188D01*
X220426Y11872D01*
X220346Y11876D01*
X220266Y11872D01*
Y11972D02*
X220306Y1198D01*
X220266Y11988D01*
X220346Y11984D01*
X220426Y11988D01*
X220386Y1198D01*
X220426Y11972D01*
X220346Y11976D01*
X220266Y11972D01*
Y12172D02*
X220306Y1218D01*
X220266Y12188D01*
X220346Y12184D01*
X220426Y12188D01*
X220386Y1218D01*
X220426Y12172D01*
X220346Y12176D01*
X220266Y12172D01*
X222266Y11772D02*
X222306Y1178D01*
X222266Y11788D01*
X222346Y11784D01*
X222426Y11788D01*
X222386Y1178D01*
X222426Y11772D01*
X222346Y11776D01*
X222266Y11772D01*
Y11872D02*
X222306Y1188D01*
X222266Y11888D01*
X222346Y11884D01*
X222426Y11888D01*
X222386Y1188D01*
X222426Y11872D01*
X222346Y11876D01*
X222266Y11872D01*
Y11972D02*
X222306Y1198D01*
X222266Y11988D01*
X222346Y11984D01*
X222426Y11988D01*
X222386Y1198D01*
X222426Y11972D01*
X222346Y11976D01*
X222266Y11972D01*
Y12172D02*
X222306Y1218D01*
X222266Y12188D01*
X222346Y12184D01*
X222426Y12188D01*
X222386Y1218D01*
X222426Y12172D01*
X222346Y12176D01*
X222266Y12172D01*
X242747D02*
X242787Y1218D01*
X242747Y12188D01*
X242827Y12184D01*
X242907Y12188D01*
X242867Y1218D01*
X242907Y12172D01*
X242827Y12176D01*
X242747Y12172D01*
Y11972D02*
X242787Y1198D01*
X242747Y11988D01*
X242827Y11984D01*
X242907Y11988D01*
X242867Y1198D01*
X242907Y11972D01*
X242827Y11976D01*
X242747Y11972D01*
Y11872D02*
X242787Y1188D01*
X242747Y11888D01*
X242827Y11884D01*
X242907Y11888D01*
X242867Y1188D01*
X242907Y11872D01*
X242827Y11876D01*
X242747Y11872D01*
Y11772D02*
X242787Y1178D01*
X242747Y11788D01*
X242827Y11784D01*
X242907Y11788D01*
X242867Y1178D01*
X242907Y11772D01*
X242827Y11776D01*
X242747Y11772D01*
X240747Y12172D02*
X240787Y1218D01*
X240747Y12188D01*
X240827Y12184D01*
X240907Y12188D01*
X240867Y1218D01*
X240907Y12172D01*
X240827Y12176D01*
X240747Y12172D01*
Y11972D02*
X240787Y1198D01*
X240747Y11988D01*
X240827Y11984D01*
X240907Y11988D01*
X240867Y1198D01*
X240907Y11972D01*
X240827Y11976D01*
X240747Y11972D01*
Y11872D02*
X240787Y1188D01*
X240747Y11888D01*
X240827Y11884D01*
X240907Y11888D01*
X240867Y1188D01*
X240907Y11872D01*
X240827Y11876D01*
X240747Y11872D01*
Y11772D02*
X240787Y1178D01*
X240747Y11788D01*
X240827Y11784D01*
X240907Y11788D01*
X240867Y1178D01*
X240907Y11772D01*
X240827Y11776D01*
X240747Y11772D01*
X261228D02*
X261268Y1178D01*
X261228Y11788D01*
X261308Y11784D01*
X261388Y11788D01*
X261348Y1178D01*
X261388Y11772D01*
X261308Y11776D01*
X261228Y11772D01*
Y11872D02*
X261268Y1188D01*
X261228Y11888D01*
X261308Y11884D01*
X261388Y11888D01*
X261348Y1188D01*
X261388Y11872D01*
X261308Y11876D01*
X261228Y11872D01*
Y11972D02*
X261268Y1198D01*
X261228Y11988D01*
X261308Y11984D01*
X261388Y11988D01*
X261348Y1198D01*
X261388Y11972D01*
X261308Y11976D01*
X261228Y11972D01*
Y12172D02*
X261268Y1218D01*
X261228Y12188D01*
X261308Y12184D01*
X261388Y12188D01*
X261348Y1218D01*
X261388Y12172D01*
X261308Y12176D01*
X261228Y12172D01*
X263228Y11772D02*
X263268Y1178D01*
X263228Y11788D01*
X263308Y11784D01*
X263388Y11788D01*
X263348Y1178D01*
X263388Y11772D01*
X263308Y11776D01*
X263228Y11772D01*
Y11872D02*
X263268Y1188D01*
X263228Y11888D01*
X263308Y11884D01*
X263388Y11888D01*
X263348Y1188D01*
X263388Y11872D01*
X263308Y11876D01*
X263228Y11872D01*
Y11972D02*
X263268Y1198D01*
X263228Y11988D01*
X263308Y11984D01*
X263388Y11988D01*
X263348Y1198D01*
X263388Y11972D01*
X263308Y11976D01*
X263228Y11972D01*
Y12172D02*
X263268Y1218D01*
X263228Y12188D01*
X263308Y12184D01*
X263388Y12188D01*
X263348Y1218D01*
X263388Y12172D01*
X263308Y12176D01*
X263228Y12172D01*
X226362D02*
X226402Y1218D01*
X226362Y12188D01*
X226442Y12184D01*
X226522Y12188D01*
X226482Y1218D01*
X226522Y12172D01*
X226442Y12176D01*
X226362Y12172D01*
Y11972D02*
X226402Y1198D01*
X226362Y11988D01*
X226442Y11984D01*
X226522Y11988D01*
X226482Y1198D01*
X226522Y11972D01*
X226442Y11976D01*
X226362Y11972D01*
Y11872D02*
X226402Y1188D01*
X226362Y11888D01*
X226442Y11884D01*
X226522Y11888D01*
X226482Y1188D01*
X226522Y11872D01*
X226442Y11876D01*
X226362Y11872D01*
Y11772D02*
X226402Y1178D01*
X226362Y11788D01*
X226442Y11784D01*
X226522Y11788D01*
X226482Y1178D01*
X226522Y11772D01*
X226442Y11776D01*
X226362Y11772D01*
X224362Y12172D02*
X224402Y1218D01*
X224362Y12188D01*
X224442Y12184D01*
X224522Y12188D01*
X224482Y1218D01*
X224522Y12172D01*
X224442Y12176D01*
X224362Y12172D01*
Y11972D02*
X224402Y1198D01*
X224362Y11988D01*
X224442Y11984D01*
X224522Y11988D01*
X224482Y1198D01*
X224522Y11972D01*
X224442Y11976D01*
X224362Y11972D01*
Y11872D02*
X224402Y1188D01*
X224362Y11888D01*
X224442Y11884D01*
X224522Y11888D01*
X224482Y1188D01*
X224522Y11872D01*
X224442Y11876D01*
X224362Y11872D01*
Y11772D02*
X224402Y1178D01*
X224362Y11788D01*
X224442Y11784D01*
X224522Y11788D01*
X224482Y1178D01*
X224522Y11772D01*
X224442Y11776D01*
X224362Y11772D01*
X244843D02*
X244883Y1178D01*
X244843Y11788D01*
X244923Y11784D01*
X245003Y11788D01*
X244963Y1178D01*
X245003Y11772D01*
X244923Y11776D01*
X244843Y11772D01*
Y11872D02*
X244883Y1188D01*
X244843Y11888D01*
X244923Y11884D01*
X245003Y11888D01*
X244963Y1188D01*
X245003Y11872D01*
X244923Y11876D01*
X244843Y11872D01*
Y11972D02*
X244883Y1198D01*
X244843Y11988D01*
X244923Y11984D01*
X245003Y11988D01*
X244963Y1198D01*
X245003Y11972D01*
X244923Y11976D01*
X244843Y11972D01*
Y12172D02*
X244883Y1218D01*
X244843Y12188D01*
X244923Y12184D01*
X245003Y12188D01*
X244963Y1218D01*
X245003Y12172D01*
X244923Y12176D01*
X244843Y12172D01*
X246843Y11772D02*
X246883Y1178D01*
X246843Y11788D01*
X246923Y11784D01*
X247003Y11788D01*
X246963Y1178D01*
X247003Y11772D01*
X246923Y11776D01*
X246843Y11772D01*
Y11872D02*
X246883Y1188D01*
X246843Y11888D01*
X246923Y11884D01*
X247003Y11888D01*
X246963Y1188D01*
X247003Y11872D01*
X246923Y11876D01*
X246843Y11872D01*
Y11972D02*
X246883Y1198D01*
X246843Y11988D01*
X246923Y11984D01*
X247003Y11988D01*
X246963Y1198D01*
X247003Y11972D01*
X246923Y11976D01*
X246843Y11972D01*
Y12172D02*
X246883Y1218D01*
X246843Y12188D01*
X246923Y12184D01*
X247003Y12188D01*
X246963Y1218D01*
X247003Y12172D01*
X246923Y12176D01*
X246843Y12172D01*
X267324D02*
X267364Y1218D01*
X267324Y12188D01*
X267404Y12184D01*
X267484Y12188D01*
X267444Y1218D01*
X267484Y12172D01*
X267404Y12176D01*
X267324Y12172D01*
Y11972D02*
X267364Y1198D01*
X267324Y11988D01*
X267404Y11984D01*
X267484Y11988D01*
X267444Y1198D01*
X267484Y11972D01*
X267404Y11976D01*
X267324Y11972D01*
Y11872D02*
X267364Y1188D01*
X267324Y11888D01*
X267404Y11884D01*
X267484Y11888D01*
X267444Y1188D01*
X267484Y11872D01*
X267404Y11876D01*
X267324Y11872D01*
Y11772D02*
X267364Y1178D01*
X267324Y11788D01*
X267404Y11784D01*
X267484Y11788D01*
X267444Y1178D01*
X267484Y11772D01*
X267404Y11776D01*
X267324Y11772D01*
X265324Y12172D02*
X265364Y1218D01*
X265324Y12188D01*
X265404Y12184D01*
X265484Y12188D01*
X265444Y1218D01*
X265484Y12172D01*
X265404Y12176D01*
X265324Y12172D01*
Y11972D02*
X265364Y1198D01*
X265324Y11988D01*
X265404Y11984D01*
X265484Y11988D01*
X265444Y1198D01*
X265484Y11972D01*
X265404Y11976D01*
X265324Y11972D01*
Y11872D02*
X265364Y1188D01*
X265324Y11888D01*
X265404Y11884D01*
X265484Y11888D01*
X265444Y1188D01*
X265484Y11872D01*
X265404Y11876D01*
X265324Y11872D01*
Y11772D02*
X265364Y1178D01*
X265324Y11788D01*
X265404Y11784D01*
X265484Y11788D01*
X265444Y1178D01*
X265484Y11772D01*
X265404Y11776D01*
X265324Y11772D01*
X228458D02*
X228498Y1178D01*
X228458Y11788D01*
X228538Y11784D01*
X228618Y11788D01*
X228578Y1178D01*
X228618Y11772D01*
X228538Y11776D01*
X228458Y11772D01*
Y11872D02*
X228498Y1188D01*
X228458Y11888D01*
X228538Y11884D01*
X228618Y11888D01*
X228578Y1188D01*
X228618Y11872D01*
X228538Y11876D01*
X228458Y11872D01*
Y11972D02*
X228498Y1198D01*
X228458Y11988D01*
X228538Y11984D01*
X228618Y11988D01*
X228578Y1198D01*
X228618Y11972D01*
X228538Y11976D01*
X228458Y11972D01*
Y12172D02*
X228498Y1218D01*
X228458Y12188D01*
X228538Y12184D01*
X228618Y12188D01*
X228578Y1218D01*
X228618Y12172D01*
X228538Y12176D01*
X228458Y12172D01*
X230458Y11772D02*
X230498Y1178D01*
X230458Y11788D01*
X230538Y11784D01*
X230618Y11788D01*
X230578Y1178D01*
X230618Y11772D01*
X230538Y11776D01*
X230458Y11772D01*
Y11872D02*
X230498Y1188D01*
X230458Y11888D01*
X230538Y11884D01*
X230618Y11888D01*
X230578Y1188D01*
X230618Y11872D01*
X230538Y11876D01*
X230458Y11872D01*
Y11972D02*
X230498Y1198D01*
X230458Y11988D01*
X230538Y11984D01*
X230618Y11988D01*
X230578Y1198D01*
X230618Y11972D01*
X230538Y11976D01*
X230458Y11972D01*
Y12172D02*
X230498Y1218D01*
X230458Y12188D01*
X230538Y12184D01*
X230618Y12188D01*
X230578Y1218D01*
X230618Y12172D01*
X230538Y12176D01*
X230458Y12172D01*
X250939D02*
X250979Y1218D01*
X250939Y12188D01*
X251019Y12184D01*
X251099Y12188D01*
X251059Y1218D01*
X251099Y12172D01*
X251019Y12176D01*
X250939Y12172D01*
Y11972D02*
X250979Y1198D01*
X250939Y11988D01*
X251019Y11984D01*
X251099Y11988D01*
X251059Y1198D01*
X251099Y11972D01*
X251019Y11976D01*
X250939Y11972D01*
Y11872D02*
X250979Y1188D01*
X250939Y11888D01*
X251019Y11884D01*
X251099Y11888D01*
X251059Y1188D01*
X251099Y11872D01*
X251019Y11876D01*
X250939Y11872D01*
Y11772D02*
X250979Y1178D01*
X250939Y11788D01*
X251019Y11784D01*
X251099Y11788D01*
X251059Y1178D01*
X251099Y11772D01*
X251019Y11776D01*
X250939Y11772D01*
X248939Y12172D02*
X248979Y1218D01*
X248939Y12188D01*
X249019Y12184D01*
X249099Y12188D01*
X249059Y1218D01*
X249099Y12172D01*
X249019Y12176D01*
X248939Y12172D01*
Y11972D02*
X248979Y1198D01*
X248939Y11988D01*
X249019Y11984D01*
X249099Y11988D01*
X249059Y1198D01*
X249099Y11972D01*
X249019Y11976D01*
X248939Y11972D01*
Y11872D02*
X248979Y1188D01*
X248939Y11888D01*
X249019Y11884D01*
X249099Y11888D01*
X249059Y1188D01*
X249099Y11872D01*
X249019Y11876D01*
X248939Y11872D01*
Y11772D02*
X248979Y1178D01*
X248939Y11788D01*
X249019Y11784D01*
X249099Y11788D01*
X249059Y1178D01*
X249099Y11772D01*
X249019Y11776D01*
X248939Y11772D01*
X26942D02*
X26946Y1178D01*
X26942Y11788D01*
X2695Y11784D01*
X26958Y11788D01*
X26954Y1178D01*
X26958Y11772D01*
X2695Y11776D01*
X26942Y11772D01*
Y11872D02*
X26946Y1188D01*
X26942Y11888D01*
X2695Y11884D01*
X26958Y11888D01*
X26954Y1188D01*
X26958Y11872D01*
X2695Y11876D01*
X26942Y11872D01*
Y11972D02*
X26946Y1198D01*
X26942Y11988D01*
X2695Y11984D01*
X26958Y11988D01*
X26954Y1198D01*
X26958Y11972D01*
X2695Y11976D01*
X26942Y11972D01*
Y12172D02*
X26946Y1218D01*
X26942Y12188D01*
X2695Y12184D01*
X26958Y12188D01*
X26954Y1218D01*
X26958Y12172D01*
X2695Y12176D01*
X26942Y12172D01*
X27142Y11772D02*
X27146Y1178D01*
X27142Y11788D01*
X2715Y11784D01*
X27158Y11788D01*
X27154Y1178D01*
X27158Y11772D01*
X2715Y11776D01*
X27142Y11772D01*
Y11872D02*
X27146Y1188D01*
X27142Y11888D01*
X2715Y11884D01*
X27158Y11888D01*
X27154Y1188D01*
X27158Y11872D01*
X2715Y11876D01*
X27142Y11872D01*
Y11972D02*
X27146Y1198D01*
X27142Y11988D01*
X2715Y11984D01*
X27158Y11988D01*
X27154Y1198D01*
X27158Y11972D01*
X2715Y11976D01*
X27142Y11972D01*
Y12172D02*
X27146Y1218D01*
X27142Y12188D01*
X2715Y12184D01*
X27158Y12188D01*
X27154Y1218D01*
X27158Y12172D01*
X2715Y12176D01*
X27142Y12172D01*
X234555D02*
X234595Y1218D01*
X234555Y12188D01*
X234635Y12184D01*
X234715Y12188D01*
X234675Y1218D01*
X234715Y12172D01*
X234635Y12176D01*
X234555Y12172D01*
Y11972D02*
X234595Y1198D01*
X234555Y11988D01*
X234635Y11984D01*
X234715Y11988D01*
X234675Y1198D01*
X234715Y11972D01*
X234635Y11976D01*
X234555Y11972D01*
Y11872D02*
X234595Y1188D01*
X234555Y11888D01*
X234635Y11884D01*
X234715Y11888D01*
X234675Y1188D01*
X234715Y11872D01*
X234635Y11876D01*
X234555Y11872D01*
Y11772D02*
X234595Y1178D01*
X234555Y11788D01*
X234635Y11784D01*
X234715Y11788D01*
X234675Y1178D01*
X234715Y11772D01*
X234635Y11776D01*
X234555Y11772D01*
X232555Y12172D02*
X232595Y1218D01*
X232555Y12188D01*
X232635Y12184D01*
X232715Y12188D01*
X232675Y1218D01*
X232715Y12172D01*
X232635Y12176D01*
X232555Y12172D01*
Y11972D02*
X232595Y1198D01*
X232555Y11988D01*
X232635Y11984D01*
X232715Y11988D01*
X232675Y1198D01*
X232715Y11972D01*
X232635Y11976D01*
X232555Y11972D01*
Y11872D02*
X232595Y1188D01*
X232555Y11888D01*
X232635Y11884D01*
X232715Y11888D01*
X232675Y1188D01*
X232715Y11872D01*
X232635Y11876D01*
X232555Y11872D01*
Y11772D02*
X232595Y1178D01*
X232555Y11788D01*
X232635Y11784D01*
X232715Y11788D01*
X232675Y1178D01*
X232715Y11772D01*
X232635Y11776D01*
X232555Y11772D01*
X253035D02*
X253075Y1178D01*
X253035Y11788D01*
X253115Y11784D01*
X253195Y11788D01*
X253155Y1178D01*
X253195Y11772D01*
X253115Y11776D01*
X253035Y11772D01*
Y11872D02*
X253075Y1188D01*
X253035Y11888D01*
X253115Y11884D01*
X253195Y11888D01*
X253155Y1188D01*
X253195Y11872D01*
X253115Y11876D01*
X253035Y11872D01*
Y11972D02*
X253075Y1198D01*
X253035Y11988D01*
X253115Y11984D01*
X253195Y11988D01*
X253155Y1198D01*
X253195Y11972D01*
X253115Y11976D01*
X253035Y11972D01*
Y12172D02*
X253075Y1218D01*
X253035Y12188D01*
X253115Y12184D01*
X253195Y12188D01*
X253155Y1218D01*
X253195Y12172D01*
X253115Y12176D01*
X253035Y12172D01*
X255035Y11772D02*
X255075Y1178D01*
X255035Y11788D01*
X255115Y11784D01*
X255195Y11788D01*
X255155Y1178D01*
X255195Y11772D01*
X255115Y11776D01*
X255035Y11772D01*
Y11872D02*
X255075Y1188D01*
X255035Y11888D01*
X255115Y11884D01*
X255195Y11888D01*
X255155Y1188D01*
X255195Y11872D01*
X255115Y11876D01*
X255035Y11872D01*
Y11972D02*
X255075Y1198D01*
X255035Y11988D01*
X255115Y11984D01*
X255195Y11988D01*
X255155Y1198D01*
X255195Y11972D01*
X255115Y11976D01*
X255035Y11972D01*
Y12172D02*
X255075Y1218D01*
X255035Y12188D01*
X255115Y12184D01*
X255195Y12188D01*
X255155Y1218D01*
X255195Y12172D01*
X255115Y12176D01*
X255035Y12172D01*
X25651Y13516D02*
Y13512D01*
X25659D01*
Y13516D01*
X25663D01*
Y13524D01*
X25659D01*
Y13528D01*
X25651D01*
Y13524D01*
X25647D01*
Y13516D01*
X25651D01*
X27021Y14721D02*
Y14717D01*
X27029D01*
Y14721D01*
X27033D01*
Y14729D01*
X27029D01*
Y14733D01*
X27021D01*
Y14729D01*
X27017D01*
Y14721D01*
X27021D01*
X26821Y12731D02*
Y12727D01*
X26829D01*
Y12731D01*
X26833D01*
Y12739D01*
X26829D01*
Y12743D01*
X26821D01*
Y12739D01*
X26817D01*
Y12731D01*
X26821D01*
X25262Y12545D02*
X2527Y12553D01*
X25278Y12545D01*
X2527Y12537D01*
X25262Y12545D01*
X25012Y14445D02*
X2502Y14453D01*
X25028Y14445D01*
X2502Y14437D01*
X25012Y14445D01*
X22062D02*
X2207Y14453D01*
X22078Y14445D01*
X2207Y14437D01*
X22062Y14445D01*
X22012Y12545D02*
X2202Y12553D01*
X22028Y12545D01*
X2202Y12537D01*
X22012Y12545D01*
X281022Y1074D02*
Y10756D01*
X281182D01*
Y1074D01*
X281022D01*
X281062Y10744D02*
Y10752D01*
X281142D01*
Y10744D01*
X281062D01*
X280432Y108581D02*
Y108741D01*
X280592D01*
Y108581D01*
X280432D01*
X280472Y108621D02*
Y108701D01*
X280552D01*
Y108621D01*
X280472D01*
X279841Y1074D02*
Y10756D01*
X280001D01*
Y1074D01*
X279841D01*
X279881Y10744D02*
Y10752D01*
X279961D01*
Y10744D01*
X279881D01*
X279251Y153463D02*
Y153623D01*
X279411D01*
Y153463D01*
X279251D01*
X279291Y153503D02*
Y153583D01*
X279371D01*
Y153503D01*
X279291D01*
X279251Y136928D02*
Y137088D01*
X279411D01*
Y136928D01*
X279251D01*
X279291Y136968D02*
Y137048D01*
X279371D01*
Y136968D01*
X279291D01*
X27866Y135747D02*
Y135907D01*
X27882D01*
Y135747D01*
X27866D01*
X2787Y135787D02*
Y135867D01*
X27878D01*
Y135787D01*
X2787D01*
X279251Y115668D02*
Y115828D01*
X279411D01*
Y115668D01*
X279251D01*
X279291Y115708D02*
Y115788D01*
X279371D01*
Y115708D01*
X279291D01*
X27866Y114487D02*
Y114647D01*
X27882D01*
Y114487D01*
X27866D01*
X2787Y114527D02*
Y114607D01*
X27878D01*
Y114527D01*
X2787D01*
X279251Y113306D02*
Y113466D01*
X279411D01*
Y113306D01*
X279251D01*
X279291Y113346D02*
Y113426D01*
X279371D01*
Y113346D01*
X279291D01*
X279251Y110944D02*
Y111104D01*
X279411D01*
Y110944D01*
X279251D01*
X279291Y110984D02*
Y111064D01*
X279371D01*
Y110984D01*
X279291D01*
X27866Y1074D02*
Y10756D01*
X27882D01*
Y1074D01*
X27866D01*
X2787Y10744D02*
Y10752D01*
X27878D01*
Y10744D01*
X2787D01*
X27807Y153463D02*
Y153623D01*
X27823D01*
Y153463D01*
X27807D01*
X27811Y153503D02*
Y153583D01*
X27819D01*
Y153503D01*
X27811D01*
X27807Y136928D02*
Y137088D01*
X27823D01*
Y136928D01*
X27807D01*
X27811Y136968D02*
Y137048D01*
X27819D01*
Y136968D01*
X27811D01*
X277479Y135747D02*
Y135907D01*
X277639D01*
Y135747D01*
X277479D01*
X277519Y135787D02*
Y135867D01*
X277599D01*
Y135787D01*
X277519D01*
X27807Y115668D02*
Y115828D01*
X27823D01*
Y115668D01*
X27807D01*
X27811Y115708D02*
Y115788D01*
X27819D01*
Y115708D01*
X27811D01*
X277479Y1074D02*
Y10756D01*
X277639D01*
Y1074D01*
X277479D01*
X277519Y10744D02*
Y10752D01*
X277599D01*
Y10744D01*
X277519D01*
X276888Y153463D02*
Y153623D01*
X277048D01*
Y153463D01*
X276888D01*
X276928Y153503D02*
Y153583D01*
X277008D01*
Y153503D01*
X276928D01*
X276888Y136928D02*
Y137088D01*
X277048D01*
Y136928D01*
X276888D01*
X276928Y136968D02*
Y137048D01*
X277008D01*
Y136968D01*
X276928D01*
X276298Y135747D02*
Y135907D01*
X276458D01*
Y135747D01*
X276298D01*
X276338Y135787D02*
Y135867D01*
X276418D01*
Y135787D01*
X276338D01*
X276298Y1074D02*
Y10756D01*
X276458D01*
Y1074D01*
X276298D01*
X276338Y10744D02*
Y10752D01*
X276418D01*
Y10744D01*
X276338D01*
X275117Y1074D02*
Y10756D01*
X275277D01*
Y1074D01*
X275117D01*
X275157Y10744D02*
Y10752D01*
X275237D01*
Y10744D01*
X275157D01*
X274526Y108581D02*
Y108741D01*
X274686D01*
Y108581D01*
X274526D01*
X274566Y108621D02*
Y108701D01*
X274646D01*
Y108621D01*
X274566D01*
X273936Y1074D02*
Y10756D01*
X274096D01*
Y1074D01*
X273936D01*
X273976Y10744D02*
Y10752D01*
X274056D01*
Y10744D01*
X273976D01*
X273345Y132203D02*
Y132363D01*
X273505D01*
Y132203D01*
X273345D01*
X273385Y132243D02*
Y132323D01*
X273465D01*
Y132243D01*
X273385D01*
X273345Y129841D02*
Y130001D01*
X273505D01*
Y129841D01*
X273345D01*
X273385Y129881D02*
Y129961D01*
X273465D01*
Y129881D01*
X273385D01*
X273345Y108581D02*
Y108741D01*
X273505D01*
Y108581D01*
X273345D01*
X273385Y108621D02*
Y108701D01*
X273465D01*
Y108621D01*
X273385D01*
X272755Y1074D02*
Y10756D01*
X272915D01*
Y1074D01*
X272755D01*
X272795Y10744D02*
Y10752D01*
X272875D01*
Y10744D01*
X272795D01*
X271573Y126298D02*
Y126458D01*
X271733D01*
Y126298D01*
X271573D01*
X271613Y126338D02*
Y126418D01*
X271693D01*
Y126338D01*
X271613D01*
X272164Y125117D02*
Y125277D01*
X272324D01*
Y125117D01*
X272164D01*
X272204Y125157D02*
Y125237D01*
X272284D01*
Y125157D01*
X272204D01*
X271573Y123936D02*
Y124096D01*
X271733D01*
Y123936D01*
X271573D01*
X271613Y123976D02*
Y124056D01*
X271693D01*
Y123976D01*
X271613D01*
X272164Y122755D02*
Y122915D01*
X272324D01*
Y122755D01*
X272164D01*
X272204Y122795D02*
Y122875D01*
X272284D01*
Y122795D01*
X272204D01*
X272164Y108581D02*
Y108741D01*
X272324D01*
Y108581D01*
X272164D01*
X272204Y108621D02*
Y108701D01*
X272284D01*
Y108621D01*
X272204D01*
X271573Y1074D02*
Y10756D01*
X271733D01*
Y1074D01*
X271573D01*
X271613Y10744D02*
Y10752D01*
X271693D01*
Y10744D01*
X271613D01*
X270983Y125117D02*
Y125277D01*
X271143D01*
Y125117D01*
X270983D01*
X271023Y125157D02*
Y125237D01*
X271103D01*
Y125157D01*
X271023D01*
X270392Y121573D02*
Y121734D01*
X270552D01*
Y121573D01*
X270392D01*
X270432Y121614D02*
Y121693D01*
X270512D01*
Y121614D01*
X270432D01*
X270392Y116849D02*
Y117009D01*
X270552D01*
Y116849D01*
X270392D01*
X270432Y116889D02*
Y116969D01*
X270512D01*
Y116889D01*
X270432D01*
X270983Y113306D02*
Y113466D01*
X271143D01*
Y113306D01*
X270983D01*
X271023Y113346D02*
Y113426D01*
X271103D01*
Y113346D01*
X271023D01*
X270983Y110944D02*
Y111104D01*
X271143D01*
Y110944D01*
X270983D01*
X271023Y110984D02*
Y111064D01*
X271103D01*
Y110984D01*
X271023D01*
X270983Y108581D02*
Y108741D01*
X271143D01*
Y108581D01*
X270983D01*
X271023Y108621D02*
Y108701D01*
X271103D01*
Y108621D01*
X271023D01*
X270392Y1074D02*
Y10756D01*
X270552D01*
Y1074D01*
X270392D01*
X270432Y10744D02*
Y10752D01*
X270512D01*
Y10744D01*
X270432D01*
X269211Y157007D02*
Y157167D01*
X269371D01*
Y157007D01*
X269211D01*
X269251Y157047D02*
Y157127D01*
X269331D01*
Y157047D01*
X269251D01*
X269802Y151101D02*
Y151261D01*
X269962D01*
Y151101D01*
X269802D01*
X269842Y151141D02*
Y151221D01*
X269922D01*
Y151141D01*
X269842D01*
X269211Y138109D02*
Y138269D01*
X269371D01*
Y138109D01*
X269211D01*
X269251Y138149D02*
Y138229D01*
X269331D01*
Y138149D01*
X269251D01*
X269211Y131022D02*
Y131182D01*
X269371D01*
Y131022D01*
X269211D01*
X269251Y131062D02*
Y131142D01*
X269331D01*
Y131062D01*
X269251D01*
X269802Y108581D02*
Y108741D01*
X269962D01*
Y108581D01*
X269802D01*
X269842Y108621D02*
Y108701D01*
X269922D01*
Y108621D01*
X269842D01*
X269211Y1074D02*
Y10756D01*
X269371D01*
Y1074D01*
X269211D01*
X269251Y10744D02*
Y10752D01*
X269331D01*
Y10744D01*
X269251D01*
X268621Y151101D02*
Y151261D01*
X268781D01*
Y151101D01*
X268621D01*
X268661Y151141D02*
Y151221D01*
X268741D01*
Y151141D01*
X268661D01*
X268621Y122755D02*
Y122915D01*
X268781D01*
Y122755D01*
X268621D01*
X268661Y122795D02*
Y122875D01*
X268741D01*
Y122795D01*
X268661D01*
X26803Y119211D02*
Y119371D01*
X26819D01*
Y119211D01*
X26803D01*
X26807Y119251D02*
Y119331D01*
X26815D01*
Y119251D01*
X26807D01*
X268621Y108581D02*
Y108741D01*
X268781D01*
Y108581D01*
X268621D01*
X268661Y108621D02*
Y108701D01*
X268741D01*
Y108621D01*
X268661D01*
X26803Y1074D02*
Y10756D01*
X26819D01*
Y1074D01*
X26803D01*
X26807Y10744D02*
Y10752D01*
X26815D01*
Y10744D01*
X26807D01*
X26744Y122755D02*
Y122915D01*
X2676D01*
Y122755D01*
X26744D01*
X26748Y122795D02*
Y122875D01*
X26756D01*
Y122795D01*
X26748D01*
X26744Y108581D02*
Y108741D01*
X2676D01*
Y108581D01*
X26744D01*
X26748Y108621D02*
Y108701D01*
X26756D01*
Y108621D01*
X26748D01*
X266849Y1074D02*
Y10756D01*
X267009D01*
Y1074D01*
X266849D01*
X266889Y10744D02*
Y10752D01*
X266969D01*
Y10744D01*
X266889D01*
X265668Y152282D02*
Y152442D01*
X265828D01*
Y152282D01*
X265668D01*
X265708Y152322D02*
Y152402D01*
X265788D01*
Y152322D01*
X265708D01*
X265668Y140471D02*
Y140631D01*
X265828D01*
Y140471D01*
X265668D01*
X265708Y140511D02*
Y140591D01*
X265788D01*
Y140511D01*
X265708D01*
X266259Y13929D02*
Y13945D01*
X266418D01*
Y13929D01*
X266259D01*
X266299Y13933D02*
Y13941D01*
X266378D01*
Y13933D01*
X266299D01*
X266259Y136928D02*
Y137088D01*
X266418D01*
Y136928D01*
X266259D01*
X266299Y136968D02*
Y137048D01*
X266378D01*
Y136968D01*
X266299D01*
X265668Y133385D02*
Y133545D01*
X265828D01*
Y133385D01*
X265668D01*
X265708Y133425D02*
Y133505D01*
X265788D01*
Y133425D01*
X265708D01*
X266259Y132203D02*
Y132363D01*
X266418D01*
Y132203D01*
X266259D01*
X266299Y132243D02*
Y132323D01*
X266378D01*
Y132243D01*
X266299D01*
X266259Y129841D02*
Y130001D01*
X266418D01*
Y129841D01*
X266259D01*
X266299Y129881D02*
Y129961D01*
X266378D01*
Y129881D01*
X266299D01*
X266259Y108581D02*
Y108741D01*
X266418D01*
Y108581D01*
X266259D01*
X266299Y108621D02*
Y108701D01*
X266378D01*
Y108621D01*
X266299D01*
X265668Y1074D02*
Y10756D01*
X265828D01*
Y1074D01*
X265668D01*
X265708Y10744D02*
Y10752D01*
X265788D01*
Y10744D01*
X265708D01*
X265077Y153463D02*
Y153623D01*
X265237D01*
Y153463D01*
X265077D01*
X265117Y153503D02*
Y153583D01*
X265197D01*
Y153503D01*
X265117D01*
X264487Y140471D02*
Y140631D01*
X264647D01*
Y140471D01*
X264487D01*
X264527Y140511D02*
Y140591D01*
X264607D01*
Y140511D01*
X264527D01*
X265077Y136928D02*
Y137088D01*
X265237D01*
Y136928D01*
X265077D01*
X265117Y136968D02*
Y137048D01*
X265197D01*
Y136968D01*
X265117D01*
X264487Y133385D02*
Y133545D01*
X264647D01*
Y133385D01*
X264487D01*
X264527Y133425D02*
Y133505D01*
X264607D01*
Y133425D01*
X264527D01*
X265077Y129841D02*
Y130001D01*
X265237D01*
Y129841D01*
X265077D01*
X265117Y129881D02*
Y129961D01*
X265197D01*
Y129881D01*
X265117D01*
X265077Y110944D02*
Y111104D01*
X265237D01*
Y110944D01*
X265077D01*
X265117Y110984D02*
Y111064D01*
X265197D01*
Y110984D01*
X265117D01*
X265077Y108581D02*
Y108741D01*
X265237D01*
Y108581D01*
X265077D01*
X265117Y108621D02*
Y108701D01*
X265197D01*
Y108621D01*
X265117D01*
X264487Y1074D02*
Y10756D01*
X264647D01*
Y1074D01*
X264487D01*
X264527Y10744D02*
Y10752D01*
X264607D01*
Y10744D01*
X264527D01*
X263306Y157007D02*
Y157167D01*
X263466D01*
Y157007D01*
X263306D01*
X263346Y157047D02*
Y157127D01*
X263426D01*
Y157047D01*
X263346D01*
X263896Y13929D02*
Y13945D01*
X264056D01*
Y13929D01*
X263896D01*
X263936Y13933D02*
Y13941D01*
X264016D01*
Y13933D01*
X263936D01*
X263896Y136928D02*
Y137088D01*
X264056D01*
Y136928D01*
X263896D01*
X263936Y136968D02*
Y137048D01*
X264016D01*
Y136968D01*
X263936D01*
X263896Y122755D02*
Y122915D01*
X264056D01*
Y122755D01*
X263896D01*
X263936Y122795D02*
Y122875D01*
X264016D01*
Y122795D01*
X263936D01*
X263306Y114487D02*
Y114647D01*
X263466D01*
Y114487D01*
X263306D01*
X263346Y114527D02*
Y114607D01*
X263426D01*
Y114527D01*
X263346D01*
X263896Y108581D02*
Y108741D01*
X264056D01*
Y108581D01*
X263896D01*
X263936Y108621D02*
Y108701D01*
X264016D01*
Y108621D01*
X263936D01*
X263306Y1074D02*
Y10756D01*
X263466D01*
Y1074D01*
X263306D01*
X263346Y10744D02*
Y10752D01*
X263426D01*
Y10744D01*
X263346D01*
X262715Y151101D02*
Y151261D01*
X262875D01*
Y151101D01*
X262715D01*
X262755Y151141D02*
Y151221D01*
X262835D01*
Y151141D01*
X262755D01*
X262125Y147558D02*
Y147718D01*
X262285D01*
Y147558D01*
X262125D01*
X262165Y147598D02*
Y147678D01*
X262245D01*
Y147598D01*
X262165D01*
X262125Y145196D02*
Y145356D01*
X262285D01*
Y145196D01*
X262125D01*
X262165Y145236D02*
Y145316D01*
X262245D01*
Y145236D01*
X262165D01*
X262715Y108581D02*
Y108741D01*
X262875D01*
Y108581D01*
X262715D01*
X262755Y108621D02*
Y108701D01*
X262835D01*
Y108621D01*
X262755D01*
X262125Y1074D02*
Y10756D01*
X262285D01*
Y1074D01*
X262125D01*
X262165Y10744D02*
Y10752D01*
X262245D01*
Y10744D01*
X262165D01*
X260944Y109762D02*
Y109922D01*
X261104D01*
Y109762D01*
X260944D01*
X260984Y109802D02*
Y109882D01*
X261064D01*
Y109802D01*
X260984D01*
X261534Y108581D02*
Y108741D01*
X261694D01*
Y108581D01*
X261534D01*
X261574Y108621D02*
Y108701D01*
X261654D01*
Y108621D01*
X261574D01*
X260944Y1074D02*
Y10756D01*
X261104D01*
Y1074D01*
X260944D01*
X260984Y10744D02*
Y10752D01*
X261064D01*
Y10744D01*
X260984D01*
X260353Y151101D02*
Y151261D01*
X260513D01*
Y151101D01*
X260353D01*
X260393Y151141D02*
Y151221D01*
X260473D01*
Y151141D01*
X260393D01*
X260353Y122755D02*
Y122915D01*
X260513D01*
Y122755D01*
X260353D01*
X260393Y122795D02*
Y122875D01*
X260473D01*
Y122795D01*
X260393D01*
X259762Y119211D02*
Y119371D01*
X259922D01*
Y119211D01*
X259762D01*
X259802Y119251D02*
Y119331D01*
X259882D01*
Y119251D01*
X259802D01*
X260353Y108581D02*
Y108741D01*
X260513D01*
Y108581D01*
X260353D01*
X260393Y108621D02*
Y108701D01*
X260473D01*
Y108621D01*
X260393D01*
X259762Y1074D02*
Y10756D01*
X259922D01*
Y1074D01*
X259762D01*
X259802Y10744D02*
Y10752D01*
X259882D01*
Y10744D01*
X259802D01*
X258581Y142833D02*
Y142993D01*
X258741D01*
Y142833D01*
X258581D01*
X258621Y142873D02*
Y142953D01*
X258701D01*
Y142873D01*
X258621D01*
X258581Y140471D02*
Y140631D01*
X258741D01*
Y140471D01*
X258581D01*
X258621Y140511D02*
Y140591D01*
X258701D01*
Y140511D01*
X258621D01*
X259172Y13929D02*
Y13945D01*
X259332D01*
Y13929D01*
X259172D01*
X259212Y13933D02*
Y13941D01*
X259292D01*
Y13933D01*
X259212D01*
X259172Y136928D02*
Y137088D01*
X259332D01*
Y136928D01*
X259172D01*
X259212Y136968D02*
Y137048D01*
X259292D01*
Y136968D01*
X259212D01*
X258581Y135747D02*
Y135907D01*
X258741D01*
Y135747D01*
X258581D01*
X258621Y135787D02*
Y135867D01*
X258701D01*
Y135787D01*
X258621D01*
X258581Y133385D02*
Y133545D01*
X258741D01*
Y133385D01*
X258581D01*
X258621Y133425D02*
Y133505D01*
X258701D01*
Y133425D01*
X258621D01*
X259172Y132203D02*
Y132363D01*
X259332D01*
Y132203D01*
X259172D01*
X259212Y132243D02*
Y132323D01*
X259292D01*
Y132243D01*
X259212D01*
X259172Y129841D02*
Y130001D01*
X259332D01*
Y129841D01*
X259172D01*
X259212Y129881D02*
Y129961D01*
X259292D01*
Y129881D01*
X259212D01*
X258581Y12866D02*
Y12882D01*
X258741D01*
Y12866D01*
X258581D01*
X258621Y1287D02*
Y12878D01*
X258701D01*
Y1287D01*
X258621D01*
X259172Y122755D02*
Y122915D01*
X259332D01*
Y122755D01*
X259172D01*
X259212Y122795D02*
Y122875D01*
X259292D01*
Y122795D01*
X259212D01*
X259172Y115668D02*
Y115828D01*
X259332D01*
Y115668D01*
X259172D01*
X259212Y115708D02*
Y115788D01*
X259292D01*
Y115708D01*
X259212D01*
X258581Y112125D02*
Y112285D01*
X258741D01*
Y112125D01*
X258581D01*
X258621Y112165D02*
Y112245D01*
X258701D01*
Y112165D01*
X258621D01*
X258581Y109762D02*
Y109922D01*
X258741D01*
Y109762D01*
X258581D01*
X258621Y109802D02*
Y109882D01*
X258701D01*
Y109802D01*
X258621D01*
X259172Y108581D02*
Y108741D01*
X259332D01*
Y108581D01*
X259172D01*
X259212Y108621D02*
Y108701D01*
X259292D01*
Y108621D01*
X259212D01*
X258581Y1074D02*
Y10756D01*
X258741D01*
Y1074D01*
X258581D01*
X258621Y10744D02*
Y10752D01*
X258701D01*
Y10744D01*
X258621D01*
X2574Y145196D02*
Y145356D01*
X25756D01*
Y145196D01*
X2574D01*
X25744Y145236D02*
Y145316D01*
X25752D01*
Y145236D01*
X25744D01*
X257991Y144014D02*
Y144174D01*
X258151D01*
Y144014D01*
X257991D01*
X258031Y144054D02*
Y144134D01*
X258111D01*
Y144054D01*
X258031D01*
X2574Y140471D02*
Y140631D01*
X25756D01*
Y140471D01*
X2574D01*
X25744Y140511D02*
Y140591D01*
X25752D01*
Y140511D01*
X25744D01*
X257991Y136928D02*
Y137088D01*
X258151D01*
Y136928D01*
X257991D01*
X258031Y136968D02*
Y137048D01*
X258111D01*
Y136968D01*
X258031D01*
X2574Y133385D02*
Y133545D01*
X25756D01*
Y133385D01*
X2574D01*
X25744Y133425D02*
Y133505D01*
X25752D01*
Y133425D01*
X25744D01*
X257991Y129841D02*
Y130001D01*
X258151D01*
Y129841D01*
X257991D01*
X258031Y129881D02*
Y129961D01*
X258111D01*
Y129881D01*
X258031D01*
X2574Y114487D02*
Y114647D01*
X25756D01*
Y114487D01*
X2574D01*
X25744Y114527D02*
Y114607D01*
X25752D01*
Y114527D01*
X25744D01*
X2574Y112125D02*
Y112285D01*
X25756D01*
Y112125D01*
X2574D01*
X25744Y112165D02*
Y112245D01*
X25752D01*
Y112165D01*
X25744D01*
X257991Y110944D02*
Y111104D01*
X258151D01*
Y110944D01*
X257991D01*
X258031Y110984D02*
Y111064D01*
X258111D01*
Y110984D01*
X258031D01*
X2574Y109762D02*
Y109922D01*
X25756D01*
Y109762D01*
X2574D01*
X25744Y109802D02*
Y109882D01*
X25752D01*
Y109802D01*
X25744D01*
X257991Y108581D02*
Y108741D01*
X258151D01*
Y108581D01*
X257991D01*
X258031Y108621D02*
Y108701D01*
X258111D01*
Y108621D01*
X258031D01*
X2574Y1074D02*
Y10756D01*
X25756D01*
Y1074D01*
X2574D01*
X25744Y10744D02*
Y10752D01*
X25752D01*
Y10744D01*
X25744D01*
X256219Y145196D02*
Y145356D01*
X256379D01*
Y145196D01*
X256219D01*
X256259Y145236D02*
Y145316D01*
X256339D01*
Y145236D01*
X256259D01*
X25681Y136928D02*
Y137088D01*
X25697D01*
Y136928D01*
X25681D01*
X25685Y136968D02*
Y137048D01*
X25693D01*
Y136968D01*
X25685D01*
X256219Y133385D02*
Y133545D01*
X256379D01*
Y133385D01*
X256219D01*
X256259Y133425D02*
Y133505D01*
X256339D01*
Y133425D01*
X256259D01*
X25681Y129841D02*
Y130001D01*
X25697D01*
Y129841D01*
X25681D01*
X25685Y129881D02*
Y129961D01*
X25693D01*
Y129881D01*
X25685D01*
X25681Y108581D02*
Y108741D01*
X25697D01*
Y108581D01*
X25681D01*
X25685Y108621D02*
Y108701D01*
X25693D01*
Y108621D01*
X25685D01*
X256219Y1074D02*
Y10756D01*
X256379D01*
Y1074D01*
X256219D01*
X256259Y10744D02*
Y10752D01*
X256339D01*
Y10744D01*
X256259D01*
X255038Y157007D02*
Y157167D01*
X255198D01*
Y157007D01*
X255038D01*
X255078Y157047D02*
Y157127D01*
X255158D01*
Y157047D01*
X255078D01*
X255038Y114487D02*
Y114647D01*
X255198D01*
Y114487D01*
X255038D01*
X255078Y114527D02*
Y114607D01*
X255158D01*
Y114527D01*
X255078D01*
X255629Y108581D02*
Y108741D01*
X255789D01*
Y108581D01*
X255629D01*
X255669Y108621D02*
Y108701D01*
X255749D01*
Y108621D01*
X255669D01*
X255038Y1074D02*
Y10756D01*
X255198D01*
Y1074D01*
X255038D01*
X255078Y10744D02*
Y10752D01*
X255158D01*
Y10744D01*
X255078D01*
X253857Y142833D02*
Y142993D01*
X254017D01*
Y142833D01*
X253857D01*
X253897Y142873D02*
Y142953D01*
X253977D01*
Y142873D01*
X253897D01*
X254447Y141652D02*
Y141812D01*
X254607D01*
Y141652D01*
X254447D01*
X254487Y141692D02*
Y141772D01*
X254567D01*
Y141692D01*
X254487D01*
X254447Y108581D02*
Y108741D01*
X254607D01*
Y108581D01*
X254447D01*
X254487Y108621D02*
Y108701D01*
X254567D01*
Y108621D01*
X254487D01*
X253857Y1074D02*
Y10756D01*
X254017D01*
Y1074D01*
X253857D01*
X253897Y10744D02*
Y10752D01*
X253977D01*
Y10744D01*
X253897D01*
X253266Y144014D02*
Y144174D01*
X253426D01*
Y144014D01*
X253266D01*
X253306Y144054D02*
Y144134D01*
X253386D01*
Y144054D01*
X253306D01*
X252676Y12866D02*
Y12882D01*
X252836D01*
Y12866D01*
X252676D01*
X252716Y1287D02*
Y12878D01*
X252796D01*
Y1287D01*
X252716D01*
X253266Y113306D02*
Y113466D01*
X253426D01*
Y113306D01*
X253266D01*
X253306Y113346D02*
Y113426D01*
X253386D01*
Y113346D01*
X253306D01*
X253266Y110944D02*
Y111104D01*
X253426D01*
Y110944D01*
X253266D01*
X253306Y110984D02*
Y111064D01*
X253386D01*
Y110984D01*
X253306D01*
X253266Y108581D02*
Y108741D01*
X253426D01*
Y108581D01*
X253266D01*
X253306Y108621D02*
Y108701D01*
X253386D01*
Y108621D01*
X253306D01*
X252676Y1074D02*
Y10756D01*
X252836D01*
Y1074D01*
X252676D01*
X252716Y10744D02*
Y10752D01*
X252796D01*
Y10744D01*
X252716D01*
X251495Y12866D02*
Y12882D01*
X251655D01*
Y12866D01*
X251495D01*
X251535Y1287D02*
Y12878D01*
X251615D01*
Y1287D01*
X251535D01*
X251495Y114487D02*
Y114647D01*
X251655D01*
Y114487D01*
X251495D01*
X251535Y114527D02*
Y114607D01*
X251615D01*
Y114527D01*
X251535D01*
X252085Y108581D02*
Y108741D01*
X252245D01*
Y108581D01*
X252085D01*
X252125Y108621D02*
Y108701D01*
X252205D01*
Y108621D01*
X252125D01*
X251495Y1074D02*
Y10756D01*
X251655D01*
Y1074D01*
X251495D01*
X251535Y10744D02*
Y10752D01*
X251615D01*
Y10744D01*
X251535D01*
X250314Y157007D02*
Y157167D01*
X250474D01*
Y157007D01*
X250314D01*
X250354Y157047D02*
Y157127D01*
X250434D01*
Y157047D01*
X250354D01*
X250904Y155825D02*
Y155985D01*
X251064D01*
Y155825D01*
X250904D01*
X250944Y155865D02*
Y155945D01*
X251024D01*
Y155865D01*
X250944D01*
X250314Y154644D02*
Y154804D01*
X250474D01*
Y154644D01*
X250314D01*
X250354Y154684D02*
Y154764D01*
X250434D01*
Y154684D01*
X250354D01*
X250904Y129841D02*
Y130001D01*
X251064D01*
Y129841D01*
X250904D01*
X250944Y129881D02*
Y129961D01*
X251024D01*
Y129881D01*
X250944D01*
X250314Y12866D02*
Y12882D01*
X250474D01*
Y12866D01*
X250314D01*
X250354Y1287D02*
Y12878D01*
X250434D01*
Y1287D01*
X250354D01*
X250904Y108581D02*
Y108741D01*
X251064D01*
Y108581D01*
X250904D01*
X250944Y108621D02*
Y108701D01*
X251024D01*
Y108621D01*
X250944D01*
X250314Y1074D02*
Y10756D01*
X250474D01*
Y1074D01*
X250314D01*
X250354Y10744D02*
Y10752D01*
X250434D01*
Y10744D01*
X250354D01*
X249723Y155825D02*
Y155985D01*
X249883D01*
Y155825D01*
X249723D01*
X249763Y155865D02*
Y155945D01*
X249843D01*
Y155865D01*
X249763D01*
X249133Y133385D02*
Y133545D01*
X249293D01*
Y133385D01*
X249133D01*
X249173Y133425D02*
Y133505D01*
X249253D01*
Y133425D01*
X249173D01*
X249133Y131022D02*
Y131182D01*
X249293D01*
Y131022D01*
X249133D01*
X249173Y131062D02*
Y131142D01*
X249253D01*
Y131062D01*
X249173D01*
X249723Y129841D02*
Y130001D01*
X249883D01*
Y129841D01*
X249723D01*
X249763Y129881D02*
Y129961D01*
X249843D01*
Y129881D01*
X249763D01*
X249133Y12866D02*
Y12882D01*
X249293D01*
Y12866D01*
X249133D01*
X249173Y1287D02*
Y12878D01*
X249253D01*
Y1287D01*
X249173D01*
X249723Y127479D02*
Y127639D01*
X249883D01*
Y127479D01*
X249723D01*
X249763Y127519D02*
Y127599D01*
X249843D01*
Y127519D01*
X249763D01*
X249133Y114487D02*
Y114647D01*
X249293D01*
Y114487D01*
X249133D01*
X249173Y114527D02*
Y114607D01*
X249253D01*
Y114527D01*
X249173D01*
X249723Y108581D02*
Y108741D01*
X249883D01*
Y108581D01*
X249723D01*
X249763Y108621D02*
Y108701D01*
X249843D01*
Y108621D01*
X249763D01*
X249133Y1074D02*
Y10756D01*
X249293D01*
Y1074D01*
X249133D01*
X249173Y10744D02*
Y10752D01*
X249253D01*
Y10744D01*
X249173D01*
X247951Y140471D02*
Y140631D01*
X248111D01*
Y140471D01*
X247951D01*
X247991Y140511D02*
Y140591D01*
X248071D01*
Y140511D01*
X247991D01*
X248542Y13929D02*
Y13945D01*
X248702D01*
Y13929D01*
X248542D01*
X248582Y13933D02*
Y13941D01*
X248662D01*
Y13933D01*
X248582D01*
X248542Y134566D02*
Y134726D01*
X248702D01*
Y134566D01*
X248542D01*
X248582Y134606D02*
Y134686D01*
X248662D01*
Y134606D01*
X248582D01*
X248542Y129841D02*
Y130001D01*
X248702D01*
Y129841D01*
X248542D01*
X248582Y129881D02*
Y129961D01*
X248662D01*
Y129881D01*
X248582D01*
X247951Y119211D02*
Y119371D01*
X248111D01*
Y119211D01*
X247951D01*
X247991Y119251D02*
Y119331D01*
X248071D01*
Y119251D01*
X247991D01*
X248542Y108581D02*
Y108741D01*
X248702D01*
Y108581D01*
X248542D01*
X248582Y108621D02*
Y108701D01*
X248662D01*
Y108621D01*
X248582D01*
X247951Y1074D02*
Y10756D01*
X248111D01*
Y1074D01*
X247951D01*
X247991Y10744D02*
Y10752D01*
X248071D01*
Y10744D01*
X247991D01*
X247361Y153463D02*
Y153623D01*
X247521D01*
Y153463D01*
X247361D01*
X247401Y153503D02*
Y153583D01*
X247481D01*
Y153503D01*
X247401D01*
X247361Y113306D02*
Y113466D01*
X247521D01*
Y113306D01*
X247361D01*
X247401Y113346D02*
Y113426D01*
X247481D01*
Y113346D01*
X247401D01*
X247361Y110944D02*
Y111104D01*
X247521D01*
Y110944D01*
X247361D01*
X247401Y110984D02*
Y111064D01*
X247481D01*
Y110984D01*
X247401D01*
X247361Y108581D02*
Y108741D01*
X247521D01*
Y108581D01*
X247361D01*
X247401Y108621D02*
Y108701D01*
X247481D01*
Y108621D01*
X247401D01*
X24677Y1074D02*
Y10756D01*
X24693D01*
Y1074D01*
X24677D01*
X24681Y10744D02*
Y10752D01*
X24689D01*
Y10744D01*
X24681D01*
X245589Y114487D02*
Y114647D01*
X245749D01*
Y114487D01*
X245589D01*
X245629Y114527D02*
Y114607D01*
X245709D01*
Y114527D01*
X245629D01*
X24618Y108581D02*
Y108741D01*
X24634D01*
Y108581D01*
X24618D01*
X24622Y108621D02*
Y108701D01*
X2463D01*
Y108621D01*
X24622D01*
X245589Y1074D02*
Y10756D01*
X245749D01*
Y1074D01*
X245589D01*
X245629Y10744D02*
Y10752D01*
X245709D01*
Y10744D01*
X245629D01*
X244999Y125117D02*
Y125277D01*
X245159D01*
Y125117D01*
X244999D01*
X245039Y125157D02*
Y125237D01*
X245119D01*
Y125157D01*
X245039D01*
X244999Y113306D02*
Y113466D01*
X245159D01*
Y113306D01*
X244999D01*
X245039Y113346D02*
Y113426D01*
X245119D01*
Y113346D01*
X245039D01*
X244999Y108581D02*
Y108741D01*
X245159D01*
Y108581D01*
X244999D01*
X245039Y108621D02*
Y108701D01*
X245119D01*
Y108621D01*
X245039D01*
X244408Y1074D02*
Y10756D01*
X244568D01*
Y1074D01*
X244408D01*
X244448Y10744D02*
Y10752D01*
X244528D01*
Y10744D01*
X244448D01*
X243227Y114487D02*
Y114647D01*
X243387D01*
Y114487D01*
X243227D01*
X243267Y114527D02*
Y114607D01*
X243347D01*
Y114527D01*
X243267D01*
X243227Y112125D02*
Y112285D01*
X243387D01*
Y112125D01*
X243227D01*
X243267Y112165D02*
Y112245D01*
X243347D01*
Y112165D01*
X243267D01*
X243227Y109762D02*
Y109922D01*
X243387D01*
Y109762D01*
X243227D01*
X243267Y109802D02*
Y109882D01*
X243347D01*
Y109802D01*
X243267D01*
X243818Y108581D02*
Y108741D01*
X243978D01*
Y108581D01*
X243818D01*
X243858Y108621D02*
Y108701D01*
X243938D01*
Y108621D01*
X243858D01*
X243227Y1074D02*
Y10756D01*
X243387D01*
Y1074D01*
X243227D01*
X243267Y10744D02*
Y10752D01*
X243347D01*
Y10744D01*
X243267D01*
X242046Y147558D02*
Y147718D01*
X242206D01*
Y147558D01*
X242046D01*
X242086Y147598D02*
Y147678D01*
X242166D01*
Y147598D01*
X242086D01*
X242046Y123936D02*
Y124096D01*
X242206D01*
Y123936D01*
X242046D01*
X242086Y123976D02*
Y124056D01*
X242166D01*
Y123976D01*
X242086D01*
X242636Y108581D02*
Y108741D01*
X242796D01*
Y108581D01*
X242636D01*
X242676Y108621D02*
Y108701D01*
X242756D01*
Y108621D01*
X242676D01*
X242046Y1074D02*
Y10756D01*
X242206D01*
Y1074D01*
X242046D01*
X242086Y10744D02*
Y10752D01*
X242166D01*
Y10744D01*
X242086D01*
X241455Y153463D02*
Y153623D01*
X241615D01*
Y153463D01*
X241455D01*
X241495Y153503D02*
Y153583D01*
X241575D01*
Y153503D01*
X241495D01*
X241455Y113306D02*
Y113466D01*
X241615D01*
Y113306D01*
X241455D01*
X241495Y113346D02*
Y113426D01*
X241575D01*
Y113346D01*
X241495D01*
X241455Y108581D02*
Y108741D01*
X241615D01*
Y108581D01*
X241455D01*
X241495Y108621D02*
Y108701D01*
X241575D01*
Y108621D01*
X241495D01*
X240865Y1074D02*
Y10756D01*
X241025D01*
Y1074D01*
X240865D01*
X240905Y10744D02*
Y10752D01*
X240985D01*
Y10744D01*
X240905D01*
X239684Y126298D02*
Y126458D01*
X239844D01*
Y126298D01*
X239684D01*
X239724Y126338D02*
Y126418D01*
X239804D01*
Y126338D01*
X239724D01*
X240274Y125117D02*
Y125277D01*
X240434D01*
Y125117D01*
X240274D01*
X240314Y125157D02*
Y125237D01*
X240394D01*
Y125157D01*
X240314D01*
X240274Y122755D02*
Y122915D01*
X240434D01*
Y122755D01*
X240274D01*
X240314Y122795D02*
Y122875D01*
X240394D01*
Y122795D01*
X240314D01*
X239684Y119211D02*
Y119371D01*
X239844D01*
Y119211D01*
X239684D01*
X239724Y119251D02*
Y119331D01*
X239804D01*
Y119251D01*
X239724D01*
X240274Y108581D02*
Y108741D01*
X240434D01*
Y108581D01*
X240274D01*
X240314Y108621D02*
Y108701D01*
X240394D01*
Y108621D01*
X240314D01*
X239684Y1074D02*
Y10756D01*
X239844D01*
Y1074D01*
X239684D01*
X239724Y10744D02*
Y10752D01*
X239804D01*
Y10744D01*
X239724D01*
X238503Y133385D02*
Y133545D01*
X238663D01*
Y133385D01*
X238503D01*
X238543Y133425D02*
Y133505D01*
X238623D01*
Y133425D01*
X238543D01*
X239093Y132203D02*
Y132363D01*
X239253D01*
Y132203D01*
X239093D01*
X239133Y132243D02*
Y132323D01*
X239213D01*
Y132243D01*
X239133D01*
X238503Y131022D02*
Y131182D01*
X238663D01*
Y131022D01*
X238503D01*
X238543Y131062D02*
Y131142D01*
X238623D01*
Y131062D01*
X238543D01*
X239093Y129841D02*
Y130001D01*
X239253D01*
Y129841D01*
X239093D01*
X239133Y129881D02*
Y129961D01*
X239213D01*
Y129881D01*
X239133D01*
X238503Y12866D02*
Y12882D01*
X238663D01*
Y12866D01*
X238503D01*
X238543Y1287D02*
Y12878D01*
X238623D01*
Y1287D01*
X238543D01*
X239093Y127479D02*
Y127639D01*
X239253D01*
Y127479D01*
X239093D01*
X239133Y127519D02*
Y127599D01*
X239213D01*
Y127519D01*
X239133D01*
X238503Y126298D02*
Y126458D01*
X238663D01*
Y126298D01*
X238503D01*
X238543Y126338D02*
Y126418D01*
X238623D01*
Y126338D01*
X238543D01*
X239093Y125117D02*
Y125277D01*
X239253D01*
Y125117D01*
X239093D01*
X239133Y125157D02*
Y125237D01*
X239213D01*
Y125157D01*
X239133D01*
X239093Y122755D02*
Y122915D01*
X239253D01*
Y122755D01*
X239093D01*
X239133Y122795D02*
Y122875D01*
X239213D01*
Y122795D01*
X239133D01*
X239093Y113306D02*
Y113466D01*
X239253D01*
Y113306D01*
X239093D01*
X239133Y113346D02*
Y113426D01*
X239213D01*
Y113346D01*
X239133D01*
X239093Y108581D02*
Y108741D01*
X239253D01*
Y108581D01*
X239093D01*
X239133Y108621D02*
Y108701D01*
X239213D01*
Y108621D01*
X239133D01*
X238503Y1074D02*
Y10756D01*
X238663D01*
Y1074D01*
X238503D01*
X238543Y10744D02*
Y10752D01*
X238623D01*
Y10744D01*
X238543D01*
X237321Y147558D02*
Y147718D01*
X237481D01*
Y147558D01*
X237321D01*
X237362Y147598D02*
Y147678D01*
X237442D01*
Y147598D01*
X237362D01*
X237912Y141652D02*
Y141812D01*
X238072D01*
Y141652D01*
X237912D01*
X237952Y141692D02*
Y141772D01*
X238032D01*
Y141692D01*
X237952D01*
X237321Y140471D02*
Y140631D01*
X237481D01*
Y140471D01*
X237321D01*
X237362Y140511D02*
Y140591D01*
X237442D01*
Y140511D01*
X237362D01*
X237321Y114487D02*
Y114647D01*
X237481D01*
Y114487D01*
X237321D01*
X237362Y114527D02*
Y114607D01*
X237442D01*
Y114527D01*
X237362D01*
X237321Y112125D02*
Y112285D01*
X237481D01*
Y112125D01*
X237321D01*
X237362Y112165D02*
Y112245D01*
X237442D01*
Y112165D01*
X237362D01*
X237321Y109762D02*
Y109922D01*
X237481D01*
Y109762D01*
X237321D01*
X237362Y109802D02*
Y109882D01*
X237442D01*
Y109802D01*
X237362D01*
X237912Y108581D02*
Y108741D01*
X238072D01*
Y108581D01*
X237912D01*
X237952Y108621D02*
Y108701D01*
X238032D01*
Y108621D01*
X237952D01*
X237321Y1074D02*
Y10756D01*
X237481D01*
Y1074D01*
X237321D01*
X237362Y10744D02*
Y10752D01*
X237442D01*
Y10744D01*
X237362D01*
X236731Y141652D02*
Y141812D01*
X236891D01*
Y141652D01*
X236731D01*
X236771Y141692D02*
Y141772D01*
X236851D01*
Y141692D01*
X236771D01*
X23614Y114487D02*
Y114647D01*
X2363D01*
Y114487D01*
X23614D01*
X23618Y114527D02*
Y114607D01*
X23626D01*
Y114527D01*
X23618D01*
X236731Y113306D02*
Y113466D01*
X236891D01*
Y113306D01*
X236731D01*
X236771Y113346D02*
Y113426D01*
X236851D01*
Y113346D01*
X236771D01*
X23614Y112125D02*
Y112285D01*
X2363D01*
Y112125D01*
X23614D01*
X23618Y112165D02*
Y112245D01*
X23626D01*
Y112165D01*
X23618D01*
X236731Y110944D02*
Y111104D01*
X236891D01*
Y110944D01*
X236731D01*
X236771Y110984D02*
Y111064D01*
X236851D01*
Y110984D01*
X236771D01*
X23614Y109762D02*
Y109922D01*
X2363D01*
Y109762D01*
X23614D01*
X23618Y109802D02*
Y109882D01*
X23626D01*
Y109802D01*
X23618D01*
X236731Y108581D02*
Y108741D01*
X236891D01*
Y108581D01*
X236731D01*
X236771Y108621D02*
Y108701D01*
X236851D01*
Y108621D01*
X236771D01*
X23614Y1074D02*
Y10756D01*
X2363D01*
Y1074D01*
X23614D01*
X23618Y10744D02*
Y10752D01*
X23626D01*
Y10744D01*
X23618D01*
X23555Y153463D02*
Y153623D01*
X23571D01*
Y153463D01*
X23555D01*
X23559Y153503D02*
Y153583D01*
X23567D01*
Y153503D01*
X23559D01*
X23555Y113306D02*
Y113466D01*
X23571D01*
Y113306D01*
X23555D01*
X23559Y113346D02*
Y113426D01*
X23567D01*
Y113346D01*
X23559D01*
X23555Y110944D02*
Y111104D01*
X23571D01*
Y110944D01*
X23555D01*
X23559Y110984D02*
Y111064D01*
X23567D01*
Y110984D01*
X23559D01*
X23555Y108581D02*
Y108741D01*
X23571D01*
Y108581D01*
X23555D01*
X23559Y108621D02*
Y108701D01*
X23567D01*
Y108621D01*
X23559D01*
X234959Y1074D02*
Y10756D01*
X235119D01*
Y1074D01*
X234959D01*
X234999Y10744D02*
Y10752D01*
X235079D01*
Y10744D01*
X234999D01*
X233778Y147558D02*
Y147718D01*
X233938D01*
Y147558D01*
X233778D01*
X233818Y147598D02*
Y147678D01*
X233898D01*
Y147598D01*
X233818D01*
X233778Y135747D02*
Y135907D01*
X233938D01*
Y135747D01*
X233778D01*
X233818Y135787D02*
Y135867D01*
X233898D01*
Y135787D01*
X233818D01*
X233778Y114487D02*
Y114647D01*
X233938D01*
Y114487D01*
X233778D01*
X233818Y114527D02*
Y114607D01*
X233898D01*
Y114527D01*
X233818D01*
X234369Y108581D02*
Y108741D01*
X234529D01*
Y108581D01*
X234369D01*
X234409Y108621D02*
Y108701D01*
X234489D01*
Y108621D01*
X234409D01*
X233778Y1074D02*
Y10756D01*
X233938D01*
Y1074D01*
X233778D01*
X233818Y10744D02*
Y10752D01*
X233898D01*
Y10744D01*
X233818D01*
X233188Y108581D02*
Y108741D01*
X233348D01*
Y108581D01*
X233188D01*
X233228Y108621D02*
Y108701D01*
X233308D01*
Y108621D01*
X233228D01*
X232597Y1074D02*
Y10756D01*
X232757D01*
Y1074D01*
X232597D01*
X232637Y10744D02*
Y10752D01*
X232717D01*
Y10744D01*
X232637D01*
X231416Y119211D02*
Y119371D01*
X231576D01*
Y119211D01*
X231416D01*
X231456Y119251D02*
Y119331D01*
X231536D01*
Y119251D01*
X231456D01*
X231416Y109762D02*
Y109922D01*
X231576D01*
Y109762D01*
X231416D01*
X231456Y109802D02*
Y109882D01*
X231536D01*
Y109802D01*
X231456D01*
X232007Y108581D02*
Y108741D01*
X232167D01*
Y108581D01*
X232007D01*
X232047Y108621D02*
Y108701D01*
X232127D01*
Y108621D01*
X232047D01*
X231416Y1074D02*
Y10756D01*
X231576D01*
Y1074D01*
X231416D01*
X231456Y10744D02*
Y10752D01*
X231536D01*
Y10744D01*
X231456D01*
X230235Y147558D02*
Y147718D01*
X230395D01*
Y147558D01*
X230235D01*
X230275Y147598D02*
Y147678D01*
X230355D01*
Y147598D01*
X230275D01*
X230235Y114487D02*
Y114647D01*
X230395D01*
Y114487D01*
X230235D01*
X230275Y114527D02*
Y114607D01*
X230355D01*
Y114527D01*
X230275D01*
X230825Y108581D02*
Y108741D01*
X230985D01*
Y108581D01*
X230825D01*
X230865Y108621D02*
Y108701D01*
X230945D01*
Y108621D01*
X230865D01*
X230235Y1074D02*
Y10756D01*
X230395D01*
Y1074D01*
X230235D01*
X230275Y10744D02*
Y10752D01*
X230355D01*
Y10744D01*
X230275D01*
X229054Y147558D02*
Y147718D01*
X229214D01*
Y147558D01*
X229054D01*
X229094Y147598D02*
Y147678D01*
X229174D01*
Y147598D01*
X229094D01*
X229644Y113306D02*
Y113466D01*
X229804D01*
Y113306D01*
X229644D01*
X229684Y113346D02*
Y113426D01*
X229764D01*
Y113346D01*
X229684D01*
X229644Y108581D02*
Y108741D01*
X229804D01*
Y108581D01*
X229644D01*
X229684Y108621D02*
Y108701D01*
X229764D01*
Y108621D01*
X229684D01*
X229054Y1074D02*
Y10756D01*
X229214D01*
Y1074D01*
X229054D01*
X229094Y10744D02*
Y10752D01*
X229174D01*
Y10744D01*
X229094D01*
X227873Y147558D02*
Y147718D01*
X228033D01*
Y147558D01*
X227873D01*
X227913Y147598D02*
Y147678D01*
X227993D01*
Y147598D01*
X227913D01*
X228463Y13929D02*
Y13945D01*
X228623D01*
Y13929D01*
X228463D01*
X228503Y13933D02*
Y13941D01*
X228583D01*
Y13933D01*
X228503D01*
X228463Y134566D02*
Y134726D01*
X228623D01*
Y134566D01*
X228463D01*
X228503Y134606D02*
Y134686D01*
X228583D01*
Y134606D01*
X228503D01*
X227873Y133385D02*
Y133545D01*
X228033D01*
Y133385D01*
X227873D01*
X227913Y133425D02*
Y133505D01*
X227993D01*
Y133425D01*
X227913D01*
X227873Y114487D02*
Y114647D01*
X228033D01*
Y114487D01*
X227873D01*
X227913Y114527D02*
Y114607D01*
X227993D01*
Y114527D01*
X227913D01*
X228463Y108581D02*
Y108741D01*
X228623D01*
Y108581D01*
X228463D01*
X228503Y108621D02*
Y108701D01*
X228583D01*
Y108621D01*
X228503D01*
X227873Y1074D02*
Y10756D01*
X228033D01*
Y1074D01*
X227873D01*
X227913Y10744D02*
Y10752D01*
X227993D01*
Y10744D01*
X227913D01*
X226692Y147558D02*
Y147718D01*
X226852D01*
Y147558D01*
X226692D01*
X226732Y147598D02*
Y147678D01*
X226812D01*
Y147598D01*
X226732D01*
X226692Y145196D02*
Y145356D01*
X226852D01*
Y145196D01*
X226692D01*
X226732Y145236D02*
Y145316D01*
X226812D01*
Y145236D01*
X226732D01*
X227282Y13929D02*
Y13945D01*
X227442D01*
Y13929D01*
X227282D01*
X227322Y13933D02*
Y13941D01*
X227402D01*
Y13933D01*
X227322D01*
X226692Y138109D02*
Y138269D01*
X226852D01*
Y138109D01*
X226692D01*
X226732Y138149D02*
Y138229D01*
X226812D01*
Y138149D01*
X226732D01*
X227282Y134566D02*
Y134726D01*
X227442D01*
Y134566D01*
X227282D01*
X227322Y134606D02*
Y134686D01*
X227402D01*
Y134606D01*
X227322D01*
X227282Y122755D02*
Y122915D01*
X227442D01*
Y122755D01*
X227282D01*
X227322Y122795D02*
Y122875D01*
X227402D01*
Y122795D01*
X227322D01*
X227282Y113306D02*
Y113466D01*
X227442D01*
Y113306D01*
X227282D01*
X227322Y113346D02*
Y113426D01*
X227402D01*
Y113346D01*
X227322D01*
X227282Y108581D02*
Y108741D01*
X227442D01*
Y108581D01*
X227282D01*
X227322Y108621D02*
Y108701D01*
X227402D01*
Y108621D01*
X227322D01*
X226692Y1074D02*
Y10756D01*
X226852D01*
Y1074D01*
X226692D01*
X226732Y10744D02*
Y10752D01*
X226812D01*
Y10744D01*
X226732D01*
X22551Y145196D02*
Y145356D01*
X22567D01*
Y145196D01*
X22551D01*
X22555Y145236D02*
Y145316D01*
X22563D01*
Y145236D01*
X22555D01*
X226101Y13929D02*
Y13945D01*
X226261D01*
Y13929D01*
X226101D01*
X226141Y13933D02*
Y13941D01*
X226221D01*
Y13933D01*
X226141D01*
X22551Y138109D02*
Y138269D01*
X22567D01*
Y138109D01*
X22551D01*
X22555Y138149D02*
Y138229D01*
X22563D01*
Y138149D01*
X22555D01*
X226101Y136928D02*
Y137088D01*
X226261D01*
Y136928D01*
X226101D01*
X226141Y136968D02*
Y137048D01*
X226221D01*
Y136968D01*
X226141D01*
X22551Y112125D02*
Y112285D01*
X22567D01*
Y112125D01*
X22551D01*
X22555Y112165D02*
Y112245D01*
X22563D01*
Y112165D01*
X22555D01*
X22551Y109762D02*
Y109922D01*
X22567D01*
Y109762D01*
X22551D01*
X22555Y109802D02*
Y109882D01*
X22563D01*
Y109802D01*
X22555D01*
X226101Y108581D02*
Y108741D01*
X226261D01*
Y108581D01*
X226101D01*
X226141Y108621D02*
Y108701D01*
X226221D01*
Y108621D01*
X226141D01*
X22551Y1074D02*
Y10756D01*
X22567D01*
Y1074D01*
X22551D01*
X22555Y10744D02*
Y10752D01*
X22563D01*
Y10744D01*
X22555D01*
X224329Y138109D02*
Y138269D01*
X224489D01*
Y138109D01*
X224329D01*
X224369Y138149D02*
Y138229D01*
X224449D01*
Y138149D01*
X224369D01*
X22492Y136928D02*
Y137088D01*
X22508D01*
Y136928D01*
X22492D01*
X22496Y136968D02*
Y137048D01*
X22504D01*
Y136968D01*
X22496D01*
X224329Y135747D02*
Y135907D01*
X224489D01*
Y135747D01*
X224329D01*
X224369Y135787D02*
Y135867D01*
X224449D01*
Y135787D01*
X224369D01*
X22492Y134566D02*
Y134726D01*
X22508D01*
Y134566D01*
X22492D01*
X22496Y134606D02*
Y134686D01*
X22504D01*
Y134606D01*
X22496D01*
X224329Y133385D02*
Y133545D01*
X224489D01*
Y133385D01*
X224329D01*
X224369Y133425D02*
Y133505D01*
X224449D01*
Y133425D01*
X224369D01*
X224329Y131022D02*
Y131182D01*
X224489D01*
Y131022D01*
X224329D01*
X224369Y131062D02*
Y131142D01*
X224449D01*
Y131062D01*
X224369D01*
X224329Y126298D02*
Y126458D01*
X224489D01*
Y126298D01*
X224329D01*
X224369Y126338D02*
Y126418D01*
X224449D01*
Y126338D01*
X224369D01*
X22492Y108581D02*
Y108741D01*
X22508D01*
Y108581D01*
X22492D01*
X22496Y108621D02*
Y108701D01*
X22504D01*
Y108621D01*
X22496D01*
X224329Y1074D02*
Y10756D01*
X224489D01*
Y1074D01*
X224329D01*
X224369Y10744D02*
Y10752D01*
X224449D01*
Y10744D01*
X224369D01*
X223739Y136928D02*
Y137088D01*
X223899D01*
Y136928D01*
X223739D01*
X223779Y136968D02*
Y137048D01*
X223859D01*
Y136968D01*
X223779D01*
X223148Y135747D02*
Y135907D01*
X223308D01*
Y135747D01*
X223148D01*
X223188Y135787D02*
Y135867D01*
X223268D01*
Y135787D01*
X223188D01*
X223739Y134566D02*
Y134726D01*
X223899D01*
Y134566D01*
X223739D01*
X223779Y134606D02*
Y134686D01*
X223859D01*
Y134606D01*
X223779D01*
X223148Y133385D02*
Y133545D01*
X223308D01*
Y133385D01*
X223148D01*
X223188Y133425D02*
Y133505D01*
X223268D01*
Y133425D01*
X223188D01*
X223148Y131022D02*
Y131182D01*
X223308D01*
Y131022D01*
X223148D01*
X223188Y131062D02*
Y131142D01*
X223268D01*
Y131062D01*
X223188D01*
X223739Y125117D02*
Y125277D01*
X223899D01*
Y125117D01*
X223739D01*
X223779Y125157D02*
Y125237D01*
X223859D01*
Y125157D01*
X223779D01*
X223148Y123936D02*
Y124096D01*
X223308D01*
Y123936D01*
X223148D01*
X223188Y123976D02*
Y124056D01*
X223268D01*
Y123976D01*
X223188D01*
X223148Y119211D02*
Y119371D01*
X223308D01*
Y119211D01*
X223148D01*
X223188Y119251D02*
Y119331D01*
X223268D01*
Y119251D01*
X223188D01*
X223739Y113306D02*
Y113466D01*
X223899D01*
Y113306D01*
X223739D01*
X223779Y113346D02*
Y113426D01*
X223859D01*
Y113346D01*
X223779D01*
X223739Y108581D02*
Y108741D01*
X223899D01*
Y108581D01*
X223739D01*
X223779Y108621D02*
Y108701D01*
X223859D01*
Y108621D01*
X223779D01*
X223148Y1074D02*
Y10756D01*
X223308D01*
Y1074D01*
X223148D01*
X223188Y10744D02*
Y10752D01*
X223268D01*
Y10744D01*
X223188D01*
X222558Y136928D02*
Y137088D01*
X222718D01*
Y136928D01*
X222558D01*
X222598Y136968D02*
Y137048D01*
X222678D01*
Y136968D01*
X222598D01*
X222558Y134566D02*
Y134726D01*
X222718D01*
Y134566D01*
X222558D01*
X222598Y134606D02*
Y134686D01*
X222678D01*
Y134606D01*
X222598D01*
X221967Y133385D02*
Y133545D01*
X222127D01*
Y133385D01*
X221967D01*
X222007Y133425D02*
Y133505D01*
X222087D01*
Y133425D01*
X222007D01*
X222558Y132203D02*
Y132363D01*
X222718D01*
Y132203D01*
X222558D01*
X222598Y132243D02*
Y132323D01*
X222678D01*
Y132243D01*
X222598D01*
X221967Y131022D02*
Y131182D01*
X222127D01*
Y131022D01*
X221967D01*
X222007Y131062D02*
Y131142D01*
X222087D01*
Y131062D01*
X222007D01*
X222558Y127479D02*
Y127639D01*
X222718D01*
Y127479D01*
X222558D01*
X222598Y127519D02*
Y127599D01*
X222678D01*
Y127519D01*
X222598D01*
X221967Y114487D02*
Y114647D01*
X222127D01*
Y114487D01*
X221967D01*
X222007Y114527D02*
Y114607D01*
X222087D01*
Y114527D01*
X222007D01*
X222558Y108581D02*
Y108741D01*
X222718D01*
Y108581D01*
X222558D01*
X222598Y108621D02*
Y108701D01*
X222678D01*
Y108621D01*
X222598D01*
X221967Y1074D02*
Y10756D01*
X222127D01*
Y1074D01*
X221967D01*
X222007Y10744D02*
Y10752D01*
X222087D01*
Y10744D01*
X222007D01*
X221377Y148739D02*
Y148899D01*
X221537D01*
Y148739D01*
X221377D01*
X221417Y148779D02*
Y148859D01*
X221497D01*
Y148779D01*
X221417D01*
X220786Y142833D02*
Y142993D01*
X220946D01*
Y142833D01*
X220786D01*
X220826Y142873D02*
Y142953D01*
X220906D01*
Y142873D01*
X220826D01*
X221377Y134566D02*
Y134726D01*
X221537D01*
Y134566D01*
X221377D01*
X221417Y134606D02*
Y134686D01*
X221497D01*
Y134606D01*
X221417D01*
X220786Y133385D02*
Y133545D01*
X220946D01*
Y133385D01*
X220786D01*
X220826Y133425D02*
Y133505D01*
X220906D01*
Y133425D01*
X220826D01*
X221377Y127479D02*
Y127639D01*
X221537D01*
Y127479D01*
X221377D01*
X221417Y127519D02*
Y127599D01*
X221497D01*
Y127519D01*
X221417D01*
X220786Y126298D02*
Y126458D01*
X220946D01*
Y126298D01*
X220786D01*
X220826Y126338D02*
Y126418D01*
X220906D01*
Y126338D01*
X220826D01*
X221377Y113306D02*
Y113466D01*
X221537D01*
Y113306D01*
X221377D01*
X221417Y113346D02*
Y113426D01*
X221497D01*
Y113346D01*
X221417D01*
X221377Y108581D02*
Y108741D01*
X221537D01*
Y108581D01*
X221377D01*
X221417Y108621D02*
Y108701D01*
X221497D01*
Y108621D01*
X221417D01*
X220786Y1074D02*
Y10756D01*
X220946D01*
Y1074D01*
X220786D01*
X220826Y10744D02*
Y10752D01*
X220906D01*
Y10744D01*
X220826D01*
X220196Y148739D02*
Y148899D01*
X220356D01*
Y148739D01*
X220196D01*
X220236Y148779D02*
Y148859D01*
X220316D01*
Y148779D01*
X220236D01*
X219605Y142833D02*
Y142993D01*
X219765D01*
Y142833D01*
X219605D01*
X219645Y142873D02*
Y142953D01*
X219725D01*
Y142873D01*
X219645D01*
X219605Y138109D02*
Y138269D01*
X219765D01*
Y138109D01*
X219605D01*
X219645Y138149D02*
Y138229D01*
X219725D01*
Y138149D01*
X219645D01*
X219605Y12866D02*
Y12882D01*
X219765D01*
Y12866D01*
X219605D01*
X219645Y1287D02*
Y12878D01*
X219725D01*
Y1287D01*
X219645D01*
X220196Y127479D02*
Y127639D01*
X220356D01*
Y127479D01*
X220196D01*
X220236Y127519D02*
Y127599D01*
X220316D01*
Y127519D01*
X220236D01*
X219605Y126298D02*
Y126458D01*
X219765D01*
Y126298D01*
X219605D01*
X219645Y126338D02*
Y126418D01*
X219725D01*
Y126338D01*
X219645D01*
X220196Y115668D02*
Y115828D01*
X220356D01*
Y115668D01*
X220196D01*
X220236Y115708D02*
Y115788D01*
X220316D01*
Y115708D01*
X220236D01*
X219605Y114487D02*
Y114647D01*
X219765D01*
Y114487D01*
X219605D01*
X219645Y114527D02*
Y114607D01*
X219725D01*
Y114527D01*
X219645D01*
X219605Y112125D02*
Y112285D01*
X219765D01*
Y112125D01*
X219605D01*
X219645Y112165D02*
Y112245D01*
X219725D01*
Y112165D01*
X219645D01*
X219605Y109762D02*
Y109922D01*
X219765D01*
Y109762D01*
X219605D01*
X219645Y109802D02*
Y109882D01*
X219725D01*
Y109802D01*
X219645D01*
X220196Y108581D02*
Y108741D01*
X220356D01*
Y108581D01*
X220196D01*
X220236Y108621D02*
Y108701D01*
X220316D01*
Y108621D01*
X220236D01*
X219605Y1074D02*
Y10756D01*
X219765D01*
Y1074D01*
X219605D01*
X219645Y10744D02*
Y10752D01*
X219725D01*
Y10744D01*
X219645D01*
X218424Y157007D02*
Y157167D01*
X218584D01*
Y157007D01*
X218424D01*
X218464Y157047D02*
Y157127D01*
X218544D01*
Y157047D01*
X218464D01*
X219014Y148739D02*
Y148899D01*
X219174D01*
Y148739D01*
X219014D01*
X219054Y148779D02*
Y148859D01*
X219134D01*
Y148779D01*
X219054D01*
X218424Y142833D02*
Y142993D01*
X218584D01*
Y142833D01*
X218424D01*
X218464Y142873D02*
Y142953D01*
X218544D01*
Y142873D01*
X218464D01*
X219014Y141652D02*
Y141812D01*
X219174D01*
Y141652D01*
X219014D01*
X219054Y141692D02*
Y141772D01*
X219134D01*
Y141692D01*
X219054D01*
X219014Y13929D02*
Y13945D01*
X219174D01*
Y13929D01*
X219014D01*
X219054Y13933D02*
Y13941D01*
X219134D01*
Y13933D01*
X219054D01*
X218424Y12866D02*
Y12882D01*
X218584D01*
Y12866D01*
X218424D01*
X218464Y1287D02*
Y12878D01*
X218544D01*
Y1287D01*
X218464D01*
X219014Y127479D02*
Y127639D01*
X219174D01*
Y127479D01*
X219014D01*
X219054Y127519D02*
Y127599D01*
X219134D01*
Y127519D01*
X219054D01*
X218424Y126298D02*
Y126458D01*
X218584D01*
Y126298D01*
X218424D01*
X218464Y126338D02*
Y126418D01*
X218544D01*
Y126338D01*
X218464D01*
X219014Y125117D02*
Y125277D01*
X219174D01*
Y125117D01*
X219014D01*
X219054Y125157D02*
Y125237D01*
X219134D01*
Y125157D01*
X219054D01*
X218424Y123936D02*
Y124096D01*
X218584D01*
Y123936D01*
X218424D01*
X218464Y123976D02*
Y124056D01*
X218544D01*
Y123976D01*
X218464D01*
X219014Y108581D02*
Y108741D01*
X219174D01*
Y108581D01*
X219014D01*
X219054Y108621D02*
Y108701D01*
X219134D01*
Y108621D01*
X219054D01*
X218424Y1074D02*
Y10756D01*
X218584D01*
Y1074D01*
X218424D01*
X218464Y10744D02*
Y10752D01*
X218544D01*
Y10744D01*
X218464D01*
X217243Y157007D02*
Y157167D01*
X217403D01*
Y157007D01*
X217243D01*
X217283Y157047D02*
Y157127D01*
X217363D01*
Y157047D01*
X217283D01*
X217833Y148739D02*
Y148899D01*
X217993D01*
Y148739D01*
X217833D01*
X217873Y148779D02*
Y148859D01*
X217953D01*
Y148779D01*
X217873D01*
X217243Y142833D02*
Y142993D01*
X217403D01*
Y142833D01*
X217243D01*
X217283Y142873D02*
Y142953D01*
X217363D01*
Y142873D01*
X217283D01*
X217833Y141652D02*
Y141812D01*
X217993D01*
Y141652D01*
X217833D01*
X217873Y141692D02*
Y141772D01*
X217953D01*
Y141692D01*
X217873D01*
X217833Y132203D02*
Y132363D01*
X217993D01*
Y132203D01*
X217833D01*
X217873Y132243D02*
Y132323D01*
X217953D01*
Y132243D01*
X217873D01*
X217243Y131022D02*
Y131182D01*
X217403D01*
Y131022D01*
X217243D01*
X217283Y131062D02*
Y131142D01*
X217363D01*
Y131062D01*
X217283D01*
X217833Y129841D02*
Y130001D01*
X217993D01*
Y129841D01*
X217833D01*
X217873Y129881D02*
Y129961D01*
X217953D01*
Y129881D01*
X217873D01*
X217243Y12866D02*
Y12882D01*
X217403D01*
Y12866D01*
X217243D01*
X217283Y1287D02*
Y12878D01*
X217363D01*
Y1287D01*
X217283D01*
X217833Y127479D02*
Y127639D01*
X217993D01*
Y127479D01*
X217833D01*
X217873Y127519D02*
Y127599D01*
X217953D01*
Y127519D01*
X217873D01*
X217243Y126298D02*
Y126458D01*
X217403D01*
Y126298D01*
X217243D01*
X217283Y126338D02*
Y126418D01*
X217363D01*
Y126338D01*
X217283D01*
X217833Y125117D02*
Y125277D01*
X217993D01*
Y125117D01*
X217833D01*
X217873Y125157D02*
Y125237D01*
X217953D01*
Y125157D01*
X217873D01*
X217243Y123936D02*
Y124096D01*
X217403D01*
Y123936D01*
X217243D01*
X217283Y123976D02*
Y124056D01*
X217363D01*
Y123976D01*
X217283D01*
X217833Y108581D02*
Y108741D01*
X217993D01*
Y108581D01*
X217833D01*
X217873Y108621D02*
Y108701D01*
X217953D01*
Y108621D01*
X217873D01*
X217243Y1074D02*
Y10756D01*
X217403D01*
Y1074D01*
X217243D01*
X217283Y10744D02*
Y10752D01*
X217363D01*
Y10744D01*
X217283D01*
X216652Y148739D02*
Y148899D01*
X216812D01*
Y148739D01*
X216652D01*
X216692Y148779D02*
Y148859D01*
X216772D01*
Y148779D01*
X216692D01*
X216652Y144014D02*
Y144174D01*
X216812D01*
Y144014D01*
X216652D01*
X216692Y144054D02*
Y144134D01*
X216772D01*
Y144054D01*
X216692D01*
X216062Y142833D02*
Y142993D01*
X216222D01*
Y142833D01*
X216062D01*
X216102Y142873D02*
Y142953D01*
X216182D01*
Y142873D01*
X216102D01*
X216652Y141652D02*
Y141812D01*
X216812D01*
Y141652D01*
X216652D01*
X216692Y141692D02*
Y141772D01*
X216772D01*
Y141692D01*
X216692D01*
X216652Y127479D02*
Y127639D01*
X216812D01*
Y127479D01*
X216652D01*
X216692Y127519D02*
Y127599D01*
X216772D01*
Y127519D01*
X216692D01*
X216062Y126298D02*
Y126458D01*
X216222D01*
Y126298D01*
X216062D01*
X216102Y126338D02*
Y126418D01*
X216182D01*
Y126338D01*
X216102D01*
X216652Y125117D02*
Y125277D01*
X216812D01*
Y125117D01*
X216652D01*
X216692Y125157D02*
Y125237D01*
X216772D01*
Y125157D01*
X216692D01*
X216062Y123936D02*
Y124096D01*
X216222D01*
Y123936D01*
X216062D01*
X216102Y123976D02*
Y124056D01*
X216182D01*
Y123976D01*
X216102D01*
X216062Y114487D02*
Y114647D01*
X216222D01*
Y114487D01*
X216062D01*
X216102Y114527D02*
Y114607D01*
X216182D01*
Y114527D01*
X216102D01*
X216652Y108581D02*
Y108741D01*
X216812D01*
Y108581D01*
X216652D01*
X216692Y108621D02*
Y108701D01*
X216772D01*
Y108621D01*
X216692D01*
X216062Y1074D02*
Y10756D01*
X216222D01*
Y1074D01*
X216062D01*
X216102Y10744D02*
Y10752D01*
X216182D01*
Y10744D01*
X216102D01*
X215471Y151101D02*
Y151261D01*
X215631D01*
Y151101D01*
X215471D01*
X215511Y151141D02*
Y151221D01*
X215591D01*
Y151141D01*
X215511D01*
X215471Y148739D02*
Y148899D01*
X215631D01*
Y148739D01*
X215471D01*
X215511Y148779D02*
Y148859D01*
X215591D01*
Y148779D01*
X215511D01*
X214881Y133385D02*
Y133545D01*
X215041D01*
Y133385D01*
X214881D01*
X214921Y133425D02*
Y133505D01*
X215001D01*
Y133425D01*
X214921D01*
X215471Y127479D02*
Y127639D01*
X215631D01*
Y127479D01*
X215471D01*
X215511Y127519D02*
Y127599D01*
X215591D01*
Y127519D01*
X215511D01*
X214881Y126298D02*
Y126458D01*
X215041D01*
Y126298D01*
X214881D01*
X214921Y126338D02*
Y126418D01*
X215001D01*
Y126338D01*
X214921D01*
X215471Y125117D02*
Y125277D01*
X215631D01*
Y125117D01*
X215471D01*
X215511Y125157D02*
Y125237D01*
X215591D01*
Y125157D01*
X215511D01*
X214881Y123936D02*
Y124096D01*
X215041D01*
Y123936D01*
X214881D01*
X214921Y123976D02*
Y124056D01*
X215001D01*
Y123976D01*
X214921D01*
X215471Y122755D02*
Y122915D01*
X215631D01*
Y122755D01*
X215471D01*
X215511Y122795D02*
Y122875D01*
X215591D01*
Y122795D01*
X215511D01*
X214881Y114487D02*
Y114647D01*
X215041D01*
Y114487D01*
X214881D01*
X214921Y114527D02*
Y114607D01*
X215001D01*
Y114527D01*
X214921D01*
X215471Y113306D02*
Y113466D01*
X215631D01*
Y113306D01*
X215471D01*
X215511Y113346D02*
Y113426D01*
X215591D01*
Y113346D01*
X215511D01*
X214881Y112125D02*
Y112285D01*
X215041D01*
Y112125D01*
X214881D01*
X214921Y112165D02*
Y112245D01*
X215001D01*
Y112165D01*
X214921D01*
X215471Y110944D02*
Y111104D01*
X215631D01*
Y110944D01*
X215471D01*
X215511Y110984D02*
Y111064D01*
X215591D01*
Y110984D01*
X215511D01*
X214881Y109762D02*
Y109922D01*
X215041D01*
Y109762D01*
X214881D01*
X214921Y109802D02*
Y109882D01*
X215001D01*
Y109802D01*
X214921D01*
X215471Y108581D02*
Y108741D01*
X215631D01*
Y108581D01*
X215471D01*
X215511Y108621D02*
Y108701D01*
X215591D01*
Y108621D01*
X215511D01*
X214881Y1074D02*
Y10756D01*
X215041D01*
Y1074D01*
X214881D01*
X214921Y10744D02*
Y10752D01*
X215001D01*
Y10744D01*
X214921D01*
X213699Y114487D02*
Y114647D01*
X213859D01*
Y114487D01*
X213699D01*
X213739Y114527D02*
Y114607D01*
X213819D01*
Y114527D01*
X213739D01*
X21429Y113306D02*
Y113466D01*
X21445D01*
Y113306D01*
X21429D01*
X21433Y113346D02*
Y113426D01*
X21441D01*
Y113346D01*
X21433D01*
X213699Y112125D02*
Y112285D01*
X213859D01*
Y112125D01*
X213699D01*
X213739Y112165D02*
Y112245D01*
X213819D01*
Y112165D01*
X213739D01*
X21429Y110944D02*
Y111104D01*
X21445D01*
Y110944D01*
X21429D01*
X21433Y110984D02*
Y111064D01*
X21441D01*
Y110984D01*
X21433D01*
X26056Y13081D02*
Y13077D01*
X26064D01*
Y13081D01*
X26068D01*
Y13089D01*
X26064D01*
Y13093D01*
X26056D01*
Y13089D01*
X26052D01*
Y13081D01*
X26056D01*
X23416Y12841D02*
Y12837D01*
X23424D01*
Y12841D01*
X23428D01*
Y12849D01*
X23424D01*
Y12853D01*
X23416D01*
Y12849D01*
X23412D01*
Y12841D01*
X23416D01*
X224103Y144387D02*
Y144547D01*
X224263D01*
Y144387D01*
X224103D01*
X224143Y144427D02*
Y144507D01*
X224223D01*
Y144427D01*
X224143D01*
X228569Y14337D02*
Y14353D01*
X228729D01*
Y14337D01*
X228569D01*
X228609Y14341D02*
Y14349D01*
X228689D01*
Y14341D01*
X228609D01*
X222844Y141145D02*
Y141305D01*
X223004D01*
Y141145D01*
X222844D01*
X222884Y141185D02*
Y141265D01*
X222964D01*
Y141185D01*
X222884D01*
X214619Y11977D02*
Y11993D01*
X214779D01*
Y11977D01*
X214619D01*
X214659Y11981D02*
Y11989D01*
X214739D01*
Y11981D01*
X214659D01*
X274719Y14172D02*
Y14188D01*
X274879D01*
Y14172D01*
X274719D01*
X274759Y14176D02*
Y14184D01*
X274839D01*
Y14176D01*
X274759D01*
X27472Y143019D02*
Y143179D01*
X27488D01*
Y143019D01*
X27472D01*
X27476Y143059D02*
Y143139D01*
X27484D01*
Y143059D01*
X27476D01*
X220019Y14032D02*
Y14048D01*
X220179D01*
Y14032D01*
X220019D01*
X220059Y14036D02*
Y14044D01*
X220139D01*
Y14036D01*
X220059D01*
X22796Y14226D02*
Y14222D01*
X22804D01*
Y14226D01*
X22808D01*
Y14234D01*
X22804D01*
Y14238D01*
X22796D01*
Y14234D01*
X22792D01*
Y14226D01*
X22796D01*
X227109D02*
Y14222D01*
X227189D01*
Y14226D01*
X227229D01*
Y14234D01*
X227189D01*
Y14238D01*
X227109D01*
Y14234D01*
X227069D01*
Y14226D01*
X227109D01*
X23257Y14337D02*
Y14353D01*
X23273D01*
Y14337D01*
X23257D01*
X23261Y14341D02*
Y14349D01*
X23269D01*
Y14341D01*
X23261D01*
X220869Y14117D02*
Y14133D01*
X221029D01*
Y14117D01*
X220869D01*
X220909Y14121D02*
Y14129D01*
X220989D01*
Y14121D01*
X220909D01*
X22412Y14337D02*
Y14353D01*
X22428D01*
Y14337D01*
X22412D01*
X22416Y14341D02*
Y14349D01*
X22424D01*
Y14341D01*
X22416D01*
X22711Y14836D02*
Y14832D01*
X22719D01*
Y14836D01*
X22723D01*
Y14844D01*
X22719D01*
Y14848D01*
X22711D01*
Y14844D01*
X22707D01*
Y14836D01*
X22711D01*
Y14969D02*
Y14965D01*
X22719D01*
Y14969D01*
X22723D01*
Y14977D01*
X22719D01*
Y14981D01*
X22711D01*
Y14977D01*
X22707D01*
Y14969D01*
X22711D01*
X22771D02*
Y14965D01*
X22779D01*
Y14969D01*
X22783D01*
Y14977D01*
X22779D01*
Y14981D01*
X22771D01*
Y14977D01*
X22767D01*
Y14969D01*
X22771D01*
X228315Y149685D02*
Y149645D01*
X228395D01*
Y149685D01*
X228435D01*
Y149765D01*
X228395D01*
Y149805D01*
X228315D01*
Y149765D01*
X228275D01*
Y149685D01*
X228315D01*
Y14836D02*
Y14832D01*
X228395D01*
Y14836D01*
X228435D01*
Y14844D01*
X228395D01*
Y14848D01*
X228315D01*
Y14844D01*
X228275D01*
Y14836D01*
X228315D01*
X21462Y12177D02*
Y12193D01*
X21478D01*
Y12177D01*
X21462D01*
X21466Y12181D02*
Y12189D01*
X21474D01*
Y12181D01*
X21466D01*
X246632Y140282D02*
Y140242D01*
X246712D01*
Y140282D01*
X246752D01*
Y140362D01*
X246712D01*
Y140402D01*
X246632D01*
Y140362D01*
X246592D01*
Y140282D01*
X246632D01*
X22891Y14226D02*
Y14222D01*
X22899D01*
Y14226D01*
X22903D01*
Y14234D01*
X22899D01*
Y14238D01*
X22891D01*
Y14234D01*
X22887D01*
Y14226D01*
X22891D01*
X23351Y14181D02*
Y14177D01*
X23359D01*
Y14181D01*
X23363D01*
Y14189D01*
X23359D01*
Y14193D01*
X23351D01*
Y14189D01*
X23347D01*
Y14181D01*
X23351D01*
X246066Y14076D02*
Y14072D01*
X246146D01*
Y14076D01*
X246186D01*
Y14084D01*
X246146D01*
Y14088D01*
X246066D01*
Y14084D01*
X246026D01*
Y14076D01*
X246066D01*
X26421Y12806D02*
Y12802D01*
X26429D01*
Y12806D01*
X26433D01*
Y12814D01*
X26429D01*
Y12818D01*
X26421D01*
Y12814D01*
X26417D01*
Y12806D01*
X26421D01*
X23311Y12841D02*
Y12837D01*
X23319D01*
Y12841D01*
X23323D01*
Y12849D01*
X23319D01*
Y12853D01*
X23311D01*
Y12849D01*
X23307D01*
Y12841D01*
X23311D01*
X23306Y141368D02*
Y141328D01*
X23314D01*
Y141368D01*
X23318D01*
Y141448D01*
X23314D01*
Y141488D01*
X23306D01*
Y141448D01*
X23302D01*
Y141368D01*
X23306D01*
X23396Y14141D02*
Y14137D01*
X23404D01*
Y14141D01*
X23408D01*
Y14149D01*
X23404D01*
Y14153D01*
X23396D01*
Y14149D01*
X23392D01*
Y14141D01*
X23396D01*
X264228Y13516D02*
Y13512D01*
X264308D01*
Y13516D01*
X264348D01*
Y13524D01*
X264308D01*
Y13528D01*
X264228D01*
Y13524D01*
X264188D01*
Y13516D01*
X264228D01*
X264217Y131599D02*
Y131559D01*
X264297D01*
Y131599D01*
X264337D01*
Y131679D01*
X264297D01*
Y131719D01*
X264217D01*
Y131679D01*
X264177D01*
Y131599D01*
X264217D01*
X26421Y142253D02*
Y142213D01*
X26429D01*
Y142253D01*
X26433D01*
Y142333D01*
X26429D01*
Y142373D01*
X26421D01*
Y142333D01*
X26417D01*
Y142253D01*
X26421D01*
Y13871D02*
Y13867D01*
X26429D01*
Y13871D01*
X26433D01*
Y13879D01*
X26429D01*
Y13883D01*
X26421D01*
Y13879D01*
X26417D01*
Y13871D01*
X26421D01*
X26226Y13001D02*
Y12997D01*
X26234D01*
Y13001D01*
X26238D01*
Y13009D01*
X26234D01*
Y13013D01*
X26226D01*
Y13009D01*
X26222D01*
Y13001D01*
X26226D01*
X26056Y127385D02*
Y127345D01*
X26064D01*
Y127385D01*
X26068D01*
Y127465D01*
X26064D01*
Y127505D01*
X26056D01*
Y127465D01*
X26052D01*
Y127385D01*
X26056D01*
X24446Y127261D02*
Y127221D01*
X24454D01*
Y127261D01*
X24458D01*
Y127341D01*
X24454D01*
Y127381D01*
X24446D01*
Y127341D01*
X24442D01*
Y127261D01*
X24446D01*
X26226Y12751D02*
Y12747D01*
X26234D01*
Y12751D01*
X26238D01*
Y12759D01*
X26234D01*
Y12763D01*
X26226D01*
Y12759D01*
X26222D01*
Y12751D01*
X26226D01*
X23471Y12816D02*
Y12812D01*
X23479D01*
Y12816D01*
X23483D01*
Y12824D01*
X23479D01*
Y12828D01*
X23471D01*
Y12824D01*
X23467D01*
Y12816D01*
X23471D01*
X233609Y128111D02*
Y128071D01*
X233689D01*
Y128111D01*
X233729D01*
Y128191D01*
X233689D01*
Y128231D01*
X233609D01*
Y128191D01*
X233569D01*
Y128111D01*
X233609D01*
X26826Y14151D02*
Y14147D01*
X26834D01*
Y14151D01*
X26838D01*
Y14159D01*
X26834D01*
Y14163D01*
X26826D01*
Y14159D01*
X26822D01*
Y14151D01*
X26826D01*
X24811Y13206D02*
Y13202D01*
X24819D01*
Y13206D01*
X24823D01*
Y13214D01*
X24819D01*
Y13218D01*
X24811D01*
Y13214D01*
X24807D01*
Y13206D01*
X24811D01*
Y13101D02*
Y13097D01*
X24819D01*
Y13101D01*
X24823D01*
Y13109D01*
X24819D01*
Y13113D01*
X24811D01*
Y13109D01*
X24807D01*
Y13101D01*
X24811D01*
X24406Y12781D02*
Y12777D01*
X24414D01*
Y12781D01*
X24418D01*
Y12789D01*
X24414D01*
Y12793D01*
X24406D01*
Y12789D01*
X24402D01*
Y12781D01*
X24406D01*
Y12671D02*
Y12667D01*
X24414D01*
Y12671D01*
X24418D01*
Y12679D01*
X24414D01*
Y12683D01*
X24406D01*
Y12679D01*
X24402D01*
Y12671D01*
X24406D01*
X24171D02*
Y12667D01*
X24179D01*
Y12671D01*
X24183D01*
Y12679D01*
X24179D01*
Y12683D01*
X24171D01*
Y12679D01*
X24167D01*
Y12671D01*
X24171D01*
X24226Y12726D02*
Y12722D01*
X24234D01*
Y12726D01*
X24238D01*
Y12734D01*
X24234D01*
Y12738D01*
X24226D01*
Y12734D01*
X24222D01*
Y12726D01*
X24226D01*
X241767Y12781D02*
Y12777D01*
X241847D01*
Y12781D01*
X241887D01*
Y12789D01*
X241847D01*
Y12793D01*
X241767D01*
Y12789D01*
X241727D01*
Y12781D01*
X241767D01*
X24226Y12836D02*
Y12832D01*
X24234D01*
Y12836D01*
X24238D01*
Y12844D01*
X24234D01*
Y12848D01*
X24226D01*
Y12844D01*
X24222D01*
Y12836D01*
X24226D01*
X24446D02*
Y12832D01*
X24454D01*
Y12836D01*
X24458D01*
Y12844D01*
X24454D01*
Y12848D01*
X24446D01*
Y12844D01*
X24442D01*
Y12836D01*
X24446D01*
X26746Y14826D02*
Y14822D01*
X26754D01*
Y14826D01*
X26758D01*
Y14834D01*
X26754D01*
Y14838D01*
X26746D01*
Y14834D01*
X26742D01*
Y14826D01*
X26746D01*
X26326Y14831D02*
Y14827D01*
X26334D01*
Y14831D01*
X26338D01*
Y14839D01*
X26334D01*
Y14843D01*
X26326D01*
Y14839D01*
X26322D01*
Y14831D01*
X26326D01*
X25911Y14836D02*
Y14832D01*
X25919D01*
Y14836D01*
X25923D01*
Y14844D01*
X25919D01*
Y14848D01*
X25911D01*
Y14844D01*
X25907D01*
Y14836D01*
X25911D01*
X23426D02*
Y14832D01*
X23434D01*
Y14836D01*
X23438D01*
Y14844D01*
X23434D01*
Y14848D01*
X23426D01*
Y14844D01*
X23422D01*
Y14836D01*
X23426D01*
X25496Y14831D02*
Y14827D01*
X25504D01*
Y14831D01*
X25508D01*
Y14839D01*
X25504D01*
Y14843D01*
X25496D01*
Y14839D01*
X25492D01*
Y14831D01*
X25496D01*
X23836D02*
Y14827D01*
X23844D01*
Y14831D01*
X23848D01*
Y14839D01*
X23844D01*
Y14843D01*
X23836D01*
Y14839D01*
X23832D01*
Y14831D01*
X23836D01*
X24251D02*
Y14827D01*
X24259D01*
Y14831D01*
X24263D01*
Y14839D01*
X24259D01*
Y14843D01*
X24251D01*
Y14839D01*
X24247D01*
Y14831D01*
X24251D01*
X24671D02*
Y14827D01*
X24679D01*
Y14831D01*
X24683D01*
Y14839D01*
X24679D01*
Y14843D01*
X24671D01*
Y14839D01*
X24667D01*
Y14831D01*
X24671D01*
X25081D02*
Y14827D01*
X25089D01*
Y14831D01*
X25093D01*
Y14839D01*
X25089D01*
Y14843D01*
X25081D01*
Y14839D01*
X25077D01*
Y14831D01*
X25081D01*
X247742Y13151D02*
Y13147D01*
X247822D01*
Y13151D01*
X247862D01*
Y13159D01*
X247822D01*
Y13163D01*
X247742D01*
Y13159D01*
X247702D01*
Y13151D01*
X247742D01*
X26826Y13086D02*
Y13082D01*
X26834D01*
Y13086D01*
X26838D01*
Y13094D01*
X26834D01*
Y13098D01*
X26826D01*
Y13094D01*
X26822D01*
Y13086D01*
X26826D01*
X25651Y13871D02*
Y13867D01*
X25659D01*
Y13871D01*
X25663D01*
Y13879D01*
X25659D01*
Y13883D01*
X25651D01*
Y13879D01*
X25647D01*
Y13871D01*
X25651D01*
Y142267D02*
Y142227D01*
X25659D01*
Y142267D01*
X25663D01*
Y142347D01*
X25659D01*
Y142387D01*
X25651D01*
Y142347D01*
X25647D01*
Y142267D01*
X25651D01*
Y12806D02*
Y12802D01*
X25659D01*
Y12806D01*
X25663D01*
Y12814D01*
X25659D01*
Y12818D01*
X25651D01*
Y12814D01*
X25647D01*
Y12806D01*
X25651D01*
X247742Y13266D02*
Y13262D01*
X247822D01*
Y13266D01*
X247862D01*
Y13274D01*
X247822D01*
Y13278D01*
X247742D01*
Y13274D01*
X247702D01*
Y13266D01*
X247742D01*
X22771Y14836D02*
Y14832D01*
X22779D01*
Y14836D01*
X22783D01*
Y14844D01*
X22779D01*
Y14848D01*
X22771D01*
Y14844D01*
X22767D01*
Y14836D01*
X22771D01*
X245423Y140343D02*
Y140302D01*
X245503D01*
Y140343D01*
X245543D01*
Y140422D01*
X245503D01*
Y140463D01*
X245423D01*
Y140422D01*
X245383D01*
Y140343D01*
X245423D01*
X25651Y13161D02*
Y13157D01*
X25659D01*
Y13161D01*
X25663D01*
Y13169D01*
X25659D01*
Y13173D01*
X25651D01*
Y13169D01*
X25647D01*
Y13161D01*
X25651D01*
X26056Y13791D02*
Y13787D01*
X26064D01*
Y13791D01*
X26068D01*
Y13799D01*
X26064D01*
Y13803D01*
X26056D01*
Y13799D01*
X26052D01*
Y13791D01*
X26056D01*
Y13441D02*
Y13437D01*
X26064D01*
Y13441D01*
X26068D01*
Y13449D01*
X26064D01*
Y13453D01*
X26056D01*
Y13449D01*
X26052D01*
Y13441D01*
X26056D01*
Y14146D02*
Y14142D01*
X26064D01*
Y14146D01*
X26068D01*
Y14154D01*
X26064D01*
Y14158D01*
X26056D01*
Y14154D01*
X26052D01*
Y14146D01*
X26056D01*
X26226Y128175D02*
Y128135D01*
X26234D01*
Y128175D01*
X26238D01*
Y128255D01*
X26234D01*
Y128295D01*
X26226D01*
Y128255D01*
X26222D01*
Y128175D01*
X26226D01*
Y12881D02*
Y12877D01*
X26234D01*
Y12881D01*
X26238D01*
Y12889D01*
X26234D01*
Y12893D01*
X26226D01*
Y12889D01*
X26222D01*
Y12881D01*
X26226D01*
Y129405D02*
Y129365D01*
X26234D01*
Y129405D01*
X26238D01*
Y129485D01*
X26234D01*
Y129525D01*
X26226D01*
Y129485D01*
X26222D01*
Y129405D01*
X26226D01*
X26826Y13441D02*
Y13437D01*
X26834D01*
Y13441D01*
X26838D01*
Y13449D01*
X26834D01*
Y13453D01*
X26826D01*
Y13449D01*
X26822D01*
Y13441D01*
X26826D01*
D85*
X21403Y15811D02*
G03*
X21403Y15811I-00008J0D01*
G01*
X27355Y15812D02*
G03*
X27355Y15812I-00008J0D01*
G01*
X21403Y10869D02*
G03*
X21403Y10869I-00008J0D01*
G01*
X27348Y116D02*
G03*
X27348Y116I-00008J0D01*
G01*
M02*
