G04*
G04 #@! TF.GenerationSoftware,Altium Limited,Altium Designer,20.2.3 (150)*
G04*
G04 Layer_Color=128*
%FSTAX24Y24*%
%MOIN*%
G70*
G04*
G04 #@! TF.SameCoordinates,FD17E350-08D3-4DFF-A4DB-8DFB896FC0A1*
G04*
G04*
G04 #@! TF.FilePolarity,Positive*
G04*
G01*
G75*
%ADD16C,0.0020*%
D16*
X232523Y12545D02*
X232877D01*
X2327Y125273D02*
Y125627D01*
X230523Y12545D02*
X230877D01*
X2307Y125273D02*
Y125627D01*
X229523Y12545D02*
X229877D01*
X2297Y125273D02*
Y125627D01*
X232523Y14445D02*
X232877D01*
X2327Y144273D02*
Y144627D01*
X233523Y14445D02*
X233877D01*
X2337Y144273D02*
Y144627D01*
X234523Y14445D02*
X234877D01*
X2347Y144273D02*
Y144627D01*
X235523Y14445D02*
X235877D01*
X2357Y144273D02*
Y144627D01*
X236523Y14445D02*
X236877D01*
X2367Y144273D02*
Y144627D01*
X237523Y14445D02*
X237877D01*
X2377Y144273D02*
Y144627D01*
X238523Y14445D02*
X238877D01*
X2387Y144273D02*
Y144627D01*
X239523Y14445D02*
X239877D01*
X2397Y144273D02*
Y144627D01*
X227023Y14445D02*
X227377D01*
X2272Y144273D02*
Y144627D01*
X228023Y14445D02*
X228377D01*
X2282Y144273D02*
Y144627D01*
X229023Y14445D02*
X229377D01*
X2292Y144273D02*
Y144627D01*
X230023Y14445D02*
X230377D01*
X2302Y144273D02*
Y144627D01*
X231023Y14445D02*
X231377D01*
X2312Y144273D02*
Y144627D01*
X234523Y12545D02*
X234877D01*
X2347Y125273D02*
Y125627D01*
X235523Y12545D02*
X235877D01*
X2357Y125273D02*
Y125627D01*
X236523Y12545D02*
X236877D01*
X2367Y125273D02*
Y125627D01*
X237523Y12545D02*
X237877D01*
X2377Y125273D02*
Y125627D01*
X252523Y12745D02*
X252877D01*
X2527Y127273D02*
Y127627D01*
X251523Y12745D02*
X251877D01*
X2517Y127273D02*
Y127627D01*
X252523Y13045D02*
X252877D01*
X2527Y130273D02*
Y130627D01*
X251523Y13045D02*
X251877D01*
X2517Y130273D02*
Y130627D01*
X252523Y13145D02*
X252877D01*
X2527Y131273D02*
Y131627D01*
X251523Y13145D02*
X251877D01*
X2517Y131273D02*
Y131627D01*
X252523Y13245D02*
X252877D01*
X2527Y132273D02*
Y132627D01*
X251523Y13245D02*
X251877D01*
X2517Y132273D02*
Y132627D01*
X252523Y13345D02*
X252877D01*
X2527Y133273D02*
Y133627D01*
X251523Y13345D02*
X251877D01*
X2517Y133273D02*
Y133627D01*
X252523Y13445D02*
X252877D01*
X2527Y134273D02*
Y134627D01*
X251523Y13445D02*
X251877D01*
X2517Y134273D02*
Y134627D01*
X252523Y13545D02*
X252877D01*
X2527Y135273D02*
Y135627D01*
X251523Y13545D02*
X251877D01*
X2517Y135273D02*
Y135627D01*
X252523Y13645D02*
X252877D01*
X2527Y136273D02*
Y136627D01*
X251523Y13645D02*
X251877D01*
X2517Y136273D02*
Y136627D01*
X251523Y14345D02*
X251877D01*
X2517Y143273D02*
Y143627D01*
X251523Y14445D02*
X251877D01*
X2517Y144273D02*
Y144627D01*
X225023Y14445D02*
X225377D01*
X2252Y144273D02*
Y144627D01*
X213165Y15811D02*
X214735D01*
X21395Y157325D02*
Y158895D01*
X272685Y15812D02*
X274255D01*
X27347Y157335D02*
Y158905D01*
X230244Y156897D02*
X230756D01*
X2305Y156641D02*
Y157153D01*
X232244Y156897D02*
X232756D01*
X2325Y156641D02*
Y157153D01*
X234244Y156897D02*
X234756D01*
X2345Y156641D02*
Y157153D01*
X236244Y156897D02*
X236756D01*
X2365Y156641D02*
Y157153D01*
X238244Y156897D02*
X238756D01*
X2385Y156641D02*
Y157153D01*
X240244Y156897D02*
X240756D01*
X2405Y156641D02*
Y157153D01*
X242244Y156897D02*
X242756D01*
X2425Y156641D02*
Y157153D01*
X244244Y156897D02*
X244756D01*
X2445Y156641D02*
Y157153D01*
X230244Y153897D02*
X230756D01*
X2305Y153641D02*
Y154153D01*
X232264Y153897D02*
X232736D01*
X2325Y153661D02*
Y154134D01*
X234244Y153897D02*
X234756D01*
X2345Y153641D02*
Y154153D01*
X236244Y153897D02*
X236756D01*
X2365Y153641D02*
Y154153D01*
X238244Y153897D02*
X238756D01*
X2385Y153641D02*
Y154153D01*
X240244Y153897D02*
X240756D01*
X2405Y153641D02*
Y154153D01*
X242244Y153897D02*
X242756D01*
X2425Y153641D02*
Y154153D01*
X246244Y153897D02*
X246756D01*
X2465Y153641D02*
Y154153D01*
X246244Y156897D02*
X246756D01*
X2465Y156641D02*
Y157153D01*
X244244Y153897D02*
X244756D01*
X2445Y153641D02*
Y154153D01*
X248244Y153897D02*
X248756D01*
X2485Y153641D02*
Y154153D01*
X248244Y156897D02*
X248756D01*
X2485Y156641D02*
Y157153D01*
X251994Y1569D02*
X252506D01*
X25225Y156644D02*
Y157156D01*
X253994Y1569D02*
X254506D01*
X25425Y156644D02*
Y157156D01*
X255994Y1569D02*
X256506D01*
X25625Y156644D02*
Y157156D01*
X257994Y1569D02*
X258506D01*
X25825Y156644D02*
Y157156D01*
X259994Y1569D02*
X260506D01*
X26025Y156644D02*
Y157156D01*
X261994Y1569D02*
X262506D01*
X26225Y156644D02*
Y157156D01*
X263994Y1569D02*
X264506D01*
X26425Y156644D02*
Y157156D01*
X265994Y1569D02*
X266506D01*
X26625Y156644D02*
Y157156D01*
X251994Y1539D02*
X252506D01*
X25225Y153644D02*
Y154156D01*
X254014Y1539D02*
X254486D01*
X25425Y153664D02*
Y154136D01*
X255994Y1539D02*
X256506D01*
X25625Y153644D02*
Y154156D01*
X257994Y1539D02*
X258506D01*
X25825Y153644D02*
Y154156D01*
X259994Y1539D02*
X260506D01*
X26025Y153644D02*
Y154156D01*
X261994Y1539D02*
X262506D01*
X26225Y153644D02*
Y154156D01*
X263994Y1539D02*
X264506D01*
X26425Y153644D02*
Y154156D01*
X267994Y1539D02*
X268506D01*
X26825Y153644D02*
Y154156D01*
X267994Y1569D02*
X268506D01*
X26825Y156644D02*
Y157156D01*
X265994Y1539D02*
X266506D01*
X26625Y153644D02*
Y154156D01*
X269994Y1539D02*
X270506D01*
X27025Y153644D02*
Y154156D01*
X269994Y1569D02*
X270506D01*
X27025Y156644D02*
Y157156D01*
X278844Y1565D02*
X279356D01*
X2791Y156244D02*
Y156756D01*
X278844Y1545D02*
X279356D01*
X2791Y154244D02*
Y154756D01*
X278844Y1525D02*
X279356D01*
X2791Y152244D02*
Y152756D01*
X278844Y1505D02*
X279356D01*
X2791Y150244D02*
Y150756D01*
X278844Y1485D02*
X279356D01*
X2791Y148244D02*
Y148756D01*
X278844Y1465D02*
X279356D01*
X2791Y146244D02*
Y146756D01*
X278844Y1445D02*
X279356D01*
X2791Y144244D02*
Y144756D01*
X278844Y1425D02*
X279356D01*
X2791Y142244D02*
Y142756D01*
X275844Y1565D02*
X276356D01*
X2761Y156244D02*
Y156756D01*
X275864Y1545D02*
X276336D01*
X2761Y154264D02*
Y154736D01*
X275844Y1525D02*
X276356D01*
X2761Y152244D02*
Y152756D01*
X275844Y1505D02*
X276356D01*
X2761Y150244D02*
Y150756D01*
X275844Y1485D02*
X276356D01*
X2761Y148244D02*
Y148756D01*
X275844Y1465D02*
X276356D01*
X2761Y146244D02*
Y146756D01*
X275844Y1445D02*
X276356D01*
X2761Y144244D02*
Y144756D01*
X275844Y1405D02*
X276356D01*
X2761Y140244D02*
Y140756D01*
X278844Y1405D02*
X279356D01*
X2791Y140244D02*
Y140756D01*
X275844Y1425D02*
X276356D01*
X2761Y142244D02*
Y142756D01*
X275844Y1385D02*
X276356D01*
X2761Y138244D02*
Y138756D01*
X278844Y1385D02*
X279356D01*
X2791Y138244D02*
Y138756D01*
X221752Y14025D02*
X222146D01*
X221949Y140053D02*
Y140447D01*
X221752Y14225D02*
X222146D01*
X221949Y142053D02*
Y142447D01*
X26818Y138D02*
X26838D01*
X26828Y1379D02*
Y1381D01*
X213165Y10869D02*
X214735D01*
X21395Y107905D02*
Y109475D01*
X22382Y15575D02*
X22418D01*
X224Y15557D02*
Y15593D01*
X22382Y15275D02*
X22418D01*
X224Y15257D02*
Y15293D01*
X21982Y15575D02*
X22018D01*
X22Y15557D02*
Y15593D01*
X22082Y15575D02*
X22118D01*
X221Y15557D02*
Y15593D01*
X22182Y15575D02*
X22218D01*
X222Y15557D02*
Y15593D01*
X22282Y15575D02*
X22318D01*
X223Y15557D02*
Y15593D01*
X22282Y15275D02*
X22318D01*
X223Y15257D02*
Y15293D01*
X22182Y15275D02*
X22218D01*
X222Y15257D02*
Y15293D01*
X22082Y15275D02*
X22118D01*
X221Y15257D02*
Y15293D01*
X21982Y15275D02*
X22018D01*
X22Y15257D02*
Y15293D01*
X21582Y15575D02*
X21618D01*
X216Y15557D02*
Y15593D01*
X21682Y15575D02*
X21718D01*
X217Y15557D02*
Y15593D01*
X21782Y15575D02*
X21818D01*
X218Y15557D02*
Y15593D01*
X21882Y15575D02*
X21918D01*
X219Y15557D02*
Y15593D01*
X21882Y15275D02*
X21918D01*
X219Y15257D02*
Y15293D01*
X21782Y15275D02*
X21818D01*
X218Y15257D02*
Y15293D01*
X21682Y15275D02*
X21718D01*
X217Y15257D02*
Y15293D01*
X21582Y15275D02*
X21618D01*
X216Y15257D02*
Y15293D01*
X22482Y15575D02*
X22518D01*
X225Y15557D02*
Y15593D01*
X22482Y15275D02*
X22518D01*
X225Y15257D02*
Y15293D01*
X22482Y14715D02*
X22518D01*
X225Y14697D02*
Y14733D01*
X22482Y15015D02*
X22518D01*
X225Y14997D02*
Y15033D01*
X21582Y14715D02*
X21618D01*
X216Y14697D02*
Y14733D01*
X21682Y14715D02*
X21718D01*
X217Y14697D02*
Y14733D01*
X21782Y14715D02*
X21818D01*
X218Y14697D02*
Y14733D01*
X21882Y14715D02*
X21918D01*
X219Y14697D02*
Y14733D01*
X21882Y15015D02*
X21918D01*
X219Y14997D02*
Y15033D01*
X21782Y15015D02*
X21818D01*
X218Y14997D02*
Y15033D01*
X21682Y15015D02*
X21718D01*
X217Y14997D02*
Y15033D01*
X21582Y15015D02*
X21618D01*
X216Y14997D02*
Y15033D01*
X21982Y14715D02*
X22018D01*
X22Y14697D02*
Y14733D01*
X22082Y14715D02*
X22118D01*
X221Y14697D02*
Y14733D01*
X22182Y14715D02*
X22218D01*
X222Y14697D02*
Y14733D01*
X22282Y14715D02*
X22318D01*
X223Y14697D02*
Y14733D01*
X22282Y15015D02*
X22318D01*
X223Y14997D02*
Y15033D01*
X22182Y15015D02*
X22218D01*
X222Y14997D02*
Y15033D01*
X22082Y15015D02*
X22118D01*
X221Y14997D02*
Y15033D01*
X21982Y15015D02*
X22018D01*
X22Y14997D02*
Y15033D01*
X22382Y14715D02*
X22418D01*
X224Y14697D02*
Y14733D01*
X22382Y15015D02*
X22418D01*
X224Y14997D02*
Y15033D01*
X278844Y11675D02*
X279356D01*
X2791Y116494D02*
Y117006D01*
X275844Y11675D02*
X276356D01*
X2761Y116494D02*
Y117006D01*
X275844Y12075D02*
X276356D01*
X2761Y120494D02*
Y121006D01*
X278844Y11875D02*
X279356D01*
X2791Y118494D02*
Y119006D01*
X275844Y11875D02*
X276356D01*
X2761Y118494D02*
Y119006D01*
X275844Y12275D02*
X276356D01*
X2761Y122494D02*
Y123006D01*
X275844Y12475D02*
X276356D01*
X2761Y124494D02*
Y125006D01*
X275844Y12675D02*
X276356D01*
X2761Y126494D02*
Y127006D01*
X275844Y12875D02*
X276356D01*
X2761Y128494D02*
Y129006D01*
X275844Y13075D02*
X276356D01*
X2761Y130494D02*
Y131006D01*
X275864Y13275D02*
X276336D01*
X2761Y132514D02*
Y132986D01*
X275844Y13475D02*
X276356D01*
X2761Y134494D02*
Y135006D01*
X278844Y12075D02*
X279356D01*
X2791Y120494D02*
Y121006D01*
X278844Y12275D02*
X279356D01*
X2791Y122494D02*
Y123006D01*
X278844Y12475D02*
X279356D01*
X2791Y124494D02*
Y125006D01*
X278844Y12675D02*
X279356D01*
X2791Y126494D02*
Y127006D01*
X278844Y12875D02*
X279356D01*
X2791Y128494D02*
Y129006D01*
X278844Y13075D02*
X279356D01*
X2791Y130494D02*
Y131006D01*
X278844Y13275D02*
X279356D01*
X2791Y132494D02*
Y133006D01*
X278844Y13475D02*
X279356D01*
X2791Y134494D02*
Y135006D01*
X256094Y1099D02*
X256606D01*
X25635Y109644D02*
Y110156D01*
X254094Y1099D02*
X254606D01*
X25435Y109644D02*
Y110156D01*
X252094Y1099D02*
X252606D01*
X25235Y109644D02*
Y110156D01*
X250094Y1099D02*
X250606D01*
X25035Y109644D02*
Y110156D01*
X248094Y1099D02*
X248606D01*
X24835Y109644D02*
Y110156D01*
X246094Y1099D02*
X246606D01*
X24635Y109644D02*
Y110156D01*
X244094Y1099D02*
X244606D01*
X24435Y109644D02*
Y110156D01*
X242094Y1099D02*
X242606D01*
X24235Y109644D02*
Y110156D01*
X256094Y1129D02*
X256606D01*
X25635Y112644D02*
Y113156D01*
X254114Y1129D02*
X254586D01*
X25435Y112664D02*
Y113136D01*
X252094Y1129D02*
X252606D01*
X25235Y112644D02*
Y113156D01*
X250094Y1129D02*
X250606D01*
X25035Y112644D02*
Y113156D01*
X248094Y1129D02*
X248606D01*
X24835Y112644D02*
Y113156D01*
X246094Y1129D02*
X246606D01*
X24635Y112644D02*
Y113156D01*
X244094Y1129D02*
X244606D01*
X24435Y112644D02*
Y113156D01*
X240094Y1129D02*
X240606D01*
X24035Y112644D02*
Y113156D01*
X240094Y1099D02*
X240606D01*
X24035Y109644D02*
Y110156D01*
X242094Y1129D02*
X242606D01*
X24235Y112644D02*
Y113156D01*
X238094Y1129D02*
X238606D01*
X23835Y112644D02*
Y113156D01*
X238094Y1099D02*
X238606D01*
X23835Y109644D02*
Y110156D01*
X216344Y1099D02*
X216856D01*
X2166Y109644D02*
Y110156D01*
X216344Y1129D02*
X216856D01*
X2166Y112644D02*
Y113156D01*
X220344Y1129D02*
X220856D01*
X2206Y112644D02*
Y113156D01*
X218344Y1099D02*
X218856D01*
X2186Y109644D02*
Y110156D01*
X218344Y1129D02*
X218856D01*
X2186Y112644D02*
Y113156D01*
X222344Y1129D02*
X222856D01*
X2226Y112644D02*
Y113156D01*
X224344Y1129D02*
X224856D01*
X2246Y112644D02*
Y113156D01*
X226344Y1129D02*
X226856D01*
X2266Y112644D02*
Y113156D01*
X228344Y1129D02*
X228856D01*
X2286Y112644D02*
Y113156D01*
X230344Y1129D02*
X230856D01*
X2306Y112644D02*
Y113156D01*
X232364Y1129D02*
X232836D01*
X2326Y112664D02*
Y113136D01*
X234344Y1129D02*
X234856D01*
X2346Y112644D02*
Y113156D01*
X220344Y1099D02*
X220856D01*
X2206Y109644D02*
Y110156D01*
X222344Y1099D02*
X222856D01*
X2226Y109644D02*
Y110156D01*
X224344Y1099D02*
X224856D01*
X2246Y109644D02*
Y110156D01*
X226344Y1099D02*
X226856D01*
X2266Y109644D02*
Y110156D01*
X228344Y1099D02*
X228856D01*
X2286Y109644D02*
Y110156D01*
X230344Y1099D02*
X230856D01*
X2306Y109644D02*
Y110156D01*
X232344Y1099D02*
X232856D01*
X2326Y109644D02*
Y110156D01*
X234344Y1099D02*
X234856D01*
X2346Y109644D02*
Y110156D01*
X277844Y1099D02*
X278356D01*
X2781Y109644D02*
Y110156D01*
X275844Y1099D02*
X276356D01*
X2761Y109644D02*
Y110156D01*
X273844Y1099D02*
X274356D01*
X2741Y109644D02*
Y110156D01*
X271844Y1099D02*
X272356D01*
X2721Y109644D02*
Y110156D01*
X269844Y1099D02*
X270356D01*
X2701Y109644D02*
Y110156D01*
X267844Y1099D02*
X268356D01*
X2681Y109644D02*
Y110156D01*
X265844Y1099D02*
X266356D01*
X2661Y109644D02*
Y110156D01*
X263844Y1099D02*
X264356D01*
X2641Y109644D02*
Y110156D01*
X277844Y1129D02*
X278356D01*
X2781Y112644D02*
Y113156D01*
X275864Y1129D02*
X276336D01*
X2761Y112664D02*
Y113136D01*
X273844Y1129D02*
X274356D01*
X2741Y112644D02*
Y113156D01*
X271844Y1129D02*
X272356D01*
X2721Y112644D02*
Y113156D01*
X269844Y1129D02*
X270356D01*
X2701Y112644D02*
Y113156D01*
X267844Y1129D02*
X268356D01*
X2681Y112644D02*
Y113156D01*
X265844Y1129D02*
X266356D01*
X2661Y112644D02*
Y113156D01*
X261844Y1129D02*
X262356D01*
X2621Y112644D02*
Y113156D01*
X261844Y1099D02*
X262356D01*
X2621Y109644D02*
Y110156D01*
X263844Y1129D02*
X264356D01*
X2641Y112644D02*
Y113156D01*
X259844Y1129D02*
X260356D01*
X2601Y112644D02*
Y113156D01*
X259844Y1099D02*
X260356D01*
X2601Y109644D02*
Y110156D01*
X272615Y116D02*
X274185D01*
X2734Y115215D02*
Y116785D01*
X218053Y1218D02*
X218447D01*
X21825Y121603D02*
Y121997D01*
X218053Y1198D02*
X218447D01*
X21825Y119603D02*
Y119997D01*
X218053Y1188D02*
X218447D01*
X21825Y118603D02*
Y118997D01*
X218053Y1178D02*
X218447D01*
X21825Y117603D02*
Y117997D01*
X216053Y1218D02*
X216447D01*
X21625Y121603D02*
Y121997D01*
X216053Y1198D02*
X216447D01*
X21625Y119603D02*
Y119997D01*
X216053Y1188D02*
X216447D01*
X21625Y118603D02*
Y118997D01*
X216053Y1178D02*
X216447D01*
X21625Y117603D02*
Y117997D01*
X236534Y1178D02*
X236928D01*
X236731Y117603D02*
Y117997D01*
X236534Y1188D02*
X236928D01*
X236731Y118603D02*
Y118997D01*
X236534Y1198D02*
X236928D01*
X236731Y119603D02*
Y119997D01*
X236534Y1218D02*
X236928D01*
X236731Y121603D02*
Y121997D01*
X238534Y1178D02*
X238928D01*
X238731Y117603D02*
Y117997D01*
X238534Y1188D02*
X238928D01*
X238731Y118603D02*
Y118997D01*
X238534Y1198D02*
X238928D01*
X238731Y119603D02*
Y119997D01*
X238534Y1218D02*
X238928D01*
X238731Y121603D02*
Y121997D01*
X259015Y1218D02*
X259408D01*
X259212Y121603D02*
Y121997D01*
X259015Y1198D02*
X259408D01*
X259212Y119603D02*
Y119997D01*
X259015Y1188D02*
X259408D01*
X259212Y118603D02*
Y118997D01*
X259015Y1178D02*
X259408D01*
X259212Y117603D02*
Y117997D01*
X257015Y1218D02*
X257408D01*
X257212Y121603D02*
Y121997D01*
X257015Y1198D02*
X257408D01*
X257212Y119603D02*
Y119997D01*
X257015Y1188D02*
X257408D01*
X257212Y118603D02*
Y118997D01*
X257015Y1178D02*
X257408D01*
X257212Y117603D02*
Y117997D01*
X220149Y1178D02*
X220543D01*
X220346Y117603D02*
Y117997D01*
X220149Y1188D02*
X220543D01*
X220346Y118603D02*
Y118997D01*
X220149Y1198D02*
X220543D01*
X220346Y119603D02*
Y119997D01*
X220149Y1218D02*
X220543D01*
X220346Y121603D02*
Y121997D01*
X222149Y1178D02*
X222543D01*
X222346Y117603D02*
Y117997D01*
X222149Y1188D02*
X222543D01*
X222346Y118603D02*
Y118997D01*
X222149Y1198D02*
X222543D01*
X222346Y119603D02*
Y119997D01*
X222149Y1218D02*
X222543D01*
X222346Y121603D02*
Y121997D01*
X24263Y1218D02*
X243024D01*
X242827Y121603D02*
Y121997D01*
X24263Y1198D02*
X243024D01*
X242827Y119603D02*
Y119997D01*
X24263Y1188D02*
X243024D01*
X242827Y118603D02*
Y118997D01*
X24263Y1178D02*
X243024D01*
X242827Y117603D02*
Y117997D01*
X24063Y1218D02*
X241024D01*
X240827Y121603D02*
Y121997D01*
X24063Y1198D02*
X241024D01*
X240827Y119603D02*
Y119997D01*
X24063Y1188D02*
X241024D01*
X240827Y118603D02*
Y118997D01*
X24063Y1178D02*
X241024D01*
X240827Y117603D02*
Y117997D01*
X261111Y1178D02*
X261505D01*
X261308Y117603D02*
Y117997D01*
X261111Y1188D02*
X261505D01*
X261308Y118603D02*
Y118997D01*
X261111Y1198D02*
X261505D01*
X261308Y119603D02*
Y119997D01*
X261111Y1218D02*
X261505D01*
X261308Y121603D02*
Y121997D01*
X263111Y1178D02*
X263505D01*
X263308Y117603D02*
Y117997D01*
X263111Y1188D02*
X263505D01*
X263308Y118603D02*
Y118997D01*
X263111Y1198D02*
X263505D01*
X263308Y119603D02*
Y119997D01*
X263111Y1218D02*
X263505D01*
X263308Y121603D02*
Y121997D01*
X226245Y1218D02*
X226639D01*
X226442Y121603D02*
Y121997D01*
X226245Y1198D02*
X226639D01*
X226442Y119603D02*
Y119997D01*
X226245Y1188D02*
X226639D01*
X226442Y118603D02*
Y118997D01*
X226245Y1178D02*
X226639D01*
X226442Y117603D02*
Y117997D01*
X224245Y1218D02*
X224639D01*
X224442Y121603D02*
Y121997D01*
X224245Y1198D02*
X224639D01*
X224442Y119603D02*
Y119997D01*
X224245Y1188D02*
X224639D01*
X224442Y118603D02*
Y118997D01*
X224245Y1178D02*
X224639D01*
X224442Y117603D02*
Y117997D01*
X244726Y1178D02*
X24512D01*
X244923Y117603D02*
Y117997D01*
X244726Y1188D02*
X24512D01*
X244923Y118603D02*
Y118997D01*
X244726Y1198D02*
X24512D01*
X244923Y119603D02*
Y119997D01*
X244726Y1218D02*
X24512D01*
X244923Y121603D02*
Y121997D01*
X246726Y1178D02*
X24712D01*
X246923Y117603D02*
Y117997D01*
X246726Y1188D02*
X24712D01*
X246923Y118603D02*
Y118997D01*
X246726Y1198D02*
X24712D01*
X246923Y119603D02*
Y119997D01*
X246726Y1218D02*
X24712D01*
X246923Y121603D02*
Y121997D01*
X267207Y1218D02*
X267601D01*
X267404Y121603D02*
Y121997D01*
X267207Y1198D02*
X267601D01*
X267404Y119603D02*
Y119997D01*
X267207Y1188D02*
X267601D01*
X267404Y118603D02*
Y118997D01*
X267207Y1178D02*
X267601D01*
X267404Y117603D02*
Y117997D01*
X265207Y1218D02*
X265601D01*
X265404Y121603D02*
Y121997D01*
X265207Y1198D02*
X265601D01*
X265404Y119603D02*
Y119997D01*
X265207Y1188D02*
X265601D01*
X265404Y118603D02*
Y118997D01*
X265207Y1178D02*
X265601D01*
X265404Y117603D02*
Y117997D01*
X228342Y1178D02*
X228735D01*
X228538Y117603D02*
Y117997D01*
X228342Y1188D02*
X228735D01*
X228538Y118603D02*
Y118997D01*
X228342Y1198D02*
X228735D01*
X228538Y119603D02*
Y119997D01*
X228342Y1218D02*
X228735D01*
X228538Y121603D02*
Y121997D01*
X230342Y1178D02*
X230735D01*
X230538Y117603D02*
Y117997D01*
X230342Y1188D02*
X230735D01*
X230538Y118603D02*
Y118997D01*
X230342Y1198D02*
X230735D01*
X230538Y119603D02*
Y119997D01*
X230342Y1218D02*
X230735D01*
X230538Y121603D02*
Y121997D01*
X250822Y1218D02*
X251216D01*
X251019Y121603D02*
Y121997D01*
X250822Y1198D02*
X251216D01*
X251019Y119603D02*
Y119997D01*
X250822Y1188D02*
X251216D01*
X251019Y118603D02*
Y118997D01*
X250822Y1178D02*
X251216D01*
X251019Y117603D02*
Y117997D01*
X248822Y1218D02*
X249216D01*
X249019Y121603D02*
Y121997D01*
X248822Y1198D02*
X249216D01*
X249019Y119603D02*
Y119997D01*
X248822Y1188D02*
X249216D01*
X249019Y118603D02*
Y118997D01*
X248822Y1178D02*
X249216D01*
X249019Y117603D02*
Y117997D01*
X269303Y1178D02*
X269697D01*
X2695Y117603D02*
Y117997D01*
X269303Y1188D02*
X269697D01*
X2695Y118603D02*
Y118997D01*
X269303Y1198D02*
X269697D01*
X2695Y119603D02*
Y119997D01*
X269303Y1218D02*
X269697D01*
X2695Y121603D02*
Y121997D01*
X271303Y1178D02*
X271697D01*
X2715Y117603D02*
Y117997D01*
X271303Y1188D02*
X271697D01*
X2715Y118603D02*
Y118997D01*
X271303Y1198D02*
X271697D01*
X2715Y119603D02*
Y119997D01*
X271303Y1218D02*
X271697D01*
X2715Y121603D02*
Y121997D01*
X234438Y1218D02*
X234831D01*
X234635Y121603D02*
Y121997D01*
X234438Y1198D02*
X234831D01*
X234635Y119603D02*
Y119997D01*
X234438Y1188D02*
X234831D01*
X234635Y118603D02*
Y118997D01*
X234438Y1178D02*
X234831D01*
X234635Y117603D02*
Y117997D01*
X232438Y1218D02*
X232831D01*
X232635Y121603D02*
Y121997D01*
X232438Y1198D02*
X232831D01*
X232635Y119603D02*
Y119997D01*
X232438Y1188D02*
X232831D01*
X232635Y118603D02*
Y118997D01*
X232438Y1178D02*
X232831D01*
X232635Y117603D02*
Y117997D01*
X252919Y1178D02*
X253312D01*
X253115Y117603D02*
Y117997D01*
X252919Y1188D02*
X253312D01*
X253115Y118603D02*
Y118997D01*
X252919Y1198D02*
X253312D01*
X253115Y119603D02*
Y119997D01*
X252919Y1218D02*
X253312D01*
X253115Y121603D02*
Y121997D01*
X254919Y1178D02*
X255312D01*
X255115Y117603D02*
Y117997D01*
X254919Y1188D02*
X255312D01*
X255115Y118603D02*
Y118997D01*
X254919Y1198D02*
X255312D01*
X255115Y119603D02*
Y119997D01*
X254919Y1218D02*
X255312D01*
X255115Y121603D02*
Y121997D01*
X25645Y1352D02*
X25665D01*
X25655Y1351D02*
Y1353D01*
X27015Y14725D02*
X27035D01*
X27025Y14715D02*
Y14735D01*
X26815Y12735D02*
X26835D01*
X26825Y12725D02*
Y12745D01*
X252109Y12545D02*
X253291D01*
X2527Y124859D02*
Y126041D01*
X249609Y14445D02*
X250791D01*
X2502Y143859D02*
Y145041D01*
X220109Y14445D02*
X221291D01*
X2207Y143859D02*
Y145041D01*
X219609Y12545D02*
X220791D01*
X2202Y124859D02*
Y126041D01*
X280962Y10748D02*
X281242D01*
X281102Y10734D02*
Y10762D01*
X280372Y108661D02*
X280652D01*
X280512Y108521D02*
Y108801D01*
X279781Y10748D02*
X280061D01*
X279921Y10734D02*
Y10762D01*
X279191Y153543D02*
X279471D01*
X279331Y153403D02*
Y153683D01*
X279191Y137008D02*
X279471D01*
X279331Y136868D02*
Y137148D01*
X2786Y135827D02*
X27888D01*
X27874Y135687D02*
Y135967D01*
X279191Y115748D02*
X279471D01*
X279331Y115608D02*
Y115888D01*
X2786Y114567D02*
X27888D01*
X27874Y114427D02*
Y114707D01*
X279191Y113386D02*
X279471D01*
X279331Y113246D02*
Y113526D01*
X279191Y111024D02*
X279471D01*
X279331Y110884D02*
Y111164D01*
X2786Y10748D02*
X27888D01*
X27874Y10734D02*
Y10762D01*
X27801Y153543D02*
X27829D01*
X27815Y153403D02*
Y153683D01*
X27801Y137008D02*
X27829D01*
X27815Y136868D02*
Y137148D01*
X277419Y135827D02*
X277699D01*
X277559Y135687D02*
Y135967D01*
X27801Y115748D02*
X27829D01*
X27815Y115608D02*
Y115888D01*
X277419Y10748D02*
X277699D01*
X277559Y10734D02*
Y10762D01*
X276828Y153543D02*
X277108D01*
X276968Y153403D02*
Y153683D01*
X276828Y137008D02*
X277108D01*
X276968Y136868D02*
Y137148D01*
X276238Y135827D02*
X276518D01*
X276378Y135687D02*
Y135967D01*
X276238Y10748D02*
X276518D01*
X276378Y10734D02*
Y10762D01*
X275057Y10748D02*
X275337D01*
X275197Y10734D02*
Y10762D01*
X274466Y108661D02*
X274746D01*
X274606Y108521D02*
Y108801D01*
X273876Y10748D02*
X274156D01*
X274016Y10734D02*
Y10762D01*
X273285Y132283D02*
X273565D01*
X273425Y132143D02*
Y132423D01*
X273285Y129921D02*
X273565D01*
X273425Y129781D02*
Y130061D01*
X273285Y108661D02*
X273565D01*
X273425Y108521D02*
Y108801D01*
X272695Y10748D02*
X272975D01*
X272835Y10734D02*
Y10762D01*
X271513Y126378D02*
X271793D01*
X271653Y126238D02*
Y126518D01*
X272104Y125197D02*
X272384D01*
X272244Y125057D02*
Y125337D01*
X271513Y124016D02*
X271793D01*
X271653Y123876D02*
Y124156D01*
X272104Y122835D02*
X272384D01*
X272244Y122695D02*
Y122975D01*
X272104Y108661D02*
X272384D01*
X272244Y108521D02*
Y108801D01*
X271513Y10748D02*
X271793D01*
X271653Y10734D02*
Y10762D01*
X270923Y125197D02*
X271203D01*
X271063Y125057D02*
Y125337D01*
X270332Y121653D02*
X270612D01*
X270472Y121514D02*
Y121793D01*
X270332Y116929D02*
X270612D01*
X270472Y116789D02*
Y117069D01*
X270923Y113386D02*
X271203D01*
X271063Y113246D02*
Y113526D01*
X270923Y111024D02*
X271203D01*
X271063Y110884D02*
Y111164D01*
X270923Y108661D02*
X271203D01*
X271063Y108521D02*
Y108801D01*
X270332Y10748D02*
X270612D01*
X270472Y10734D02*
Y10762D01*
X269151Y157087D02*
X269431D01*
X269291Y156947D02*
Y157227D01*
X269742Y151181D02*
X270022D01*
X269882Y151041D02*
Y151321D01*
X269151Y138189D02*
X269431D01*
X269291Y138049D02*
Y138329D01*
X269151Y131102D02*
X269431D01*
X269291Y130962D02*
Y131242D01*
X269742Y108661D02*
X270022D01*
X269882Y108521D02*
Y108801D01*
X269151Y10748D02*
X269431D01*
X269291Y10734D02*
Y10762D01*
X268561Y151181D02*
X268841D01*
X268701Y151041D02*
Y151321D01*
X268561Y122835D02*
X268841D01*
X268701Y122695D02*
Y122975D01*
X26797Y119291D02*
X26825D01*
X26811Y119151D02*
Y119431D01*
X268561Y108661D02*
X268841D01*
X268701Y108521D02*
Y108801D01*
X26797Y10748D02*
X26825D01*
X26811Y10734D02*
Y10762D01*
X26738Y122835D02*
X26766D01*
X26752Y122695D02*
Y122975D01*
X26738Y108661D02*
X26766D01*
X26752Y108521D02*
Y108801D01*
X266789Y10748D02*
X267069D01*
X266929Y10734D02*
Y10762D01*
X265608Y152362D02*
X265888D01*
X265748Y152222D02*
Y152502D01*
X265608Y140551D02*
X265888D01*
X265748Y140411D02*
Y140691D01*
X266199Y13937D02*
X266479D01*
X266339Y13923D02*
Y13951D01*
X266199Y137008D02*
X266479D01*
X266339Y136868D02*
Y137148D01*
X265608Y133465D02*
X265888D01*
X265748Y133325D02*
Y133605D01*
X266199Y132283D02*
X266479D01*
X266339Y132143D02*
Y132423D01*
X266199Y129921D02*
X266479D01*
X266339Y129781D02*
Y130061D01*
X266199Y108661D02*
X266479D01*
X266339Y108521D02*
Y108801D01*
X265608Y10748D02*
X265888D01*
X265748Y10734D02*
Y10762D01*
X265017Y153543D02*
X265297D01*
X265157Y153403D02*
Y153683D01*
X264427Y140551D02*
X264707D01*
X264567Y140411D02*
Y140691D01*
X265017Y137008D02*
X265297D01*
X265157Y136868D02*
Y137148D01*
X264427Y133465D02*
X264707D01*
X264567Y133325D02*
Y133605D01*
X265017Y129921D02*
X265297D01*
X265157Y129781D02*
Y130061D01*
X265017Y111024D02*
X265297D01*
X265157Y110884D02*
Y111164D01*
X265017Y108661D02*
X265297D01*
X265157Y108521D02*
Y108801D01*
X264427Y10748D02*
X264707D01*
X264567Y10734D02*
Y10762D01*
X263246Y157087D02*
X263526D01*
X263386Y156947D02*
Y157227D01*
X263836Y13937D02*
X264116D01*
X263976Y13923D02*
Y13951D01*
X263836Y137008D02*
X264116D01*
X263976Y136868D02*
Y137148D01*
X263836Y122835D02*
X264116D01*
X263976Y122695D02*
Y122975D01*
X263246Y114567D02*
X263526D01*
X263386Y114427D02*
Y114707D01*
X263836Y108661D02*
X264116D01*
X263976Y108521D02*
Y108801D01*
X263246Y10748D02*
X263526D01*
X263386Y10734D02*
Y10762D01*
X262655Y151181D02*
X262935D01*
X262795Y151041D02*
Y151321D01*
X262065Y147638D02*
X262345D01*
X262205Y147498D02*
Y147778D01*
X262065Y145276D02*
X262345D01*
X262205Y145136D02*
Y145416D01*
X262655Y108661D02*
X262935D01*
X262795Y108521D02*
Y108801D01*
X262065Y10748D02*
X262345D01*
X262205Y10734D02*
Y10762D01*
X260884Y109842D02*
X261164D01*
X261024Y109702D02*
Y109982D01*
X261474Y108661D02*
X261754D01*
X261614Y108521D02*
Y108801D01*
X260884Y10748D02*
X261164D01*
X261024Y10734D02*
Y10762D01*
X260293Y151181D02*
X260573D01*
X260433Y151041D02*
Y151321D01*
X260293Y122835D02*
X260573D01*
X260433Y122695D02*
Y122975D01*
X259702Y119291D02*
X259982D01*
X259842Y119151D02*
Y119431D01*
X260293Y108661D02*
X260573D01*
X260433Y108521D02*
Y108801D01*
X259702Y10748D02*
X259982D01*
X259842Y10734D02*
Y10762D01*
X258521Y142913D02*
X258801D01*
X258661Y142773D02*
Y143053D01*
X258521Y140551D02*
X258801D01*
X258661Y140411D02*
Y140691D01*
X259112Y13937D02*
X259392D01*
X259252Y13923D02*
Y13951D01*
X259112Y137008D02*
X259392D01*
X259252Y136868D02*
Y137148D01*
X258521Y135827D02*
X258801D01*
X258661Y135687D02*
Y135967D01*
X258521Y133465D02*
X258801D01*
X258661Y133325D02*
Y133605D01*
X259112Y132283D02*
X259392D01*
X259252Y132143D02*
Y132423D01*
X259112Y129921D02*
X259392D01*
X259252Y129781D02*
Y130061D01*
X258521Y12874D02*
X258801D01*
X258661Y1286D02*
Y12888D01*
X259112Y122835D02*
X259392D01*
X259252Y122695D02*
Y122975D01*
X259112Y115748D02*
X259392D01*
X259252Y115608D02*
Y115888D01*
X258521Y112205D02*
X258801D01*
X258661Y112065D02*
Y112345D01*
X258521Y109842D02*
X258801D01*
X258661Y109702D02*
Y109982D01*
X259112Y108661D02*
X259392D01*
X259252Y108521D02*
Y108801D01*
X258521Y10748D02*
X258801D01*
X258661Y10734D02*
Y10762D01*
X25734Y145276D02*
X25762D01*
X25748Y145136D02*
Y145416D01*
X257931Y144094D02*
X258211D01*
X258071Y143954D02*
Y144234D01*
X25734Y140551D02*
X25762D01*
X25748Y140411D02*
Y140691D01*
X257931Y137008D02*
X258211D01*
X258071Y136868D02*
Y137148D01*
X25734Y133465D02*
X25762D01*
X25748Y133325D02*
Y133605D01*
X257931Y129921D02*
X258211D01*
X258071Y129781D02*
Y130061D01*
X25734Y114567D02*
X25762D01*
X25748Y114427D02*
Y114707D01*
X25734Y112205D02*
X25762D01*
X25748Y112065D02*
Y112345D01*
X257931Y111024D02*
X258211D01*
X258071Y110884D02*
Y111164D01*
X25734Y109842D02*
X25762D01*
X25748Y109702D02*
Y109982D01*
X257931Y108661D02*
X258211D01*
X258071Y108521D02*
Y108801D01*
X25734Y10748D02*
X25762D01*
X25748Y10734D02*
Y10762D01*
X256159Y145276D02*
X256439D01*
X256299Y145136D02*
Y145416D01*
X25675Y137008D02*
X25703D01*
X25689Y136868D02*
Y137148D01*
X256159Y133465D02*
X256439D01*
X256299Y133325D02*
Y133605D01*
X25675Y129921D02*
X25703D01*
X25689Y129781D02*
Y130061D01*
X25675Y108661D02*
X25703D01*
X25689Y108521D02*
Y108801D01*
X256159Y10748D02*
X256439D01*
X256299Y10734D02*
Y10762D01*
X254978Y157087D02*
X255258D01*
X255118Y156947D02*
Y157227D01*
X254978Y114567D02*
X255258D01*
X255118Y114427D02*
Y114707D01*
X255569Y108661D02*
X255849D01*
X255709Y108521D02*
Y108801D01*
X254978Y10748D02*
X255258D01*
X255118Y10734D02*
Y10762D01*
X253797Y142913D02*
X254077D01*
X253937Y142773D02*
Y143053D01*
X254387Y141732D02*
X254667D01*
X254527Y141592D02*
Y141872D01*
X254387Y108661D02*
X254667D01*
X254527Y108521D02*
Y108801D01*
X253797Y10748D02*
X254077D01*
X253937Y10734D02*
Y10762D01*
X253206Y144094D02*
X253486D01*
X253346Y143954D02*
Y144234D01*
X252616Y12874D02*
X252896D01*
X252756Y1286D02*
Y12888D01*
X253206Y113386D02*
X253486D01*
X253346Y113246D02*
Y113526D01*
X253206Y111024D02*
X253486D01*
X253346Y110884D02*
Y111164D01*
X253206Y108661D02*
X253486D01*
X253346Y108521D02*
Y108801D01*
X252616Y10748D02*
X252896D01*
X252756Y10734D02*
Y10762D01*
X251435Y12874D02*
X251715D01*
X251575Y1286D02*
Y12888D01*
X251435Y114567D02*
X251715D01*
X251575Y114427D02*
Y114707D01*
X252025Y108661D02*
X252305D01*
X252165Y108521D02*
Y108801D01*
X251435Y10748D02*
X251715D01*
X251575Y10734D02*
Y10762D01*
X250254Y157087D02*
X250534D01*
X250394Y156947D02*
Y157227D01*
X250844Y155905D02*
X251124D01*
X250984Y155765D02*
Y156045D01*
X250254Y154724D02*
X250534D01*
X250394Y154584D02*
Y154864D01*
X250844Y129921D02*
X251124D01*
X250984Y129781D02*
Y130061D01*
X250254Y12874D02*
X250534D01*
X250394Y1286D02*
Y12888D01*
X250844Y108661D02*
X251124D01*
X250984Y108521D02*
Y108801D01*
X250254Y10748D02*
X250534D01*
X250394Y10734D02*
Y10762D01*
X249663Y155905D02*
X249943D01*
X249803Y155765D02*
Y156045D01*
X249073Y133465D02*
X249353D01*
X249213Y133325D02*
Y133605D01*
X249073Y131102D02*
X249353D01*
X249213Y130962D02*
Y131242D01*
X249663Y129921D02*
X249943D01*
X249803Y129781D02*
Y130061D01*
X249073Y12874D02*
X249353D01*
X249213Y1286D02*
Y12888D01*
X249663Y127559D02*
X249943D01*
X249803Y127419D02*
Y127699D01*
X249073Y114567D02*
X249353D01*
X249213Y114427D02*
Y114707D01*
X249663Y108661D02*
X249943D01*
X249803Y108521D02*
Y108801D01*
X249073Y10748D02*
X249353D01*
X249213Y10734D02*
Y10762D01*
X247891Y140551D02*
X248171D01*
X248031Y140411D02*
Y140691D01*
X248482Y13937D02*
X248762D01*
X248622Y13923D02*
Y13951D01*
X248482Y134646D02*
X248762D01*
X248622Y134506D02*
Y134786D01*
X248482Y129921D02*
X248762D01*
X248622Y129781D02*
Y130061D01*
X247891Y119291D02*
X248171D01*
X248031Y119151D02*
Y119431D01*
X248482Y108661D02*
X248762D01*
X248622Y108521D02*
Y108801D01*
X247891Y10748D02*
X248171D01*
X248031Y10734D02*
Y10762D01*
X247301Y153543D02*
X247581D01*
X247441Y153403D02*
Y153683D01*
X247301Y113386D02*
X247581D01*
X247441Y113246D02*
Y113526D01*
X247301Y111024D02*
X247581D01*
X247441Y110884D02*
Y111164D01*
X247301Y108661D02*
X247581D01*
X247441Y108521D02*
Y108801D01*
X24671Y10748D02*
X24699D01*
X24685Y10734D02*
Y10762D01*
X245529Y114567D02*
X245809D01*
X245669Y114427D02*
Y114707D01*
X24612Y108661D02*
X2464D01*
X24626Y108521D02*
Y108801D01*
X245529Y10748D02*
X245809D01*
X245669Y10734D02*
Y10762D01*
X244939Y125197D02*
X245219D01*
X245079Y125057D02*
Y125337D01*
X244939Y113386D02*
X245219D01*
X245079Y113246D02*
Y113526D01*
X244939Y108661D02*
X245219D01*
X245079Y108521D02*
Y108801D01*
X244348Y10748D02*
X244628D01*
X244488Y10734D02*
Y10762D01*
X243167Y114567D02*
X243447D01*
X243307Y114427D02*
Y114707D01*
X243167Y112205D02*
X243447D01*
X243307Y112065D02*
Y112345D01*
X243167Y109842D02*
X243447D01*
X243307Y109702D02*
Y109982D01*
X243758Y108661D02*
X244038D01*
X243898Y108521D02*
Y108801D01*
X243167Y10748D02*
X243447D01*
X243307Y10734D02*
Y10762D01*
X241986Y147638D02*
X242266D01*
X242126Y147498D02*
Y147778D01*
X241986Y124016D02*
X242266D01*
X242126Y123876D02*
Y124156D01*
X242576Y108661D02*
X242856D01*
X242716Y108521D02*
Y108801D01*
X241986Y10748D02*
X242266D01*
X242126Y10734D02*
Y10762D01*
X241395Y153543D02*
X241675D01*
X241535Y153403D02*
Y153683D01*
X241395Y113386D02*
X241675D01*
X241535Y113246D02*
Y113526D01*
X241395Y108661D02*
X241675D01*
X241535Y108521D02*
Y108801D01*
X240805Y10748D02*
X241085D01*
X240945Y10734D02*
Y10762D01*
X239624Y126378D02*
X239904D01*
X239764Y126238D02*
Y126518D01*
X240214Y125197D02*
X240494D01*
X240354Y125057D02*
Y125337D01*
X240214Y122835D02*
X240494D01*
X240354Y122695D02*
Y122975D01*
X239624Y119291D02*
X239904D01*
X239764Y119151D02*
Y119431D01*
X240214Y108661D02*
X240494D01*
X240354Y108521D02*
Y108801D01*
X239624Y10748D02*
X239904D01*
X239764Y10734D02*
Y10762D01*
X238443Y133465D02*
X238723D01*
X238583Y133325D02*
Y133605D01*
X239033Y132283D02*
X239313D01*
X239173Y132143D02*
Y132423D01*
X238443Y131102D02*
X238723D01*
X238583Y130962D02*
Y131242D01*
X239033Y129921D02*
X239313D01*
X239173Y129781D02*
Y130061D01*
X238443Y12874D02*
X238723D01*
X238583Y1286D02*
Y12888D01*
X239033Y127559D02*
X239313D01*
X239173Y127419D02*
Y127699D01*
X238443Y126378D02*
X238723D01*
X238583Y126238D02*
Y126518D01*
X239033Y125197D02*
X239313D01*
X239173Y125057D02*
Y125337D01*
X239033Y122835D02*
X239313D01*
X239173Y122695D02*
Y122975D01*
X239033Y113386D02*
X239313D01*
X239173Y113246D02*
Y113526D01*
X239033Y108661D02*
X239313D01*
X239173Y108521D02*
Y108801D01*
X238443Y10748D02*
X238723D01*
X238583Y10734D02*
Y10762D01*
X237262Y147638D02*
X237542D01*
X237402Y147498D02*
Y147778D01*
X237852Y141732D02*
X238132D01*
X237992Y141592D02*
Y141872D01*
X237262Y140551D02*
X237542D01*
X237402Y140411D02*
Y140691D01*
X237262Y114567D02*
X237542D01*
X237402Y114427D02*
Y114707D01*
X237262Y112205D02*
X237542D01*
X237402Y112065D02*
Y112345D01*
X237262Y109842D02*
X237542D01*
X237402Y109702D02*
Y109982D01*
X237852Y108661D02*
X238132D01*
X237992Y108521D02*
Y108801D01*
X237262Y10748D02*
X237542D01*
X237402Y10734D02*
Y10762D01*
X236671Y141732D02*
X236951D01*
X236811Y141592D02*
Y141872D01*
X23608Y114567D02*
X23636D01*
X23622Y114427D02*
Y114707D01*
X236671Y113386D02*
X236951D01*
X236811Y113246D02*
Y113526D01*
X23608Y112205D02*
X23636D01*
X23622Y112065D02*
Y112345D01*
X236671Y111024D02*
X236951D01*
X236811Y110884D02*
Y111164D01*
X23608Y109842D02*
X23636D01*
X23622Y109702D02*
Y109982D01*
X236671Y108661D02*
X236951D01*
X236811Y108521D02*
Y108801D01*
X23608Y10748D02*
X23636D01*
X23622Y10734D02*
Y10762D01*
X23549Y153543D02*
X23577D01*
X23563Y153403D02*
Y153683D01*
X23549Y113386D02*
X23577D01*
X23563Y113246D02*
Y113526D01*
X23549Y111024D02*
X23577D01*
X23563Y110884D02*
Y111164D01*
X23549Y108661D02*
X23577D01*
X23563Y108521D02*
Y108801D01*
X234899Y10748D02*
X235179D01*
X235039Y10734D02*
Y10762D01*
X233718Y147638D02*
X233998D01*
X233858Y147498D02*
Y147778D01*
X233718Y135827D02*
X233998D01*
X233858Y135687D02*
Y135967D01*
X233718Y114567D02*
X233998D01*
X233858Y114427D02*
Y114707D01*
X234309Y108661D02*
X234589D01*
X234449Y108521D02*
Y108801D01*
X233718Y10748D02*
X233998D01*
X233858Y10734D02*
Y10762D01*
X233128Y108661D02*
X233408D01*
X233268Y108521D02*
Y108801D01*
X232537Y10748D02*
X232817D01*
X232677Y10734D02*
Y10762D01*
X231356Y119291D02*
X231636D01*
X231496Y119151D02*
Y119431D01*
X231356Y109842D02*
X231636D01*
X231496Y109702D02*
Y109982D01*
X231947Y108661D02*
X232227D01*
X232087Y108521D02*
Y108801D01*
X231356Y10748D02*
X231636D01*
X231496Y10734D02*
Y10762D01*
X230175Y147638D02*
X230455D01*
X230315Y147498D02*
Y147778D01*
X230175Y114567D02*
X230455D01*
X230315Y114427D02*
Y114707D01*
X230765Y108661D02*
X231045D01*
X230905Y108521D02*
Y108801D01*
X230175Y10748D02*
X230455D01*
X230315Y10734D02*
Y10762D01*
X228994Y147638D02*
X229274D01*
X229134Y147498D02*
Y147778D01*
X229584Y113386D02*
X229864D01*
X229724Y113246D02*
Y113526D01*
X229584Y108661D02*
X229864D01*
X229724Y108521D02*
Y108801D01*
X228994Y10748D02*
X229274D01*
X229134Y10734D02*
Y10762D01*
X227813Y147638D02*
X228093D01*
X227953Y147498D02*
Y147778D01*
X228403Y13937D02*
X228683D01*
X228543Y13923D02*
Y13951D01*
X228403Y134646D02*
X228683D01*
X228543Y134506D02*
Y134786D01*
X227813Y133465D02*
X228093D01*
X227953Y133325D02*
Y133605D01*
X227813Y114567D02*
X228093D01*
X227953Y114427D02*
Y114707D01*
X228403Y108661D02*
X228683D01*
X228543Y108521D02*
Y108801D01*
X227813Y10748D02*
X228093D01*
X227953Y10734D02*
Y10762D01*
X226632Y147638D02*
X226912D01*
X226772Y147498D02*
Y147778D01*
X226632Y145276D02*
X226912D01*
X226772Y145136D02*
Y145416D01*
X227222Y13937D02*
X227502D01*
X227362Y13923D02*
Y13951D01*
X226632Y138189D02*
X226912D01*
X226772Y138049D02*
Y138329D01*
X227222Y134646D02*
X227502D01*
X227362Y134506D02*
Y134786D01*
X227222Y122835D02*
X227502D01*
X227362Y122695D02*
Y122975D01*
X227222Y113386D02*
X227502D01*
X227362Y113246D02*
Y113526D01*
X227222Y108661D02*
X227502D01*
X227362Y108521D02*
Y108801D01*
X226632Y10748D02*
X226912D01*
X226772Y10734D02*
Y10762D01*
X22545Y145276D02*
X22573D01*
X22559Y145136D02*
Y145416D01*
X226041Y13937D02*
X226321D01*
X226181Y13923D02*
Y13951D01*
X22545Y138189D02*
X22573D01*
X22559Y138049D02*
Y138329D01*
X226041Y137008D02*
X226321D01*
X226181Y136868D02*
Y137148D01*
X22545Y112205D02*
X22573D01*
X22559Y112065D02*
Y112345D01*
X22545Y109842D02*
X22573D01*
X22559Y109702D02*
Y109982D01*
X226041Y108661D02*
X226321D01*
X226181Y108521D02*
Y108801D01*
X22545Y10748D02*
X22573D01*
X22559Y10734D02*
Y10762D01*
X224269Y138189D02*
X224549D01*
X224409Y138049D02*
Y138329D01*
X22486Y137008D02*
X22514D01*
X225Y136868D02*
Y137148D01*
X224269Y135827D02*
X224549D01*
X224409Y135687D02*
Y135967D01*
X22486Y134646D02*
X22514D01*
X225Y134506D02*
Y134786D01*
X224269Y133465D02*
X224549D01*
X224409Y133325D02*
Y133605D01*
X224269Y131102D02*
X224549D01*
X224409Y130962D02*
Y131242D01*
X224269Y126378D02*
X224549D01*
X224409Y126238D02*
Y126518D01*
X22486Y108661D02*
X22514D01*
X225Y108521D02*
Y108801D01*
X224269Y10748D02*
X224549D01*
X224409Y10734D02*
Y10762D01*
X223679Y137008D02*
X223959D01*
X223819Y136868D02*
Y137148D01*
X223088Y135827D02*
X223368D01*
X223228Y135687D02*
Y135967D01*
X223679Y134646D02*
X223959D01*
X223819Y134506D02*
Y134786D01*
X223088Y133465D02*
X223368D01*
X223228Y133325D02*
Y133605D01*
X223088Y131102D02*
X223368D01*
X223228Y130962D02*
Y131242D01*
X223679Y125197D02*
X223959D01*
X223819Y125057D02*
Y125337D01*
X223088Y124016D02*
X223368D01*
X223228Y123876D02*
Y124156D01*
X223088Y119291D02*
X223368D01*
X223228Y119151D02*
Y119431D01*
X223679Y113386D02*
X223959D01*
X223819Y113246D02*
Y113526D01*
X223679Y108661D02*
X223959D01*
X223819Y108521D02*
Y108801D01*
X223088Y10748D02*
X223368D01*
X223228Y10734D02*
Y10762D01*
X222498Y137008D02*
X222778D01*
X222638Y136868D02*
Y137148D01*
X222498Y134646D02*
X222778D01*
X222638Y134506D02*
Y134786D01*
X221907Y133465D02*
X222187D01*
X222047Y133325D02*
Y133605D01*
X222498Y132283D02*
X222778D01*
X222638Y132143D02*
Y132423D01*
X221907Y131102D02*
X222187D01*
X222047Y130962D02*
Y131242D01*
X222498Y127559D02*
X222778D01*
X222638Y127419D02*
Y127699D01*
X221907Y114567D02*
X222187D01*
X222047Y114427D02*
Y114707D01*
X222498Y108661D02*
X222778D01*
X222638Y108521D02*
Y108801D01*
X221907Y10748D02*
X222187D01*
X222047Y10734D02*
Y10762D01*
X221317Y148819D02*
X221597D01*
X221457Y148679D02*
Y148959D01*
X220726Y142913D02*
X221006D01*
X220866Y142773D02*
Y143053D01*
X221317Y134646D02*
X221597D01*
X221457Y134506D02*
Y134786D01*
X220726Y133465D02*
X221006D01*
X220866Y133325D02*
Y133605D01*
X221317Y127559D02*
X221597D01*
X221457Y127419D02*
Y127699D01*
X220726Y126378D02*
X221006D01*
X220866Y126238D02*
Y126518D01*
X221317Y113386D02*
X221597D01*
X221457Y113246D02*
Y113526D01*
X221317Y108661D02*
X221597D01*
X221457Y108521D02*
Y108801D01*
X220726Y10748D02*
X221006D01*
X220866Y10734D02*
Y10762D01*
X220136Y148819D02*
X220416D01*
X220276Y148679D02*
Y148959D01*
X219545Y142913D02*
X219825D01*
X219685Y142773D02*
Y143053D01*
X219545Y138189D02*
X219825D01*
X219685Y138049D02*
Y138329D01*
X219545Y12874D02*
X219825D01*
X219685Y1286D02*
Y12888D01*
X220136Y127559D02*
X220416D01*
X220276Y127419D02*
Y127699D01*
X219545Y126378D02*
X219825D01*
X219685Y126238D02*
Y126518D01*
X220136Y115748D02*
X220416D01*
X220276Y115608D02*
Y115888D01*
X219545Y114567D02*
X219825D01*
X219685Y114427D02*
Y114707D01*
X219545Y112205D02*
X219825D01*
X219685Y112065D02*
Y112345D01*
X219545Y109842D02*
X219825D01*
X219685Y109702D02*
Y109982D01*
X220136Y108661D02*
X220416D01*
X220276Y108521D02*
Y108801D01*
X219545Y10748D02*
X219825D01*
X219685Y10734D02*
Y10762D01*
X218364Y157087D02*
X218644D01*
X218504Y156947D02*
Y157227D01*
X218954Y148819D02*
X219234D01*
X219094Y148679D02*
Y148959D01*
X218364Y142913D02*
X218644D01*
X218504Y142773D02*
Y143053D01*
X218954Y141732D02*
X219234D01*
X219094Y141592D02*
Y141872D01*
X218954Y13937D02*
X219234D01*
X219094Y13923D02*
Y13951D01*
X218364Y12874D02*
X218644D01*
X218504Y1286D02*
Y12888D01*
X218954Y127559D02*
X219234D01*
X219094Y127419D02*
Y127699D01*
X218364Y126378D02*
X218644D01*
X218504Y126238D02*
Y126518D01*
X218954Y125197D02*
X219234D01*
X219094Y125057D02*
Y125337D01*
X218364Y124016D02*
X218644D01*
X218504Y123876D02*
Y124156D01*
X218954Y108661D02*
X219234D01*
X219094Y108521D02*
Y108801D01*
X218364Y10748D02*
X218644D01*
X218504Y10734D02*
Y10762D01*
X217183Y157087D02*
X217463D01*
X217323Y156947D02*
Y157227D01*
X217773Y148819D02*
X218053D01*
X217913Y148679D02*
Y148959D01*
X217183Y142913D02*
X217463D01*
X217323Y142773D02*
Y143053D01*
X217773Y141732D02*
X218053D01*
X217913Y141592D02*
Y141872D01*
X217773Y132283D02*
X218053D01*
X217913Y132143D02*
Y132423D01*
X217183Y131102D02*
X217463D01*
X217323Y130962D02*
Y131242D01*
X217773Y129921D02*
X218053D01*
X217913Y129781D02*
Y130061D01*
X217183Y12874D02*
X217463D01*
X217323Y1286D02*
Y12888D01*
X217773Y127559D02*
X218053D01*
X217913Y127419D02*
Y127699D01*
X217183Y126378D02*
X217463D01*
X217323Y126238D02*
Y126518D01*
X217773Y125197D02*
X218053D01*
X217913Y125057D02*
Y125337D01*
X217183Y124016D02*
X217463D01*
X217323Y123876D02*
Y124156D01*
X217773Y108661D02*
X218053D01*
X217913Y108521D02*
Y108801D01*
X217183Y10748D02*
X217463D01*
X217323Y10734D02*
Y10762D01*
X216592Y148819D02*
X216872D01*
X216732Y148679D02*
Y148959D01*
X216592Y144094D02*
X216872D01*
X216732Y143954D02*
Y144234D01*
X216002Y142913D02*
X216282D01*
X216142Y142773D02*
Y143053D01*
X216592Y141732D02*
X216872D01*
X216732Y141592D02*
Y141872D01*
X216592Y127559D02*
X216872D01*
X216732Y127419D02*
Y127699D01*
X216002Y126378D02*
X216282D01*
X216142Y126238D02*
Y126518D01*
X216592Y125197D02*
X216872D01*
X216732Y125057D02*
Y125337D01*
X216002Y124016D02*
X216282D01*
X216142Y123876D02*
Y124156D01*
X216002Y114567D02*
X216282D01*
X216142Y114427D02*
Y114707D01*
X216592Y108661D02*
X216872D01*
X216732Y108521D02*
Y108801D01*
X216002Y10748D02*
X216282D01*
X216142Y10734D02*
Y10762D01*
X215411Y151181D02*
X215691D01*
X215551Y151041D02*
Y151321D01*
X215411Y148819D02*
X215691D01*
X215551Y148679D02*
Y148959D01*
X214821Y133465D02*
X215101D01*
X214961Y133325D02*
Y133605D01*
X215411Y127559D02*
X215691D01*
X215551Y127419D02*
Y127699D01*
X214821Y126378D02*
X215101D01*
X214961Y126238D02*
Y126518D01*
X215411Y125197D02*
X215691D01*
X215551Y125057D02*
Y125337D01*
X214821Y124016D02*
X215101D01*
X214961Y123876D02*
Y124156D01*
X215411Y122835D02*
X215691D01*
X215551Y122695D02*
Y122975D01*
X214821Y114567D02*
X215101D01*
X214961Y114427D02*
Y114707D01*
X215411Y113386D02*
X215691D01*
X215551Y113246D02*
Y113526D01*
X214821Y112205D02*
X215101D01*
X214961Y112065D02*
Y112345D01*
X215411Y111024D02*
X215691D01*
X215551Y110884D02*
Y111164D01*
X214821Y109842D02*
X215101D01*
X214961Y109702D02*
Y109982D01*
X215411Y108661D02*
X215691D01*
X215551Y108521D02*
Y108801D01*
X214821Y10748D02*
X215101D01*
X214961Y10734D02*
Y10762D01*
X213639Y114567D02*
X213919D01*
X213779Y114427D02*
Y114707D01*
X21423Y113386D02*
X21451D01*
X21437Y113246D02*
Y113526D01*
X213639Y112205D02*
X213919D01*
X213779Y112065D02*
Y112345D01*
X21423Y111024D02*
X21451D01*
X21437Y110884D02*
Y111164D01*
X2605Y13085D02*
X2607D01*
X2606Y13075D02*
Y13095D01*
X2341Y12845D02*
X2343D01*
X2342Y12835D02*
Y12855D01*
X224043Y144467D02*
X224323D01*
X224183Y144327D02*
Y144607D01*
X228509Y14345D02*
X228789D01*
X228649Y14331D02*
Y14359D01*
X222784Y141225D02*
X223064D01*
X222924Y141085D02*
Y141365D01*
X214559Y11985D02*
X214839D01*
X214699Y11971D02*
Y11999D01*
X274659Y1418D02*
X274939D01*
X274799Y14166D02*
Y14194D01*
X27466Y143099D02*
X27494D01*
X2748Y142959D02*
Y143239D01*
X219959Y1404D02*
X220239D01*
X220099Y14026D02*
Y14054D01*
X2279Y1423D02*
X2281D01*
X228Y1422D02*
Y1424D01*
X227049Y1423D02*
X227249D01*
X227149Y1422D02*
Y1424D01*
X23251Y14345D02*
X23279D01*
X23265Y14331D02*
Y14359D01*
X220809Y14125D02*
X221089D01*
X220949Y14111D02*
Y14139D01*
X22406Y14345D02*
X22434D01*
X2242Y14331D02*
Y14359D01*
X22705Y1484D02*
X22725D01*
X22715Y1483D02*
Y1485D01*
X22705Y14973D02*
X22725D01*
X22715Y14963D02*
Y14983D01*
X22765Y14973D02*
X22785D01*
X22775Y14963D02*
Y14983D01*
X228255Y149725D02*
X228455D01*
X228355Y149625D02*
Y149825D01*
X228255Y1484D02*
X228455D01*
X228355Y1483D02*
Y1485D01*
X21456Y12185D02*
X21484D01*
X2147Y12171D02*
Y12199D01*
X246572Y140322D02*
X246772D01*
X246672Y140222D02*
Y140422D01*
X22885Y1423D02*
X22905D01*
X22895Y1422D02*
Y1424D01*
X23345Y14185D02*
X23365D01*
X23355Y14175D02*
Y14195D01*
X246006Y1408D02*
X246206D01*
X246106Y1407D02*
Y1409D01*
X26415Y1281D02*
X26435D01*
X26425Y128D02*
Y1282D01*
X23305Y12845D02*
X23325D01*
X23315Y12835D02*
Y12855D01*
X233Y141408D02*
X2332D01*
X2331Y141308D02*
Y141508D01*
X2339Y14145D02*
X2341D01*
X234Y14135D02*
Y14155D01*
X264168Y1352D02*
X264368D01*
X264268Y1351D02*
Y1353D01*
X264157Y131639D02*
X264357D01*
X264257Y131539D02*
Y131739D01*
X26415Y142293D02*
X26435D01*
X26425Y142193D02*
Y142393D01*
X26415Y13875D02*
X26435D01*
X26425Y13865D02*
Y13885D01*
X2622Y13005D02*
X2624D01*
X2623Y12995D02*
Y13015D01*
X2605Y127425D02*
X2607D01*
X2606Y127325D02*
Y127525D01*
X2444Y127301D02*
X2446D01*
X2445Y127201D02*
Y127401D01*
X2622Y12755D02*
X2624D01*
X2623Y12745D02*
Y12765D01*
X23465Y1282D02*
X23485D01*
X23475Y1281D02*
Y1283D01*
X233549Y128151D02*
X233749D01*
X233649Y128051D02*
Y128251D01*
X2682Y14155D02*
X2684D01*
X2683Y14145D02*
Y14165D01*
X24805Y1321D02*
X24825D01*
X24815Y132D02*
Y1322D01*
X24805Y13105D02*
X24825D01*
X24815Y13095D02*
Y13115D01*
X244Y12785D02*
X2442D01*
X2441Y12775D02*
Y12795D01*
X244Y12675D02*
X2442D01*
X2441Y12665D02*
Y12685D01*
X24165Y12675D02*
X24185D01*
X24175Y12665D02*
Y12685D01*
X2422Y1273D02*
X2424D01*
X2423Y1272D02*
Y1274D01*
X241707Y12785D02*
X241907D01*
X241807Y12775D02*
Y12795D01*
X2422Y1284D02*
X2424D01*
X2423Y1283D02*
Y1285D01*
X2444Y1284D02*
X2446D01*
X2445Y1283D02*
Y1285D01*
X2674Y1483D02*
X2676D01*
X2675Y1482D02*
Y1484D01*
X2632Y14835D02*
X2634D01*
X2633Y14825D02*
Y14845D01*
X25905Y1484D02*
X25925D01*
X25915Y1483D02*
Y1485D01*
X2342Y1484D02*
X2344D01*
X2343Y1483D02*
Y1485D01*
X2549Y14835D02*
X2551D01*
X255Y14825D02*
Y14845D01*
X2383Y14835D02*
X2385D01*
X2384Y14825D02*
Y14845D01*
X24245Y14835D02*
X24265D01*
X24255Y14825D02*
Y14845D01*
X24665Y14835D02*
X24685D01*
X24675Y14825D02*
Y14845D01*
X25075Y14835D02*
X25095D01*
X25085Y14825D02*
Y14845D01*
X247682Y13155D02*
X247882D01*
X247782Y13145D02*
Y13165D01*
X2682Y1309D02*
X2684D01*
X2683Y1308D02*
Y131D01*
X25645Y13875D02*
X25665D01*
X25655Y13865D02*
Y13885D01*
X25645Y142307D02*
X25665D01*
X25655Y142207D02*
Y142407D01*
X25645Y1281D02*
X25665D01*
X25655Y128D02*
Y1282D01*
X247682Y1327D02*
X247882D01*
X247782Y1326D02*
Y1328D01*
X22765Y1484D02*
X22785D01*
X22775Y1483D02*
Y1485D01*
X245363Y140382D02*
X245563D01*
X245463Y140282D02*
Y140483D01*
X25645Y13165D02*
X25665D01*
X25655Y13155D02*
Y13175D01*
X2605Y13795D02*
X2607D01*
X2606Y13785D02*
Y13805D01*
X2605Y13445D02*
X2607D01*
X2606Y13435D02*
Y13455D01*
X2605Y1415D02*
X2607D01*
X2606Y1414D02*
Y1416D01*
X2622Y128215D02*
X2624D01*
X2623Y128115D02*
Y128315D01*
X2622Y12885D02*
X2624D01*
X2623Y12875D02*
Y12895D01*
X2622Y129445D02*
X2624D01*
X2623Y129345D02*
Y129545D01*
X2682Y13445D02*
X2684D01*
X2683Y13435D02*
Y13455D01*
M02*
