M48
;Layer_Color=9474304
;FILE_FORMAT=2:4
INCH,LZ
;TYPE=PLATED
T3F00S00C0.0300
%
G90
G05
T03
G00X2781Y109794
M15
G01Y110006
M16
G00X2761Y109794
M15
G01Y110006
M16
G00X2741Y109794
M15
G01Y110006
M16
G00X2721Y109794
M15
G01Y110006
M16
G00X2701Y109794
M15
G01Y110006
M16
G00X2681Y109794
M15
G01Y110006
M16
G00X2661Y109794
M15
G01Y110006
M16
G00X2661Y112794
M15
G01Y113006
M16
G00X2681Y112794
M15
G01Y113006
M16
G00X2701Y112794
M15
G01Y113006
M16
G00X2721Y112794
M15
G01Y113006
M16
G00X2741Y112794
M15
G01Y113006
M16
G00X2761Y112814
M15
G01Y112986
M16
G00X2781Y112794
M15
G01Y113006
M16
G00X279206Y11675
M15
G01X278994
M16
G00X279206Y11875
M15
G01X278994
M16
G00X279206Y12075
M15
G01X278994
M16
G00X279206Y12275
M15
G01X278994
M16
G00X279206Y12475
M15
G01X278994
M16
G00X276206Y12475
M15
G01X275994
M16
G00X276206Y12275
M15
G01X275994
M16
G00X276206Y12075
M15
G01X275994
M16
G00X276206Y11875
M15
G01X275994
M16
G00X276206Y11675
M15
G01X275994
M16
G00X2641Y112794
M15
G01Y113006
M16
G00X2621Y112794
M15
G01Y113006
M16
G00X2601Y112794
M15
G01Y113006
M16
G00X2601Y109794
M15
G01Y110006
M16
G00X2621Y109794
M15
G01Y110006
M16
G00X2641Y109794
M15
G01Y110006
M16
G00X25635Y109794
M15
G01Y110006
M16
G00X25435Y109794
M15
G01Y110006
M16
G00X25235Y109794
M15
G01Y110006
M16
G00X25035Y109794
M15
G01Y110006
M16
G00X25035Y112794
M15
G01Y113006
M16
G00X25235Y112794
M15
G01Y113006
M16
G00X25435Y112814
M15
G01Y112986
M16
G00X25635Y112794
M15
G01Y113006
M16
G00X24835Y112794
M15
G01Y113006
M16
G00X24635Y112794
M15
G01Y113006
M16
G00X24435Y112794
M15
G01Y113006
M16
G00X24235Y112794
M15
G01Y113006
M16
G00X24035Y112794
M15
G01Y113006
M16
G00X23835Y112794
M15
G01Y113006
M16
G00X23835Y109794
M15
G01Y110006
M16
G00X24035Y109794
M15
G01Y110006
M16
G00X24235Y109794
M15
G01Y110006
M16
G00X24435Y109794
M15
G01Y110006
M16
G00X24635Y109794
M15
G01Y110006
M16
G00X24835Y109794
M15
G01Y110006
M16
G00X2346Y109794
M15
G01Y110006
M16
G00X2346Y112794
M15
G01Y113006
M16
G00X2326Y112814
M15
G01Y112986
M16
G00X2306Y112794
M15
G01Y113006
M16
G00X2286Y112794
M15
G01Y113006
M16
G00X2266Y112794
M15
G01Y113006
M16
G00X2246Y112794
M15
G01Y113006
M16
G00X2226Y112794
M15
G01Y113006
M16
G00X2206Y112794
M15
G01Y113006
M16
G00X2206Y109794
M15
G01Y110006
M16
G00X2226Y109794
M15
G01Y110006
M16
G00X2246Y109794
M15
G01Y110006
M16
G00X2266Y109794
M15
G01Y110006
M16
G00X2286Y109794
M15
G01Y110006
M16
G00X2306Y109794
M15
G01Y110006
M16
G00X2326Y109794
M15
G01Y110006
M16
G00X2186Y109794
M15
G01Y110006
M16
G00X2166Y109794
M15
G01Y110006
M16
G00X2166Y112794
M15
G01Y113006
M16
G00X2186Y112794
M15
G01Y113006
M16
G00X276206Y12675
M15
G01X275994
M16
G00X276206Y12875
M15
G01X275994
M16
G00X276206Y13075
M15
G01X275994
M16
G00X276186Y13275
M15
G01X276014
M16
G00X276206Y13475
M15
G01X275994
M16
G00X279206Y13475
M15
G01X278994
M16
G00X279206Y13275
M15
G01X278994
M16
G00X279206Y13075
M15
G01X278994
M16
G00X279206Y12875
M15
G01X278994
M16
G00X279206Y12675
M15
G01X278994
M16
G00X279206Y1385
M15
G01X278994
M16
G00X279206Y1405
M15
G01X278994
M16
G00X276206Y1405
M15
G01X275994
M16
G00X276206Y1385
M15
G01X275994
M16
G00X276206Y1425
M15
G01X275994
M16
G00X276206Y1445
M15
G01X275994
M16
G00X276206Y1465
M15
G01X275994
M16
G00X276206Y1485
M15
G01X275994
M16
G00X276206Y1505
M15
G01X275994
M16
G00X276206Y1525
M15
G01X275994
M16
G00X276186Y1545
M15
G01X276014
M16
G00X279206Y1545
M15
G01X278994
M16
G00X279206Y1525
M15
G01X278994
M16
G00X279206Y1505
M15
G01X278994
M16
G00X279206Y1485
M15
G01X278994
M16
G00X279206Y1465
M15
G01X278994
M16
G00X279206Y1445
M15
G01X278994
M16
G00X279206Y1425
M15
G01X278994
M16
G00X27025Y154006
M15
G01Y153794
M16
G00X26825Y154006
M15
G01Y153794
M16
G00X26625Y154006
M15
G01Y153794
M16
G00X26425Y154006
M15
G01Y153794
M16
G00X26225Y154006
M15
G01Y153794
M16
G00X26025Y154006
M15
G01Y153794
M16
G00X25825Y154006
M15
G01Y153794
M16
G00X25625Y154006
M15
G01Y153794
M16
G00X25425Y153986
M15
G01Y153814
M16
G00X25225Y154006
M15
G01Y153794
M16
G00X2485Y154003
M15
G01Y153791
M16
G00X2465Y154003
M15
G01Y153791
M16
G00X2445Y154003
M15
G01Y153791
M16
G00X2425Y154003
M15
G01Y153791
M16
G00X2405Y154003
M15
G01Y153791
M16
G00X2385Y154003
M15
G01Y153791
M16
G00X2365Y154003
M15
G01Y153791
M16
G00X2345Y154003
M15
G01Y153791
M16
G00X2325Y153983
M15
G01Y153811
M16
G00X2305Y154003
M15
G01Y153791
M16
G00X2305Y157003
M15
G01Y156791
M16
G00X2325Y157003
M15
G01Y156791
M16
G00X2345Y157003
M15
G01Y156791
M16
G00X2365Y157003
M15
G01Y156791
M16
G00X2385Y157003
M15
G01Y156791
M16
G00X2405Y157003
M15
G01Y156791
M16
G00X2425Y157003
M15
G01Y156791
M16
G00X2445Y157003
M15
G01Y156791
M16
G00X2465Y157003
M15
G01Y156791
M16
G00X2485Y157003
M15
G01Y156791
M16
G00X25225Y157006
M15
G01Y156794
M16
G00X25425Y157006
M15
G01Y156794
M16
G00X25625Y157006
M15
G01Y156794
M16
G00X25825Y157006
M15
G01Y156794
M16
G00X26025Y157006
M15
G01Y156794
M16
G00X26225Y157006
M15
G01Y156794
M16
G00X26425Y157006
M15
G01Y156794
M16
G00X26625Y157006
M15
G01Y156794
M16
G00X26825Y157006
M15
G01Y156794
M16
G00X27025Y157006
M15
G01Y156794
M16
G00X276206Y1565
M15
G01X275994
M16
G00X279206Y1565
M15
G01X278994
M16
M17
M30
