G04*
G04 #@! TF.GenerationSoftware,Altium Limited,Altium Designer,20.2.3 (150)*
G04*
G04 Layer_Color=255*
%FSTAX24Y24*%
%MOIN*%
G70*
G04*
G04 #@! TF.SameCoordinates,FD17E350-08D3-4DFF-A4DB-8DFB896FC0A1*
G04*
G04*
G04 #@! TF.FilePolarity,Positive*
G04*
G01*
G75*
%ADD64C,0.0610*%
%ADD65R,0.0610X0.0610*%
%ADD72R,0.0591X0.0591*%
%ADD73C,0.0591*%
%ADD74R,0.0591X0.0591*%
%ADD75C,0.1570*%
%ADD76O,0.0600X0.0787*%
%ADD77O,0.0787X0.0600*%
%ADD78C,0.0787*%
%ADD79R,0.0787X0.0787*%
%ADD80C,0.0400*%
%ADD81O,0.0620X0.0900*%
D64*
X21825Y1218D02*
D03*
Y1198D02*
D03*
Y1188D02*
D03*
Y1178D02*
D03*
X21625Y1198D02*
D03*
Y1188D02*
D03*
Y1178D02*
D03*
X236731D02*
D03*
Y1188D02*
D03*
Y1198D02*
D03*
X238731Y1178D02*
D03*
Y1188D02*
D03*
Y1198D02*
D03*
Y1218D02*
D03*
X259212D02*
D03*
Y1198D02*
D03*
Y1188D02*
D03*
Y1178D02*
D03*
X257212Y1198D02*
D03*
Y1188D02*
D03*
Y1178D02*
D03*
X220346D02*
D03*
Y1188D02*
D03*
Y1198D02*
D03*
X222346Y1178D02*
D03*
Y1188D02*
D03*
Y1198D02*
D03*
Y1218D02*
D03*
X242827D02*
D03*
Y1198D02*
D03*
Y1188D02*
D03*
Y1178D02*
D03*
X240827Y1198D02*
D03*
Y1188D02*
D03*
Y1178D02*
D03*
X261308D02*
D03*
Y1188D02*
D03*
Y1198D02*
D03*
X263308Y1178D02*
D03*
Y1188D02*
D03*
Y1198D02*
D03*
Y1218D02*
D03*
X226442D02*
D03*
Y1198D02*
D03*
Y1188D02*
D03*
Y1178D02*
D03*
X224442Y1198D02*
D03*
Y1188D02*
D03*
Y1178D02*
D03*
X244923D02*
D03*
Y1188D02*
D03*
Y1198D02*
D03*
X246923Y1178D02*
D03*
Y1188D02*
D03*
Y1198D02*
D03*
Y1218D02*
D03*
X267404D02*
D03*
Y1198D02*
D03*
Y1188D02*
D03*
Y1178D02*
D03*
X265404Y1198D02*
D03*
Y1188D02*
D03*
Y1178D02*
D03*
X228538D02*
D03*
Y1188D02*
D03*
Y1198D02*
D03*
X230538Y1178D02*
D03*
Y1188D02*
D03*
Y1198D02*
D03*
Y1218D02*
D03*
X251019D02*
D03*
Y1198D02*
D03*
Y1188D02*
D03*
Y1178D02*
D03*
X249019Y1198D02*
D03*
Y1188D02*
D03*
Y1178D02*
D03*
X2695D02*
D03*
Y1188D02*
D03*
Y1198D02*
D03*
X2715Y1178D02*
D03*
Y1188D02*
D03*
Y1198D02*
D03*
Y1218D02*
D03*
X234635D02*
D03*
Y1198D02*
D03*
Y1188D02*
D03*
Y1178D02*
D03*
X232635Y1198D02*
D03*
Y1188D02*
D03*
Y1178D02*
D03*
X253115D02*
D03*
Y1188D02*
D03*
Y1198D02*
D03*
X255115Y1178D02*
D03*
Y1188D02*
D03*
Y1198D02*
D03*
Y1218D02*
D03*
D65*
X21625D02*
D03*
X236731D02*
D03*
X257212D02*
D03*
X220346D02*
D03*
X240827D02*
D03*
X261308D02*
D03*
X224442D02*
D03*
X244923D02*
D03*
X265404D02*
D03*
X228538D02*
D03*
X249019D02*
D03*
X2695D02*
D03*
X232635D02*
D03*
X253115D02*
D03*
D72*
X2327Y12545D02*
D03*
X2397Y14445D02*
D03*
X2312D02*
D03*
D73*
X2307Y12545D02*
D03*
X2297D02*
D03*
X2327Y14445D02*
D03*
X2337D02*
D03*
X2347D02*
D03*
X2357D02*
D03*
X2367D02*
D03*
X2377D02*
D03*
X2387D02*
D03*
X2272D02*
D03*
X2282D02*
D03*
X2292D02*
D03*
X2302D02*
D03*
X2347Y12545D02*
D03*
X2357D02*
D03*
X2367D02*
D03*
X2377D02*
D03*
X2517Y12745D02*
D03*
X2527Y13045D02*
D03*
X2517D02*
D03*
X2527Y13145D02*
D03*
X2517D02*
D03*
X2527Y13245D02*
D03*
X2517D02*
D03*
X2527Y13345D02*
D03*
X2517D02*
D03*
X2527Y13445D02*
D03*
X2517D02*
D03*
X2527Y13545D02*
D03*
X2517D02*
D03*
X2527Y13645D02*
D03*
X2517D02*
D03*
Y14345D02*
D03*
Y14445D02*
D03*
X2252D02*
D03*
D74*
X2527Y12745D02*
D03*
D75*
X21395Y15811D02*
D03*
X27347Y15812D02*
D03*
X21395Y10869D02*
D03*
X2734Y116D02*
D03*
D76*
X2305Y156897D02*
D03*
X2325D02*
D03*
X2345D02*
D03*
X2365D02*
D03*
X2385D02*
D03*
X2405D02*
D03*
X2425D02*
D03*
X2445D02*
D03*
X2305Y153897D02*
D03*
X2325D02*
D03*
X2345D02*
D03*
X2365D02*
D03*
X2385D02*
D03*
X2405D02*
D03*
X2425D02*
D03*
X2465D02*
D03*
Y156897D02*
D03*
X2445Y153897D02*
D03*
X2485D02*
D03*
Y156897D02*
D03*
X25225Y1569D02*
D03*
X25425D02*
D03*
X25625D02*
D03*
X25825D02*
D03*
X26025D02*
D03*
X26225D02*
D03*
X26425D02*
D03*
X26625D02*
D03*
X25225Y1539D02*
D03*
X25425D02*
D03*
X25625D02*
D03*
X25825D02*
D03*
X26025D02*
D03*
X26225D02*
D03*
X26425D02*
D03*
X26825D02*
D03*
Y1569D02*
D03*
X26625Y1539D02*
D03*
X27025D02*
D03*
Y1569D02*
D03*
X25635Y1099D02*
D03*
X25435D02*
D03*
X25235D02*
D03*
X25035D02*
D03*
X24835D02*
D03*
X24635D02*
D03*
X24435D02*
D03*
X24235D02*
D03*
X25635Y1129D02*
D03*
X25435D02*
D03*
X25235D02*
D03*
X25035D02*
D03*
X24835D02*
D03*
X24635D02*
D03*
X24435D02*
D03*
X24035D02*
D03*
Y1099D02*
D03*
X24235Y1129D02*
D03*
X23835D02*
D03*
Y1099D02*
D03*
X2166D02*
D03*
Y1129D02*
D03*
X2206D02*
D03*
X2186Y1099D02*
D03*
Y1129D02*
D03*
X2226D02*
D03*
X2246D02*
D03*
X2266D02*
D03*
X2286D02*
D03*
X2306D02*
D03*
X2326D02*
D03*
X2346D02*
D03*
X2206Y1099D02*
D03*
X2226D02*
D03*
X2246D02*
D03*
X2266D02*
D03*
X2286D02*
D03*
X2306D02*
D03*
X2326D02*
D03*
X2346D02*
D03*
X2781D02*
D03*
X2761D02*
D03*
X2741D02*
D03*
X2721D02*
D03*
X2701D02*
D03*
X2681D02*
D03*
X2661D02*
D03*
X2641D02*
D03*
X2781Y1129D02*
D03*
X2761D02*
D03*
X2741D02*
D03*
X2721D02*
D03*
X2701D02*
D03*
X2681D02*
D03*
X2661D02*
D03*
X2621D02*
D03*
Y1099D02*
D03*
X2641Y1129D02*
D03*
X2601D02*
D03*
Y1099D02*
D03*
D77*
X2791Y1565D02*
D03*
Y1545D02*
D03*
Y1525D02*
D03*
Y1505D02*
D03*
Y1485D02*
D03*
Y1465D02*
D03*
Y1445D02*
D03*
Y1425D02*
D03*
X2761Y1565D02*
D03*
Y1545D02*
D03*
Y1525D02*
D03*
Y1505D02*
D03*
Y1485D02*
D03*
Y1465D02*
D03*
Y1445D02*
D03*
Y1405D02*
D03*
X2791D02*
D03*
X2761Y1425D02*
D03*
Y1385D02*
D03*
X2791D02*
D03*
Y11675D02*
D03*
X2761D02*
D03*
Y12075D02*
D03*
X2791Y11875D02*
D03*
X2761D02*
D03*
Y12275D02*
D03*
Y12475D02*
D03*
Y12675D02*
D03*
Y12875D02*
D03*
Y13075D02*
D03*
Y13275D02*
D03*
Y13475D02*
D03*
X2791Y12075D02*
D03*
Y12275D02*
D03*
Y12475D02*
D03*
Y12675D02*
D03*
Y12875D02*
D03*
Y13075D02*
D03*
Y13275D02*
D03*
Y13475D02*
D03*
D78*
X221949Y14025D02*
D03*
D79*
Y14225D02*
D03*
D80*
X26828Y138D02*
D03*
D81*
X224Y15575D02*
D03*
Y15275D02*
D03*
X22Y15575D02*
D03*
X221D02*
D03*
X222D02*
D03*
X223D02*
D03*
Y15275D02*
D03*
X222D02*
D03*
X221D02*
D03*
X22D02*
D03*
X216Y15575D02*
D03*
X217D02*
D03*
X218D02*
D03*
X219D02*
D03*
Y15275D02*
D03*
X218D02*
D03*
X217D02*
D03*
X216D02*
D03*
X225Y15575D02*
D03*
Y15275D02*
D03*
Y14715D02*
D03*
Y15015D02*
D03*
X216Y14715D02*
D03*
X217D02*
D03*
X218D02*
D03*
X219D02*
D03*
Y15015D02*
D03*
X218D02*
D03*
X217D02*
D03*
X216D02*
D03*
X22Y14715D02*
D03*
X221D02*
D03*
X222D02*
D03*
X223D02*
D03*
Y15015D02*
D03*
X222D02*
D03*
X221D02*
D03*
X22D02*
D03*
X224Y14715D02*
D03*
Y15015D02*
D03*
M02*
