M48
;Layer_Color=9474304
;FILE_FORMAT=2:4
INCH,LZ
;TYPE=PLATED
T1F00S00C0.0200
T2F00S00C0.0280
T4F00S00C0.0354
T5F00S00C0.0360
T6F00S00C0.0394
T7F00S00C0.1181
T8F00S00C0.1570
%
T01
X2342Y12845
X233649Y128151
X23315Y12845
X23475Y1282
X241807Y12785
X2423Y1273
X24175Y12675
X2423Y1284
X2445
X2441Y12785
X2445Y127301
X2441Y12675
X24815Y13105
X247782Y13155
X24815Y1321
X247782Y1327
X246672Y140322
X245463Y140382
X25655Y13875
Y1352
Y13165
Y1281
X2606Y127425
X2623Y12755
Y128215
Y12885
Y129445
Y13005
X2606Y13085
Y13445
Y13795
X26425Y13875
X264268Y1352
X264257Y131639
X26425Y1281
X26825Y12735
X2683Y1309
Y13445
X26828Y138
X2683Y14155
X2675Y1483
X27025Y14725
X2633Y14835
X25915Y1484
X255Y14835
X25085
X25655Y142307
X2606Y1415
X26425Y142293
X246106Y1408
X24675Y14835
X24255
X2384
X2343Y1484
X228355
X22775
X22715
Y14973
X22775
X228355Y149725
X228Y1423
X227149
X22895
X2331Y141408
X23355Y14185
X234Y14145
T02
X218504Y10748
X217323
X216142
X214961
X215551Y108661
X216732
X217913
X219094
X220276
X221457
X222638
X223819
X225
X226181
X227362
X228543
X229724
X230905
X232087
X233268
X232677Y10748
X233858
X231496
X230315
X229134
X227953
X226772
X22559
X224409
X223228
X222047
X220866
X219685
X235039
X23622
X237402
X238583
X239764
X240945
X242126
X243307
X244488
X245669
X24685
X248031
X249213
X248622Y108661
X249803
X247441
X24626
X245079
X243898
X242716
X241535
X240354
X239173
X237992
X236811
X23563
X234449
X250984
X252165
X253346
X254527
X255709
X25689
X258071
X259252
X260433
X261614
X262795
X263976
X265157
X264567Y10748
X263386
X262205
X261024
X259842
X258661
X25748
X256299
X255118
X253937
X252756
X251575
X250394
X265748
X266929
X26811
X269291
X270472
X271653
X272835
X274016
X275197
X276378
X277559
X27874
X279921
X281102
X280512Y108661
X274606
X273425
X272244
X271063
X269882
X268701
X26752
X266339
X271063Y111024
Y113386
X270472Y116929
Y121653
X272244Y122835
X271653Y124016
X268701Y122835
X26752
X26811Y119291
X27815Y115748
X279331
X27874Y114567
X279331Y113386
Y111024
X265157
X261024Y109842
X258661
X25748
X258071Y111024
X25748Y112205
X258661
X25748Y114567
X255118
X253346Y113386
Y111024
X251575Y114567
X259252Y115748
X259842Y119291
X260433Y122835
X259252
X263976
X263386Y114567
X249213
X247441Y113386
X245079
X245669Y114567
X243307
Y112205
Y109842
X247441Y111024
X241535Y113386
X239173
X236811
X23563
X23622Y114567
X237402
Y112205
X23622
X236811Y111024
X23563
X23622Y109842
X237402
X239764Y119291
X239173Y122835
X240354
X242126Y124016
X248031Y119291
X231496
X230315Y114567
X229724Y113386
X227362
X227953Y114567
X22559Y112205
Y109842
X223819Y113386
X221457
X222047Y114567
X219685
X220276Y115748
X219685Y112205
Y109842
X231496
X233858Y114567
X227362Y122835
X223228Y124016
Y119291
X214699Y11985
X2147Y12185
X215551Y122835
X216142Y124016
X217323
X218504
X214961
Y114567
X216142
X215551Y113386
X21437
X214961Y112205
X213779
X21437Y111024
X215551
X214961Y109842
X213779Y114567
X215551Y125197
X216732
X217913
X218504Y126378
X217323
X216142
X214961
X215551Y127559
X216732
X217913
X218504Y12874
X217323
X217913Y129921
X217323Y131102
X217913Y132283
X214961Y133465
X220866
X222047
X223228
X224409
X225Y134646
X223819
X222638
X221457
X223228Y135827
X224409
X225Y137008
X226181
X226772Y138189
X22559
X224409
X223819Y137008
X222638
X219685Y138189
X219094Y13937
X220099Y1404
X226181Y13937
X227362
X228543
Y134646
X227362
X227953Y133465
X224409Y131102
X223228
X222047
X222638Y132283
Y127559
X221457
X220276
X219094
X219685Y12874
Y126378
X220866
X219094Y125197
X223819
X224409Y126378
X233858Y135827
X238583Y133465
X239173Y132283
X238583Y131102
X239173Y129921
X238583Y12874
X239173Y127559
X239764Y126378
X238583
X239173Y125197
X240354
X245079
X249803Y127559
X249213Y12874
X248622Y129921
X249803
X249213Y131102
Y133465
X248622Y134646
Y13937
X248031Y140551
X237402
X25748
X258661
X259252Y13937
Y137008
X258071
X25689
X258661Y135827
Y133465
X25748
X256299
X259252Y132283
Y129921
X258071
X25689
X258661Y12874
X252756
X251575
X250394
X250984Y129921
X265157
X264567Y133465
X263976Y137008
X265157
X263976Y13937
X264567Y140551
X265748
X266339Y13937
Y137008
X269291Y138189
Y131102
X266339Y132283
X265748Y133465
X266339Y129921
X273425
Y132283
X276378Y135827
X277559
X27874
X279331Y137008
X27815
X276968
X271653Y126378
X272244Y125197
X271063
X274799Y1418
X2748Y143099
X276968Y153543
X27815
X279331
X269882Y151181
X268701
X265748Y152362
X265157Y153543
X262795Y151181
X260433
X262205Y147638
Y145276
X25748
X256299
X258071Y144094
X258661Y142913
X253937
X254527Y141732
X253346Y144094
X250394Y154724
X250984Y155905
X249803
X247441Y153543
X241535
X23563
X237402Y147638
X242126
X237992Y141732
X236811
X23265Y14345
X228649
X226772Y145276
X22559
X224183Y144467
X2242Y14345
X222924Y141225
X220949Y14125
X220866Y142913
X219685
X219094Y141732
Y148819
X220276
X221457
X226772Y147638
X227953
X229134
X230315
X233858
X217913Y148819
X216732
X215551
Y151181
X216732Y144094
X217323Y142913
X216142
X216732Y141732
X217913
X218504Y142913
Y157087
X217323
X250394
X255118
X263386
X269291
T04
X2327Y12545
X2307
X2297
X2347
X2357
X2367
X2377
X2517Y12745
X2527
Y13045
X2517
Y13145
X2527
Y13245
X2517
Y13345
X2527
Y13445
X2517
Y13545
X2527
Y13645
X2517
Y14345
Y14445
X2397
X2387
X2377
X2367
X2357
X2347
X2337
X2327
X2312
X2302
X2292
X2282
X2272
X2252
T05
X225Y15575
X224
X223
X222
X221
X22
X219
Y15275
X22
X221
X222
X223
X224
X225
Y15015
X224
X223
X222
X221
X22
X219
Y14715
X22
X221
X222
X223
X224
X225
X218
X217
X216
Y15015
X217
X218
Y15275
X217
X216
Y15575
X217
X218
T06
X2715Y1178
Y1188
Y1198
X2695
Y1188
Y1178
X267404
Y1188
Y1198
Y1218
X2695
X2715
X265404
Y1198
Y1188
Y1178
X263308
Y1188
Y1198
X261308
Y1188
Y1178
X259212
Y1188
Y1198
Y1218
X257212
Y1198
Y1188
Y1178
X255115
Y1188
Y1198
X253115
Y1188
Y1178
X251019
Y1188
Y1198
Y1218
X253115
X255115
X261308
X263308
X249019
Y1198
Y1188
Y1178
X246923
Y1188
Y1198
X244923
Y1188
Y1178
X242827
Y1188
Y1198
Y1218
X240827
Y1198
Y1188
Y1178
X238731
Y1188
Y1198
X236731
Y1188
Y1178
X234635
Y1188
Y1198
Y1218
X236731
X238731
X244923
X246923
X232635
Y1198
Y1188
Y1178
X230538
Y1188
Y1198
X228538
Y1188
Y1178
X226442
Y1188
Y1198
Y1218
X224442
Y1198
Y1188
Y1178
X222346
Y1188
Y1198
X220346
Y1188
Y1178
Y1218
X222346
X228538
X230538
X21825
Y1198
Y1188
Y1178
X21625
Y1188
Y1198
Y1218
X221949Y14025
Y14225
T07
X2202Y12545
X2527
X2502Y14445
X2207
T08
X21395Y10869
X2734Y116
X21395Y15811
X27347Y15812
M30
